<svg width="26" height="25" viewBox="0 0 26 25" fill="none" xmlns="http://www.w3.org/2000/svg">
<g clip-path="url(#clip0)">
<path d="M25.7959 12.5C25.7959 5.59644 20.1995 0 13.2959 0C6.39234 0 0.795898 5.59644 0.795898 12.5C0.795898 18.7391 5.36697 23.9104 11.3428 24.8481V16.1133H8.16895V12.5H11.3428V9.74609C11.3428 6.61328 13.2089 4.88281 16.0642 4.88281C17.4318 4.88281 18.8623 5.12695 18.8623 5.12695V8.20312H17.2861C15.7333 8.20312 15.249 9.16667 15.249 10.1552V12.5H18.7158L18.1616 16.1133H15.249V24.8481C21.2248 23.9104 25.7959 18.7391 25.7959 12.5Z" fill="#1877F2"/>
<path d="M18.1616 16.1133L18.7158 12.5H15.249V10.1552C15.249 9.16667 15.7333 8.20312 17.2861 8.20312H18.8623V5.12695C18.8623 5.12695 17.4318 4.88281 16.0642 4.88281C13.2089 4.88281 11.3428 6.61328 11.3428 9.74609V12.5H8.16895V16.1133H11.3428V24.8481C12.637 25.0506 13.9548 25.0506 15.249 24.8481V16.1133H18.1616Z" fill="white"/>
</g>
<defs>
<clipPath id="clip0">
<rect width="25" height="25" fill="white" transform="translate(0.795898)"/>
</clipPath>
</defs>
</svg>
