<svg width="26" height="26" viewBox="0 0 26 26" fill="none" xmlns="http://www.w3.org/2000/svg">
<g clip-path="url(#clip0)">
<path d="M6.33643 15.371L5.46621 18.6196L2.2856 18.6869C1.33506 16.9239 0.795898 14.9067 0.795898 12.7632C0.795898 10.6904 1.3 8.73567 2.19355 7.01453H2.19424L5.02588 7.53367L6.26631 10.3483C6.00669 11.1052 5.86519 11.9177 5.86519 12.7632C5.86528 13.6807 6.03149 14.5599 6.33643 15.371Z" fill="#FBBB00"/>
<path d="M25.5775 10.428C25.721 11.1842 25.7959 11.9651 25.7959 12.7632C25.7959 13.6581 25.7018 14.531 25.5225 15.3731C24.914 18.2385 23.324 20.7405 21.1215 22.5111L21.1208 22.5104L17.5542 22.3284L17.0494 19.1773C18.5109 18.3202 19.6531 16.9788 20.2548 15.3731H13.5707V10.428H20.3523H25.5775Z" fill="#518EF8"/>
<path d="M21.1208 22.5104L21.1215 22.5111C18.9793 24.2329 16.2582 25.2631 13.2959 25.2631C8.53564 25.2631 4.39692 22.6024 2.28564 18.6869L6.33647 15.371C7.39209 18.1883 10.1098 20.1938 13.2959 20.1938C14.6654 20.1938 15.9484 19.8236 17.0494 19.1773L21.1208 22.5104Z" fill="#28B446"/>
<path d="M21.2747 3.14089L17.2252 6.45612C16.0858 5.74391 14.7389 5.33249 13.296 5.33249C10.0377 5.33249 7.26914 7.43 6.26641 10.3483L2.19429 7.01452H2.1936C4.27398 3.00353 8.46489 0.263153 13.296 0.263153C16.3289 0.263153 19.1098 1.34352 21.2747 3.14089Z" fill="#F14336"/>
</g>
<defs>
<clipPath id="clip0">
<rect width="25" height="25" fill="white" transform="translate(0.795898 0.263153)"/>
</clipPath>
</defs>
</svg>
