<svg width="26" height="25" viewBox="0 0 26 25" fill="none" xmlns="http://www.w3.org/2000/svg">
<g clip-path="url(#clip0)">
<path d="M13.006 0.189331C7.86565 0.189331 6.36228 0.194634 6.07006 0.218877C5.01516 0.306566 4.35875 0.472664 3.64362 0.828725C3.0925 1.1024 2.65785 1.41963 2.22888 1.86433C1.44766 2.67532 0.974188 3.67304 0.802791 4.85903C0.719461 5.43479 0.695219 5.55221 0.690295 8.49312C0.688401 9.47342 0.690295 10.7636 0.690295 12.4941C0.690295 17.6304 0.695976 19.1323 0.720597 19.424C0.805822 20.4505 0.966802 21.0963 1.3077 21.8028C1.9592 23.1551 3.20348 24.1702 4.66934 24.549C5.1769 24.6797 5.73749 24.7516 6.45717 24.7857C6.76208 24.799 9.86994 24.8085 12.9797 24.8085C16.0895 24.8085 19.1992 24.8047 19.4965 24.7895C20.3299 24.7503 20.8137 24.6854 21.3488 24.5471C22.8241 24.1664 24.0457 23.1664 24.7104 21.7952C25.0447 21.1058 25.2142 20.4354 25.2909 19.4624C25.3075 19.2503 25.3146 15.8683 25.3146 12.4908C25.3146 9.11282 25.307 5.73706 25.2903 5.52494C25.2127 4.5363 25.0432 3.87153 24.6981 3.16888C24.415 2.59369 24.1006 2.16414 23.6441 1.72494C22.8296 0.946907 21.8334 0.473422 20.6463 0.30221C20.0712 0.219066 19.9566 0.194445 17.0135 0.189331H13.006Z" fill="url(#paint0_radial)"/>
<path d="M13.006 0.189331C7.86565 0.189331 6.36228 0.194634 6.07006 0.218877C5.01516 0.306566 4.35875 0.472664 3.64362 0.828725C3.0925 1.1024 2.65785 1.41963 2.22888 1.86433C1.44766 2.67532 0.974188 3.67304 0.802791 4.85903C0.719461 5.43479 0.695219 5.55221 0.690295 8.49312C0.688401 9.47342 0.690295 10.7636 0.690295 12.4941C0.690295 17.6304 0.695976 19.1323 0.720597 19.424C0.805822 20.4505 0.966802 21.0963 1.3077 21.8028C1.9592 23.1551 3.20348 24.1702 4.66934 24.549C5.1769 24.6797 5.73749 24.7516 6.45717 24.7857C6.76208 24.799 9.86994 24.8085 12.9797 24.8085C16.0895 24.8085 19.1992 24.8047 19.4965 24.7895C20.3299 24.7503 20.8137 24.6854 21.3488 24.5471C22.8241 24.1664 24.0457 23.1664 24.7104 21.7952C25.0447 21.1058 25.2142 20.4354 25.2909 19.4624C25.3075 19.2503 25.3146 15.8683 25.3146 12.4908C25.3146 9.11282 25.307 5.73706 25.2903 5.52494C25.2127 4.5363 25.0432 3.87153 24.6981 3.16888C24.415 2.59369 24.1006 2.16414 23.6441 1.72494C22.8296 0.946907 21.8334 0.473422 20.6463 0.30221C20.0712 0.219066 19.9566 0.194445 17.0135 0.189331H13.006Z" fill="url(#paint1_radial)"/>
<path d="M13.0003 3.40906C10.5315 3.40906 10.2216 3.41985 9.25196 3.46398C8.28418 3.5083 7.6236 3.66152 7.04558 3.88633C6.44768 4.11853 5.9405 4.42913 5.43521 4.93463C4.92955 5.43993 4.61895 5.94712 4.386 6.54485C4.16063 7.12307 4.00723 7.78387 3.96367 8.75129C3.9203 9.72099 3.90894 10.031 3.90894 12.5C3.90894 14.9689 3.91992 15.2778 3.96386 16.2475C4.00836 17.2153 4.16158 17.8759 4.38619 18.4539C4.61857 19.0519 4.92917 19.5591 5.43465 20.0644C5.93975 20.57 6.44693 20.8814 7.04445 21.1136C7.62284 21.3384 8.28361 21.4916 9.2512 21.5359C10.2209 21.5801 10.5305 21.5909 12.9992 21.5909C15.4682 21.5909 15.7771 21.5801 16.7468 21.5359C17.7146 21.4916 18.3759 21.3384 18.9543 21.1136C19.552 20.8814 20.0584 20.57 20.5635 20.0644C21.0692 19.5591 21.3798 19.0519 21.6128 18.4541C21.8362 17.8759 21.9896 17.2151 22.0351 16.2477C22.0786 15.278 22.09 14.9689 22.09 12.5C22.09 10.031 22.0786 9.72118 22.0351 8.75148C21.9896 7.78368 21.8362 7.12307 21.6128 6.54504C21.3798 5.94712 21.0692 5.43993 20.5635 4.93463C20.0579 4.42894 19.5522 4.11834 18.9537 3.88633C18.3742 3.66152 17.7133 3.5083 16.7455 3.46398C15.7758 3.41985 15.4671 3.40906 12.9975 3.40906H13.0003ZM12.1848 5.04731C12.4269 5.04694 12.6969 5.04731 13.0003 5.04731C15.4275 5.04731 15.7152 5.05603 16.6737 5.09959C17.56 5.14012 18.0411 5.28822 18.3615 5.41266C18.7858 5.57743 19.0882 5.7744 19.4062 6.09258C19.7244 6.41076 19.9213 6.71379 20.0865 7.13803C20.2109 7.45811 20.3592 7.93917 20.3995 8.82553C20.4431 9.78387 20.4526 10.0717 20.4526 12.4979C20.4526 14.924 20.4431 15.2119 20.3995 16.1702C20.359 17.0566 20.2109 17.5377 20.0865 17.8577C19.9217 18.282 19.7244 18.5841 19.4062 18.902C19.088 19.2202 18.7859 19.4172 18.3615 19.582C18.0415 19.707 17.56 19.8547 16.6737 19.8952C15.7154 19.9388 15.4275 19.9483 13.0003 19.9483C10.5729 19.9483 10.2853 19.9388 9.32695 19.8952C8.44062 19.8543 7.95957 19.7062 7.63894 19.5818C7.21471 19.417 6.91169 19.22 6.59351 18.9019C6.27534 18.5837 6.07838 18.2814 5.91323 17.857C5.7888 17.5369 5.64051 17.0558 5.60017 16.1695C5.55661 15.2111 5.5479 14.9233 5.5479 12.4956C5.5479 10.068 5.55661 9.78159 5.60017 8.82326C5.6407 7.9369 5.7888 7.45584 5.91323 7.13538C6.078 6.71114 6.27534 6.40811 6.59351 6.08993C6.91169 5.77175 7.21471 5.57478 7.63894 5.40963C7.95938 5.28463 8.44062 5.1369 9.32695 5.09618C10.1656 5.0583 10.4906 5.04694 12.1848 5.04504V5.04731ZM17.8528 6.55678C17.2506 6.55678 16.762 7.04485 16.762 7.64731C16.762 8.24959 17.2506 8.73822 17.8528 8.73822C18.4551 8.73822 18.9437 8.24959 18.9437 7.64731C18.9437 7.04504 18.4551 6.55641 17.8528 6.55641V6.55678ZM13.0003 7.8314C10.4222 7.8314 8.33191 9.92174 8.33191 12.5C8.33191 15.0782 10.4222 17.1676 13.0003 17.1676C15.5785 17.1676 17.668 15.0782 17.668 12.5C17.668 9.92174 15.5783 7.8314 13.0001 7.8314H13.0003ZM13.0003 9.46966C14.6738 9.46966 16.0305 10.8263 16.0305 12.5C16.0305 14.1734 14.6738 15.5303 13.0003 15.5303C11.3267 15.5303 9.97012 14.1734 9.97012 12.5C9.97012 10.8263 11.3267 9.46966 13.0003 9.46966V9.46966Z" fill="white"/>
</g>
<defs>
<radialGradient id="paint0_radial" cx="0" cy="0" r="1" gradientUnits="userSpaceOnUse" gradientTransform="translate(7.23053 26.7046) rotate(-90) scale(24.3994 22.6988)">
<stop stop-color="#FFDD55"/>
<stop offset="0.1" stop-color="#FFDD55"/>
<stop offset="0.5" stop-color="#FF543E"/>
<stop offset="1" stop-color="#C837AB"/>
</radialGradient>
<radialGradient id="paint1_radial" cx="0" cy="0" r="1" gradientUnits="userSpaceOnUse" gradientTransform="translate(-3.43538 1.96285) rotate(78.678) scale(10.9067 44.968)">
<stop stop-color="#3771C8"/>
<stop offset="0.128" stop-color="#3771C8"/>
<stop offset="1" stop-color="#6600FF" stop-opacity="0"/>
</radialGradient>
<clipPath id="clip0">
<rect x="0.499939" width="25" height="25" rx="12.5" fill="white"/>
</clipPath>
</defs>
</svg>
