<svg width="123" height="48" viewBox="0 0 123 48" fill="none" xmlns="http://www.w3.org/2000/svg">
<path d="M40.41 9.58197C39.3072 8.47141 37.9958 7.58977 36.5511 6.98774C35.1065 6.38571 33.5571 6.07517 31.992 6.07397C29.0316 6.07446 26.1794 7.18652 24 9.18997C21.8208 7.18618 18.9684 6.07407 16.008 6.07397C14.4411 6.07561 12.8899 6.38709 11.4439 6.99051C9.99779 7.59393 8.68532 8.47736 7.58199 9.58997C2.87599 14.316 2.87799 21.708 7.58599 26.414L24 42.828L40.414 26.414C45.122 21.708 45.124 14.316 40.41 9.58197Z" fill="#D20000"/>
<path d="M19.6752 15.3418L13.017 22L19.6752 28.6582L21.3248 27.0085L16.3163 22L21.3248 16.9915L19.6752 15.3418ZM28.3248 28.6582L34.983 22L28.3248 15.3418L26.6752 16.9915L31.6837 22L26.6752 27.0085L28.3248 28.6582Z" fill="#D3D3D3"/>
<path d="M72.631 12.448V36H70.679V32.928C70.2097 33.9947 69.495 34.816 68.535 35.392C67.5963 35.9467 66.4657 36.224 65.143 36.224C63.735 36.224 62.487 35.8827 61.399 35.2C60.3323 34.496 59.5003 33.5147 58.903 32.256C58.3057 30.976 58.007 29.504 58.007 27.84C58.007 26.176 58.295 24.7253 58.871 23.488C59.4683 22.2293 60.3003 21.2693 61.367 20.608C62.455 19.9253 63.7137 19.584 65.143 19.584C66.4443 19.584 67.5643 19.8613 68.503 20.416C69.463 20.9707 70.1883 21.7813 70.679 22.848V12.448H72.631ZM65.399 34.496C67.0843 34.496 68.3857 33.92 69.303 32.768C70.2203 31.616 70.679 29.9947 70.679 27.904C70.679 25.8133 70.2203 24.192 69.303 23.04C68.3857 21.8667 67.095 21.28 65.431 21.28C63.7243 21.28 62.4017 21.856 61.463 23.008C60.5243 24.16 60.055 25.7707 60.055 27.84C60.055 29.9307 60.5243 31.5627 61.463 32.736C62.4017 33.9093 63.7137 34.496 65.399 34.496ZM84.8493 19.584C85.3826 19.584 85.8519 19.6267 86.2573 19.712L86.1613 21.472C85.7559 21.3867 85.2653 21.344 84.6892 21.344C83.0679 21.344 81.8519 21.8667 81.0413 22.912C80.2519 23.936 79.8573 25.1627 79.8573 26.592V36H77.9373V24.416C77.9373 22.752 77.8519 21.2693 77.6813 19.968H79.5373L79.7933 22.944C80.1986 21.856 80.8493 21.024 81.7453 20.448C82.6626 19.872 83.6973 19.584 84.8493 19.584ZM92.6775 31.52V36H88.1975V31.52H92.6775ZM96.6448 19.84H100.613V36H96.6448V19.84ZM100.837 12.512V16.448H96.3888V12.512H100.837ZM120.444 19.84V36H116.509V33.408C116.018 34.304 115.314 35.008 114.397 35.52C113.479 36.0107 112.434 36.256 111.26 36.256C109.853 36.256 108.605 35.9147 107.516 35.232C106.429 34.5493 105.586 33.5787 104.989 32.32C104.391 31.0613 104.093 29.6 104.093 27.936C104.093 26.272 104.391 24.8 104.989 23.52C105.607 22.2187 106.461 21.216 107.549 20.512C108.637 19.7867 109.874 19.424 111.26 19.424C112.434 19.424 113.479 19.68 114.397 20.192C115.314 20.6827 116.018 21.376 116.509 22.272V19.84H120.444ZM112.349 33.12C113.671 33.12 114.695 32.6613 115.421 31.744C116.146 30.8267 116.509 29.536 116.509 27.872C116.509 26.1653 116.146 24.8533 115.421 23.936C114.695 23.0187 113.661 22.56 112.317 22.56C110.994 22.56 109.959 23.04 109.213 24C108.487 24.9387 108.125 26.2507 108.125 27.936C108.125 29.6 108.487 30.88 109.213 31.776C109.959 32.672 111.005 33.12 112.349 33.12Z" fill="#696969"/>
</svg>
