<svg width="401" height="219" viewBox="0 0 401 219" fill="none" xmlns="http://www.w3.org/2000/svg">
<g clip-path="url(#clip0)">
<path d="M22.346 198.984C13.8223 206.252 12.0531 218.173 12.0531 218.173C12.0531 218.173 24.1036 218.31 32.6274 211.041C41.1512 203.773 42.9203 191.852 42.9203 191.852C42.9203 191.852 30.8698 191.716 22.346 198.984Z" fill="#F2F2F2"/>
<path d="M26.2847 201.876C22.6539 212.473 12.2153 218.495 12.2153 218.495C12.2153 218.495 7.66346 207.337 11.2943 196.74C14.9251 186.143 25.3636 180.12 25.3636 180.12C25.3636 180.12 29.9155 191.279 26.2847 201.876Z" fill="#F2F2F2"/>
<path d="M380.203 35.2524H149.315C147.629 35.2524 146.013 35.9219 144.821 37.1137C143.629 38.3055 142.96 39.922 142.96 41.6074V170.254C142.96 171.94 143.629 173.556 144.821 174.748C146.013 175.94 147.629 176.609 149.315 176.609H380.203C381.889 176.609 383.505 175.94 384.697 174.748C385.889 173.556 386.558 171.94 386.558 170.254V41.6074C386.558 39.922 385.889 38.3055 384.697 37.1137C383.505 35.9219 381.889 35.2524 380.203 35.2524V35.2524Z" fill="#3F3D56"/>
<path d="M378.038 46.4835H151.48V174.286H378.038V46.4835Z" fill="white"/>
<path d="M264.565 42.998C265.849 42.998 266.889 41.9576 266.889 40.6743C266.889 39.391 265.849 38.3506 264.565 38.3506C263.282 38.3506 262.242 39.391 262.242 40.6743C262.242 41.9576 263.282 42.998 264.565 42.998Z" fill="white"/>
<path d="M313.246 174.286H151.48V46.4835L313.246 174.286Z" fill="#F2F2F2"/>
<path d="M392.919 171.962H370.809V170.369C370.809 170.285 370.775 170.205 370.716 170.145C370.657 170.086 370.577 170.053 370.493 170.053H362.912C362.871 170.053 362.829 170.061 362.791 170.077C362.753 170.093 362.718 170.116 362.689 170.145C362.659 170.175 362.636 170.21 362.62 170.248C362.604 170.286 362.596 170.327 362.596 170.369V171.962H357.858V170.369C357.858 170.327 357.85 170.286 357.834 170.248C357.818 170.21 357.795 170.175 357.766 170.145C357.736 170.116 357.702 170.093 357.663 170.077C357.625 170.061 357.584 170.053 357.542 170.053H349.962C349.92 170.053 349.879 170.061 349.841 170.077C349.802 170.093 349.768 170.116 349.738 170.145C349.709 170.175 349.686 170.21 349.67 170.248C349.654 170.286 349.646 170.327 349.646 170.369V170.369V171.962H344.908V170.369C344.908 170.327 344.9 170.286 344.884 170.248C344.868 170.21 344.845 170.175 344.815 170.145C344.786 170.116 344.751 170.093 344.713 170.077C344.674 170.061 344.633 170.053 344.592 170.053H337.011C336.97 170.053 336.929 170.061 336.89 170.077C336.852 170.093 336.817 170.116 336.788 170.145C336.758 170.175 336.735 170.21 336.719 170.248C336.703 170.286 336.695 170.327 336.695 170.369V170.369V171.962H331.957V170.369C331.957 170.327 331.949 170.286 331.933 170.248C331.917 170.21 331.894 170.175 331.865 170.145C331.835 170.116 331.801 170.093 331.762 170.077C331.724 170.061 331.683 170.053 331.641 170.053H324.061C324.019 170.053 323.978 170.061 323.94 170.077C323.901 170.093 323.867 170.116 323.837 170.145C323.808 170.175 323.785 170.21 323.769 170.248C323.753 170.286 323.745 170.327 323.745 170.369V171.962H319.007V170.369C319.007 170.327 318.999 170.286 318.983 170.248C318.967 170.21 318.944 170.175 318.914 170.145C318.885 170.116 318.85 170.093 318.812 170.077C318.773 170.061 318.732 170.053 318.691 170.053H311.11C311.069 170.053 311.028 170.061 310.989 170.077C310.951 170.093 310.916 170.116 310.887 170.145C310.857 170.175 310.834 170.21 310.818 170.248C310.802 170.286 310.794 170.327 310.794 170.369V170.369V171.962H306.056V170.369C306.056 170.327 306.048 170.286 306.032 170.248C306.016 170.21 305.993 170.175 305.964 170.145C305.934 170.116 305.9 170.093 305.861 170.077C305.823 170.061 305.782 170.053 305.74 170.053H298.16C298.118 170.053 298.077 170.061 298.039 170.077C298 170.093 297.966 170.116 297.936 170.145C297.907 170.175 297.884 170.21 297.868 170.248C297.852 170.286 297.844 170.327 297.844 170.369V170.369V171.962H293.106V170.369C293.106 170.327 293.098 170.286 293.082 170.248C293.066 170.21 293.043 170.175 293.013 170.145C292.984 170.116 292.949 170.093 292.911 170.077C292.872 170.061 292.831 170.053 292.79 170.053H233.407C233.366 170.053 233.325 170.061 233.286 170.077C233.248 170.093 233.213 170.116 233.184 170.145C233.154 170.175 233.131 170.21 233.115 170.248C233.099 170.286 233.091 170.327 233.091 170.369V170.369V171.962H228.353V170.369C228.353 170.327 228.345 170.286 228.329 170.248C228.313 170.21 228.29 170.175 228.261 170.145C228.231 170.116 228.197 170.093 228.158 170.077C228.12 170.061 228.079 170.053 228.037 170.053H220.457C220.415 170.053 220.374 170.061 220.336 170.077C220.297 170.093 220.263 170.116 220.233 170.145C220.204 170.175 220.181 170.21 220.165 170.248C220.149 170.286 220.141 170.327 220.141 170.369V170.369V171.962H215.403V170.369C215.403 170.327 215.395 170.286 215.379 170.248C215.363 170.21 215.34 170.175 215.31 170.145C215.281 170.116 215.246 170.093 215.208 170.077C215.17 170.061 215.128 170.053 215.087 170.053H207.506C207.465 170.053 207.424 170.061 207.385 170.077C207.347 170.093 207.312 170.116 207.283 170.145C207.253 170.175 207.23 170.21 207.214 170.248C207.198 170.286 207.19 170.327 207.19 170.369V170.369V171.962H202.452V170.369C202.452 170.327 202.444 170.286 202.428 170.248C202.412 170.21 202.389 170.175 202.36 170.145C202.33 170.116 202.296 170.093 202.257 170.077C202.219 170.061 202.178 170.053 202.136 170.053H194.556C194.514 170.053 194.473 170.061 194.435 170.077C194.396 170.093 194.362 170.116 194.332 170.145C194.303 170.175 194.28 170.21 194.264 170.248C194.248 170.286 194.24 170.327 194.24 170.369V170.369V171.962H189.502V170.369C189.502 170.327 189.494 170.286 189.478 170.248C189.462 170.21 189.439 170.175 189.409 170.145C189.38 170.116 189.345 170.093 189.307 170.077C189.269 170.061 189.227 170.053 189.186 170.053H181.605C181.564 170.053 181.523 170.061 181.484 170.077C181.446 170.093 181.411 170.116 181.382 170.145C181.352 170.175 181.329 170.21 181.313 170.248C181.297 170.286 181.289 170.327 181.289 170.369V170.369V171.962H176.551V170.369C176.551 170.327 176.543 170.286 176.527 170.248C176.511 170.21 176.488 170.175 176.459 170.145C176.429 170.116 176.395 170.093 176.356 170.077C176.318 170.061 176.277 170.053 176.235 170.053H168.655C168.571 170.053 168.491 170.086 168.431 170.145C168.372 170.205 168.339 170.285 168.339 170.369V171.962H163.601V170.369C163.601 170.327 163.593 170.286 163.577 170.248C163.561 170.21 163.538 170.175 163.508 170.145C163.479 170.116 163.444 170.093 163.406 170.077C163.368 170.061 163.326 170.053 163.285 170.053H155.704C155.62 170.053 155.54 170.086 155.481 170.145C155.422 170.205 155.388 170.285 155.388 170.369V171.962H140.858C139.863 171.962 138.877 172.158 137.957 172.539C137.038 172.92 136.202 173.478 135.498 174.182C134.794 174.886 134.236 175.722 133.855 176.642C133.474 177.561 133.278 178.547 133.278 179.543V182.97C133.278 184.981 134.076 186.909 135.498 188.331C136.92 189.753 138.848 190.551 140.858 190.551H392.919C394.93 190.551 396.858 189.753 398.28 188.331C399.701 186.909 400.5 184.981 400.5 182.97V179.543C400.5 178.547 400.304 177.561 399.923 176.642C399.542 175.722 398.984 174.886 398.28 174.182C397.576 173.478 396.74 172.92 395.82 172.539C394.901 172.158 393.915 171.962 392.919 171.962V171.962Z" fill="#3F3D56"/>
<path d="M269.117 157.528C269.041 157.707 268.956 157.883 268.862 158.054C268.368 158.966 267.669 159.752 266.821 160.349C265.817 161.056 264.638 161.473 263.413 161.556C262.188 161.638 260.964 161.383 259.874 160.817C258.785 160.252 257.871 159.398 257.234 158.348C256.596 157.299 256.259 156.095 256.259 154.867V153.785H257.177C260.745 156.091 264.871 157.384 269.117 157.528Z" fill="#3F3D56"/>
<path d="M282.219 154.102V154.867C282.22 156.357 281.724 157.804 280.81 158.98C279.896 160.157 278.616 160.995 277.173 161.363C275.729 161.731 274.204 161.608 272.839 161.012C271.473 160.417 270.345 159.383 269.632 158.075C269.534 157.9 269.445 157.72 269.367 157.536C269.563 157.541 269.756 157.544 269.952 157.544C274.28 157.549 278.525 156.358 282.219 154.102V154.102Z" fill="#3F3D56"/>
<path d="M291.251 73.1851C291.05 73.1555 290.846 73.1367 290.641 73.1233C292.96 78.4669 293.121 84.5006 291.09 89.9601C291.294 89.936 291.495 89.9038 291.697 89.8662C293.663 89.4852 295.43 88.4189 296.684 86.8569C297.938 85.295 298.596 83.3388 298.543 81.3367C298.489 79.3346 297.727 77.4164 296.392 75.9237C295.056 74.4309 293.235 73.4605 291.251 73.1851V73.1851Z" fill="#3F3D56"/>
<path d="M249.262 73.1233C249.058 73.1367 248.854 73.1555 248.653 73.1851C246.669 73.4605 244.847 74.431 243.512 75.9237C242.177 77.4165 241.415 79.3346 241.361 81.3367C241.308 83.3388 241.966 85.295 243.22 86.8569C244.474 88.4188 246.241 89.4852 248.207 89.8662C248.408 89.9038 248.61 89.936 248.814 89.9601C246.783 84.5006 246.944 78.467 249.262 73.1233V73.1233Z" fill="#3F3D56"/>
<path d="M291.251 73.1851C289.039 67.9017 284.942 63.6292 279.756 61.1974C274.571 58.7657 268.666 58.3485 263.19 60.0267C257.714 61.705 253.057 65.359 250.124 70.2788C247.191 75.1986 246.191 81.0329 247.32 86.6483C248.448 92.2638 251.623 97.2593 256.229 100.665C260.834 104.07 266.541 105.642 272.241 105.074C277.94 104.507 283.225 101.842 287.069 97.5958C290.914 93.3498 293.042 87.8265 293.042 82.0988C293.041 79.0383 292.432 76.0085 291.251 73.1851ZM291.09 89.9601C289.126 95.2394 285.257 99.5924 280.245 102.162C275.232 104.732 269.44 105.333 264.007 103.846C258.574 102.359 253.894 98.8927 250.888 94.1287C247.883 89.3647 246.77 83.6484 247.767 78.1047C248.765 72.561 251.802 67.5915 256.28 64.1744C260.758 60.7573 266.352 59.1401 271.963 59.641C277.573 60.1419 282.793 62.7247 286.595 66.881C290.397 71.0373 292.505 76.4661 292.505 82.0988C292.504 84.7825 292.025 87.4446 291.09 89.9601V89.9601Z" fill="#3F3D56"/>
<path d="M281.765 76.8633H258.138C256.892 76.8633 255.697 77.3584 254.816 78.2395C253.935 79.1207 253.44 80.3157 253.44 81.5619C253.44 82.808 253.935 84.0031 254.816 84.8842C255.697 85.7654 256.892 86.2604 258.138 86.2604H281.765C283.011 86.2604 284.207 85.7654 285.088 84.8842C285.969 84.0031 286.464 82.808 286.464 81.5619C286.464 80.3157 285.969 79.1207 285.088 78.2395C284.207 77.3584 283.011 76.8633 281.765 76.8633V76.8633Z" fill="#3F3D56"/>
<path d="M291.09 122.222C291.004 122.063 290.915 121.907 290.824 121.754C290.821 121.749 290.819 121.746 290.816 121.741C288.704 118.125 285.687 115.12 282.062 113.021C278.438 110.923 274.33 109.803 270.142 109.771C265.954 109.74 261.83 110.798 258.174 112.841C254.518 114.885 251.457 117.844 249.29 121.428C247.123 125.012 245.925 129.098 245.814 133.285C245.703 137.471 246.683 141.615 248.657 145.309C250.631 149.002 253.531 152.12 257.073 154.354C260.616 156.588 264.678 157.863 268.862 158.054C269.117 158.067 269.375 158.075 269.632 158.075C269.74 158.081 269.844 158.081 269.952 158.081C274.268 158.087 278.506 156.928 282.219 154.727C286.252 152.341 289.51 148.84 291.6 144.646C291.603 144.64 291.605 144.638 291.608 144.632C291.689 144.471 291.767 144.307 291.844 144.141C293.459 140.687 294.233 136.901 294.102 133.091C293.97 129.28 292.938 125.556 291.09 122.222H291.09ZM291.321 143.993C291.243 144.16 291.162 144.323 291.079 144.484C289.082 148.455 286.013 151.786 282.219 154.102C278.525 156.358 274.28 157.549 269.952 157.544C269.756 157.544 269.563 157.541 269.367 157.536C269.283 157.536 269.2 157.533 269.117 157.528C265.018 157.384 261.026 156.176 257.535 154.022C254.045 151.868 251.175 148.842 249.208 145.243C247.242 141.643 246.246 137.593 246.32 133.492C246.393 129.391 247.534 125.38 249.628 121.853C251.722 118.326 254.699 115.405 258.265 113.378C261.83 111.35 265.863 110.286 269.965 110.29C274.066 110.294 278.097 111.366 281.659 113.4C285.22 115.434 288.191 118.36 290.279 121.891C290.282 121.897 290.285 121.899 290.287 121.905C290.381 122.058 290.472 122.213 290.558 122.369C292.401 125.651 293.432 129.327 293.564 133.089C293.697 136.85 292.928 140.589 291.321 143.993Z" fill="#3F3D56"/>
<path d="M288.523 122.936C288.053 122.601 287.49 122.42 286.912 122.418H276.353C275.617 122.418 274.912 122.71 274.391 123.23C273.871 123.75 273.579 124.455 273.579 125.191C273.579 125.927 273.871 126.632 274.391 127.152C274.912 127.672 275.617 127.965 276.353 127.965H286.912C287.101 127.965 287.289 127.946 287.473 127.908C287.657 127.868 287.837 127.812 288.01 127.739C288.462 127.544 288.853 127.233 289.145 126.838C289.437 126.442 289.618 125.976 289.67 125.487C289.722 124.998 289.643 124.505 289.442 124.056C289.24 123.608 288.923 123.221 288.523 122.936L288.523 122.936Z" fill="#3F3D56"/>
<path d="M277.056 126.599C277.833 126.599 278.464 125.969 278.464 125.191C278.464 124.413 277.833 123.783 277.056 123.783C276.278 123.783 275.648 124.413 275.648 125.191C275.648 125.969 276.278 126.599 277.056 126.599Z" fill="#F1F1F1"/>
<path d="M281.632 126.599C282.41 126.599 283.04 125.969 283.04 125.191C283.04 124.413 282.41 123.783 281.632 123.783C280.854 123.783 280.224 124.413 280.224 125.191C280.224 125.969 280.854 126.599 281.632 126.599Z" fill="#F1F1F1"/>
<path d="M286.208 126.599C286.986 126.599 287.616 125.969 287.616 125.191C287.616 124.413 286.986 123.783 286.208 123.783C285.43 123.783 284.8 124.413 284.8 125.191C284.8 125.969 285.43 126.599 286.208 126.599Z" fill="#00B0FF"/>
<path d="M339.241 78.7835C335.579 80.9795 329.055 83.7312 322.388 80.9034L318.079 79.0753L326.715 69.3944C319.823 61.7959 316.011 51.9019 316.021 41.6438C316.032 31.3856 319.864 21.4995 326.771 13.9151C333.678 6.3307 343.164 1.59238 353.376 0.625021C363.589 -0.342342 373.795 2.53068 382.003 8.6833C390.212 14.8359 395.833 23.8265 397.769 33.9003C399.705 43.974 397.818 54.4079 392.476 63.1652C387.134 71.9225 378.72 78.3748 368.877 81.2627C359.033 84.1505 348.467 83.2666 339.241 78.7835V78.7835Z" fill="white"/>
<path d="M339.263 79.3053C335.744 81.371 329.042 84.2259 322.208 81.327L317.307 79.2482L326.097 69.3956C320.628 63.2441 317.102 55.612 315.962 47.4604C314.823 39.3088 316.12 31.0023 319.692 23.5869C323.264 16.1715 328.951 9.9789 336.035 5.78893C343.12 1.59897 351.286 -0.400971 359.505 0.0409841C367.724 0.482939 375.628 3.34702 382.223 8.27254C388.817 13.1981 393.807 19.9648 396.563 27.7204C399.319 35.4761 399.719 43.8739 397.712 51.8563C395.705 59.8387 391.38 67.0486 385.283 72.5782V72.5782C379.16 78.1651 371.505 81.7914 363.304 82.9903C355.102 84.1892 346.729 82.9058 339.263 79.3053H339.263ZM387.476 14.2868C383.878 10.3179 379.534 7.09674 374.691 4.80712C369.848 2.5175 364.602 1.20433 359.252 0.942583C353.901 0.68084 348.552 1.47566 343.509 3.28166C338.465 5.08765 333.827 7.86944 329.86 11.4681C325.892 15.0668 322.672 19.4119 320.383 24.2553C318.095 29.0987 316.783 34.3454 316.523 39.6958C316.262 45.0462 317.058 50.3956 318.866 55.4382C320.673 60.4809 323.456 65.1182 327.055 69.0852L327.334 69.392L318.85 78.9025L322.568 80.4797C329.167 83.2793 335.698 80.3711 339.004 78.3887L339.218 78.2604L339.442 78.3694C347.963 82.5097 357.659 83.5544 366.867 81.3243C376.074 79.0941 384.218 73.7282 389.9 66.1476C395.582 58.5671 398.448 49.245 398.006 39.7816C397.563 30.3183 393.84 21.3042 387.476 14.2868L387.476 14.2868Z" fill="#00B0FF"/>
<path opacity="0.1" d="M392.085 41.4289C392.084 31.9435 388.532 22.802 382.128 15.8047C375.724 8.80744 366.933 4.46149 357.484 3.62273C358.59 3.52588 359.708 3.47348 360.839 3.47348C370.901 3.47955 380.55 7.48109 387.663 14.5985C394.776 21.7158 398.771 31.3665 398.771 41.4289C398.771 51.4913 394.776 61.142 387.663 68.2593C380.55 75.3767 370.901 79.3783 360.839 79.3843C359.71 79.3843 358.593 79.3312 357.49 79.2346C366.937 78.3946 375.727 74.0482 382.13 67.0511C388.533 60.0541 392.084 50.9134 392.085 41.4289Z" fill="black"/>
<path d="M362.622 33.8601H335.5V36.3787H362.622V33.8601Z" fill="#00B0FF"/>
<path d="M382.771 42.5728H335.5V45.0914H382.771V42.5728Z" fill="#00B0FF"/>
<path d="M382.724 51.2854H335.5V53.804H382.724V51.2854Z" fill="#00B0FF"/>
<path d="M59.9518 115.795C59.9518 115.795 66.058 87.2158 63.7206 83.6599C63.7206 83.6599 63.6355 80.3545 63.7761 76.141C63.7761 75.981 63.7761 75.8209 63.7761 75.6574C63.3648 75.9154 62.936 76.1478 62.4926 76.3533C60.339 77.3942 57.8665 77.6945 55.5025 77.2022L57.3517 75.2642C57.7956 74.8015 58.2579 74.3005 58.354 73.6881C58.4502 73.0757 58.1839 72.5295 57.9545 71.9832C56.1978 67.808 56.1053 62.5577 59.4894 59.3706C62.3484 56.6915 63.0437 53.233 66.1468 50.787C68.414 48.9952 69.6604 46.3682 70.8365 43.8283C71.8314 41.6816 72.8337 39.5174 73.4033 37.2419C73.8471 35.464 74.0246 33.6234 74.6349 31.8872C75.2451 30.151 76.388 28.4635 78.1744 27.6876C78.8105 27.4127 79.5169 27.2562 80.0976 26.8908C80.8595 26.4072 81.3181 25.6209 81.8692 24.932C84.669 21.4526 94.0447 23.5019 98.4829 24.9146C99.6895 25.2703 100.807 25.8527 101.767 26.6264L101.727 26.5638C101.693 26.5116 101.653 26.4594 101.616 26.4072C102.101 26.7767 102.521 27.2173 102.858 27.712C103.506 28.6757 103.775 29.7996 104.315 30.8434C104.966 32.0785 108.587 35.5266 107.03 36.9148C106.921 37.0081 106.796 37.0834 106.66 37.1375C106.076 37.3664 105.432 37.4269 104.811 37.3115L104.878 37.4611C105.409 38.6859 105.682 39.9966 105.68 41.3197C105.68 47.0363 100.669 51.6708 94.4811 51.6708C93.3179 51.6718 92.1614 51.504 91.0526 51.1732C91.0267 51.3054 91.0045 51.4377 90.9786 51.5699C90.9786 51.6221 90.9601 51.6742 90.9527 51.7264L91.1488 51.9839C91.1586 51.968 91.1697 51.9529 91.1821 51.9387L96.9887 59.5724C97.8764 60.1604 102.988 63.6397 103.276 66.2493C103.579 69.1058 103.883 72.4495 103.883 72.4495L103.923 73.1662C104.177 73.3657 104.474 73.511 104.793 73.5921C105.113 73.6732 105.447 73.6881 105.773 73.6359C107.585 73.3576 107.585 79.8987 107.585 79.8987C107.585 79.8987 108.791 80.9425 109.619 80.0379C110.448 79.1333 112.637 82.1986 112.637 82.1986L126.359 82.7553L126.673 82.7727L127.413 80.619C127.492 80.3918 127.664 80.2033 127.89 80.0946C128.117 79.9858 128.38 79.9654 128.622 80.0379C128.679 80.0557 128.735 80.0778 128.789 80.104L128.84 80.1319L128.937 80.1945L128.985 80.2362C129.011 80.2589 129.036 80.2833 129.059 80.3093L129.103 80.358L129.125 80.3789C129.211 80.49 129.267 80.6183 129.29 80.7537C129.313 80.889 129.302 81.0276 129.258 81.1583L128.622 83.0058C131.27 83.5068 133.978 84.9195 131.77 88.8094L142.961 86.8644L139.34 89.7244L120.648 93.3534C120.896 93.7709 120.733 94.3763 119.96 95.2288C116.632 98.9064 110.566 99.905 108.125 100.162C107.48 101.519 106.675 102.803 105.725 103.99L105.935 107.654C105.935 107.654 112.116 135.579 113.247 136.995C112.676 136.386 112.153 135.738 111.683 135.057C113.477 140.794 115.984 148.647 116.643 149.823C117.7 151.702 118.681 159.304 117.475 159.792C117.105 159.941 116.047 159.868 114.538 159.76V160.39L114.605 184.255C114.605 184.255 114.301 198.893 115.134 200.288C115.966 201.683 116.188 204.609 116.188 204.609C116.188 204.609 119.516 210.381 122.153 212.702C122.171 212.72 122.191 212.736 122.213 212.751L122.294 212.208C122.294 212.208 125.464 215.973 132.476 215.76C132.476 215.76 136.696 218.342 130.438 218.481C124.18 218.62 116.188 218.273 116.188 218.273C116.188 218.273 110.607 210.27 105.932 211.314V217.378H104.5V211.216C103.837 210.805 103.269 210.272 102.83 209.648C102.392 209.024 102.094 208.323 101.952 207.587C101.83 206.829 101.919 206.054 102.213 205.338C102.506 204.622 102.992 203.991 103.624 203.506C103.908 203.265 104.135 202.971 104.293 202.643C104.45 202.315 104.533 201.959 104.537 201.599L104.589 201.641C104.589 201.519 104.622 201.394 104.637 201.265C105.048 198.134 105.562 191.673 103.746 186.892C101.257 180.337 100.502 171.207 102.315 165.773C102.899 164.035 103.38 162.269 103.753 160.481C103.798 160.254 103.838 160.039 103.875 159.837C102.637 159.995 101.41 160.227 100.203 160.533C96.0049 161.622 86.8215 161.824 78.9806 161.764C78.9621 161.966 78.94 162.178 78.9141 162.391C78.7743 163.866 78.4819 165.325 78.0412 166.747C77.0574 169.53 76.6062 181.802 76.6062 181.802C76.6062 181.802 75.3376 191.892 76.0292 195.998C76.3991 198.28 76.7689 200.573 76.9797 202.876V202.922C76.9797 202.922 79.0583 208.489 80.5784 211.512C80.6154 211.589 80.6561 211.665 80.693 211.738C81.0983 211.773 81.4972 211.856 81.8803 211.985C81.8803 211.985 83.9182 215.813 85.9486 216.446C87.9791 217.079 87.306 219.163 82.7087 218.398C78.1115 217.632 71.1694 217.006 71.1694 217.006L70.8698 213.102L69.457 211.439L69.8268 215.332L68.3215 215.054L68.5212 210.319L66.2097 207.598C66.2097 207.598 63.4173 205.26 67.567 200.66V200.761C67.6114 200.695 67.6521 200.625 67.7002 200.559V200.538C68.3881 199.536 68.9355 197.668 67.9332 194.352C66.1209 188.361 65.0668 182.922 65.0668 182.922C65.0668 182.922 61.0206 168.354 65.8842 161.462H65.6697C66.1681 160.492 66.5204 159.461 66.7164 158.4C66.741 158.275 66.7632 158.146 66.783 158.014C63.1843 157.819 59.6522 157.206 56.771 155.884C56.7821 155.87 58.5167 121.3 59.9518 115.795ZM105.64 91.6833V91.7529L106.379 91.7877L105.64 91.6833ZM108.177 92.0138C108.298 92.0392 108.412 92.0904 108.51 92.1635C108.828 92.5868 109.027 93.0785 109.09 93.5935L110.244 93.3499C110.244 93.3499 111.054 93.1864 112.219 93.002L112.77 92.4801C111.254 92.3618 109.678 92.1878 108.177 92.0138V92.0138Z" fill="url(#paint0_linear)"/>
<path d="M69.9969 210.367L70.4371 215.298L68.9612 215.02L69.1831 209.671L69.9969 210.367Z" fill="#1D2366"/>
<path d="M103.665 186.958C105.444 191.725 104.941 198.158 104.541 201.283C104.393 202.438 104.256 203.141 104.256 203.141C104.256 203.141 106.916 208.84 107.138 209.056C107.359 209.271 114.964 213.638 114.964 213.638L120.278 216.557C120.278 216.557 125.671 214.334 123.085 213.568C122.557 213.369 122.082 213.064 121.691 212.674C119.102 210.36 115.851 204.609 115.851 204.609C115.851 204.609 115.629 201.69 114.816 200.302C114.002 198.913 114.298 184.324 114.298 184.324L114.235 160.543V157.443L104.12 157.513C104.056 158.565 103.91 159.612 103.683 160.644C103.32 162.426 102.85 164.187 102.274 165.919C100.491 171.343 101.231 180.428 103.665 186.958Z" fill="#FFB0B1"/>
<path opacity="0.1" d="M104.256 203.141C104.256 203.141 106.915 208.84 107.137 209.056C107.359 209.271 114.963 213.638 114.963 213.638L120.278 216.557C120.278 216.557 125.671 214.334 123.085 213.568C122.557 213.369 122.081 213.064 121.691 212.674L121.462 214.195L119.69 214.125L104.526 201.29C104.393 202.438 104.256 203.141 104.256 203.141Z" fill="black"/>
<path d="M104.441 201.613L119.69 214.536L121.462 214.605L121.832 212.17C121.832 212.17 124.931 215.92 131.818 215.712C131.818 215.712 135.953 218.283 129.824 218.422C123.696 218.561 115.87 218.213 115.87 218.213C115.87 218.213 110.403 210.211 105.828 211.255V217.298H104.423V211.199C103.769 210.785 103.212 210.251 102.783 209.629C102.355 209.007 102.065 208.311 101.93 207.58C101.808 206.828 101.894 206.059 102.18 205.348C102.466 204.636 102.941 204.005 103.561 203.516C103.838 203.272 104.059 202.978 104.21 202.65C104.361 202.323 104.44 201.97 104.441 201.613V201.613Z" fill="#1D2366"/>
<path d="M68.5916 194.39C69.5754 197.696 69.0391 199.557 68.366 200.556V200.577C67.5026 201.81 66.9022 203.189 66.5981 204.637L66.5389 204.95L73.4774 214.466L77.2425 215.858C77.2425 215.858 83.297 213.913 82.1911 213.356C81.9137 213.221 81.481 212.497 80.9854 211.498C79.506 208.489 77.4644 202.936 77.4644 202.936V202.89C77.2499 200.597 76.9096 198.311 76.5324 196.036C75.8555 191.941 77.0982 181.889 77.0982 181.889C77.0982 181.889 77.5421 169.666 78.5037 166.886C78.9378 165.473 79.2264 164.023 79.3654 162.558C79.5652 160.818 79.6095 159.385 79.6095 159.385C79.6095 159.385 75.6225 154.166 68.3142 159.802C67.7298 160.252 67.2156 160.776 66.7867 161.361C61.7382 168.118 65.8029 183.002 65.8029 183.002C65.8029 183.002 66.82 188.416 68.5916 194.39Z" fill="#FFB0B1"/>
<path opacity="0.1" d="M66.5278 204.95L73.4662 214.466L77.2313 215.858C77.2313 215.858 83.2857 213.913 82.1799 213.356C81.9025 213.22 81.4698 212.497 80.9742 211.498C78.4111 211.477 77.0833 213.774 77.0833 213.774L73.836 213.287C73.836 213.287 69.5532 205.368 68.5916 204.884C67.63 204.4 68.4436 201.269 68.4436 201.269V200.472C68.4177 200.5 68.3955 200.531 68.3659 200.559V200.58C67.5026 201.813 66.9022 203.192 66.5981 204.641L66.5278 204.95Z" fill="black"/>
<path d="M76.8612 213.979C76.8612 213.979 78.7105 210.785 82.2537 211.964C82.2537 211.964 84.2472 215.792 86.2408 216.411C88.2343 217.03 87.5686 219.118 83.0637 218.356C78.5589 217.594 71.7683 216.964 71.7683 216.964L71.4724 213.071L66.8935 207.584C66.8935 207.584 64.164 205.256 68.225 200.674V201.471C68.225 201.471 67.4113 204.602 68.373 205.086C69.3346 205.569 73.6028 213.492 73.6028 213.492L76.8612 213.979Z" fill="#1D2366"/>
<path opacity="0.1" d="M104.108 157.506C104.044 158.558 103.899 159.605 103.672 160.637C107.836 160.063 111.701 160.348 114.235 160.536V157.436L104.108 157.506Z" fill="black"/>
<path opacity="0.1" d="M66.376 162.227C66.376 162.227 72.2936 162.499 79.3504 162.554C79.5501 160.815 79.5945 159.381 79.5945 159.381C79.5945 159.381 75.6075 154.162 68.2993 159.799C67.7148 160.248 67.2006 160.773 66.7718 161.357C66.6571 161.654 66.525 161.944 66.376 162.227V162.227Z" fill="black"/>
<path d="M66.376 161.601C66.376 161.601 92.2953 162.78 100.195 160.696C108.095 158.612 115.925 160.418 117.105 159.934C118.285 159.451 117.327 151.876 116.291 150.001C115.256 148.125 109.575 129.159 109.575 129.159L104.108 102.348L98.3497 100.855L97.9429 100.747L87.9088 98.1445L80.5562 96.2343C80.5562 96.2343 65.9359 149.931 67.1897 153.891C67.6451 155.407 67.7185 157.002 67.4042 158.55C67.2127 159.606 66.8667 160.633 66.376 161.601V161.601Z" fill="#1D2366"/>
<path d="M123.163 84.0113C123.163 84.0113 128.341 89.2304 124.421 92.1391C120.5 95.0479 117.922 92.4175 117.922 92.4175L123.163 84.0113Z" fill="#C7DAF5"/>
<path opacity="0.1" d="M123.163 84.0113C123.163 84.0113 128.341 89.2304 124.421 92.1391C120.5 95.0479 117.922 92.4175 117.922 92.4175L123.163 84.0113Z" fill="black"/>
<path d="M81.329 49.698C81.329 49.698 81.9356 50.2407 82.8491 51.041C84.151 52.1857 86.0779 53.8593 87.7866 55.2615C90.1537 57.1994 92.1065 58.6225 91.4075 57.4082C90.7085 56.1939 90.8416 54.0785 91.1893 52.0987C91.2152 51.9665 91.2374 51.8343 91.2633 51.7056C91.5512 50.2516 91.9328 48.8154 92.4061 47.4051C92.4061 47.4051 88.5818 42.7567 86.4663 40.9231C85.6785 40.2272 85.1274 39.9419 85.0941 40.4255C85.0571 41.0761 84.5393 42.5131 83.8958 44.0371C83.8773 44.0858 83.8588 44.131 83.8366 44.1797C83.4076 45.2235 82.9231 46.2952 82.4977 47.2207C81.8468 48.6403 81.329 49.698 81.329 49.698Z" fill="#FFB0B1"/>
<path opacity="0.1" d="M83.8366 44.1797C84.196 45.9982 85.0679 47.6925 86.3614 49.0855C87.6548 50.4785 89.3222 51.5192 91.1893 52.0988C91.4834 50.5105 91.8899 48.9424 92.4061 47.4051C92.4061 47.4051 85.2051 38.6545 85.0941 40.4255C85.0682 41.097 84.506 42.5862 83.8366 44.1797Z" fill="black"/>
<path opacity="0.1" d="M91.9069 54.4368L90.9749 53.2017C90.9749 53.2017 90.3572 56.7436 88.0863 55.1814C85.8154 53.6192 85.7044 66.9381 85.7044 66.9381L88.1418 101.22L105.754 100.229L105.255 83.6634L103.261 75.313L98.3313 63.1735L95.3983 59.1618L91.9069 54.4368Z" fill="black"/>
<path d="M85.7045 67.1504L87.9236 98.148L88.1566 101.433L97.9762 100.879L98.346 100.858L105.743 100.441L105.244 83.8722L103.25 75.5218L98.3201 63.3823L95.3872 59.3706L91.8958 54.6282L90.9638 53.3965C90.9638 53.3965 90.3462 56.9385 88.0753 55.3763L88.0272 55.345C85.8081 54.0228 85.7045 67.1504 85.7045 67.1504Z" fill="#1D2366"/>
<path d="M103.002 72.62C103.002 72.62 103.886 74.3597 105.662 74.0778C107.437 73.796 107.433 80.3407 107.433 80.3407C107.433 80.3407 108.613 81.3845 109.427 80.4798C110.24 79.5752 112.386 82.6335 112.386 82.6335L125.826 83.1902C125.826 83.1902 119.845 85.7615 121.018 93.5413C121.018 93.5413 100.713 92.3583 100.047 90.5525C99.3816 88.7468 103.002 72.62 103.002 72.62Z" fill="white"/>
<path opacity="0.03" d="M103.002 72.62C103.002 72.62 103.886 74.3597 105.662 74.0778C107.437 73.796 107.433 80.3407 107.433 80.3407C107.433 80.3407 108.613 81.3845 109.427 80.4798C110.24 79.5752 112.386 82.6335 112.386 82.6335L125.826 83.1902C125.826 83.1902 119.845 85.7615 121.018 93.5413C121.018 93.5413 100.713 92.3583 100.047 90.5525C99.3816 88.7468 103.002 72.62 103.002 72.62Z" fill="black"/>
<path d="M142.063 87.2785L138.52 90.1246L109.353 95.8899L112.97 92.4175L142.063 87.2785Z" fill="white"/>
<path d="M91.8517 55.5329C92.3362 56.2287 93.7231 59.7916 94.8807 62.9021C95.846 65.4942 96.6523 67.7732 96.6523 67.7732C96.6523 67.7732 98.5348 79.3038 99.4964 81.3879C100.458 83.4721 99.9366 91.5998 99.9366 91.5998L103.52 111.672C103.52 111.672 105.144 122.023 107.652 128.206C110.126 134.291 112.881 137.145 112.966 137.235C111.857 135.822 105.81 108.008 105.81 108.008L103.813 72.9296C103.813 72.9296 103.52 69.5964 103.225 66.7468C102.929 63.8972 96.9371 60.0073 96.9371 60.0073L91.16 52.2797C90.5794 53.0103 90.9677 54.2838 91.8517 55.5329Z" fill="white"/>
<path d="M106.915 100.615C106.915 100.615 115.422 100.267 119.542 95.6115C123.662 90.9561 110.018 93.7535 110.018 93.7535L106.472 94.519L106.915 100.615Z" fill="#FFB0B1"/>
<path opacity="0.1" d="M67.1897 153.894C67.645 155.41 67.7184 157.005 67.4042 158.553C76.6838 159.172 86.6107 156.813 86.6107 156.813C88.46 158.414 93.331 160.773 93.331 160.773L95.9865 129.807C97.6841 125.631 98.3499 103.757 98.3499 103.757C98.3499 103.757 98.1982 102.612 97.98 100.897C97.98 100.855 97.98 100.81 97.9615 100.768C97.2995 95.9769 95.9865 86.9827 95.343 85.7684C94.4553 84.0983 98.0725 79.6552 98.0725 79.6552L96.4266 66.4511L96.2269 64.8575C92.7577 63.3997 90.0984 58.7443 90.0984 58.7443L88.0568 55.3798C85.8377 54.0402 85.7231 67.1678 85.7231 67.1678L87.9422 98.1654L80.5895 96.2552C80.5895 96.2552 65.9359 149.935 67.1897 153.894Z" fill="black"/>
<path d="M57.6659 156.034C67.7813 160.759 86.1666 156.382 86.1666 156.382C88.0158 157.982 92.8868 160.341 92.8868 160.341L95.546 129.375C97.2399 125.2 97.9056 103.325 97.9056 103.325C97.9056 103.325 95.7679 87.0036 94.8803 85.337C94.6214 84.8499 94.7471 84.1262 95.0541 83.3468C96.5633 79.6372 97.1184 75.6444 96.674 71.6945L95.9639 66.0196L95.7679 64.4296C92.295 62.9682 89.6358 58.3129 89.6358 58.3129L87.7865 55.265L84.3839 49.6493L82.7713 46.9911L82.4976 47.2242L80.408 49.0056C80.408 49.0056 79.5203 49.7015 78.1889 50.7453C75.293 53.0417 70.2889 57.0847 67.7073 59.5585C65.4364 61.7365 64.7189 70.2088 64.5118 76.5864C64.375 80.786 64.4563 84.0775 64.4563 84.0775C66.7457 87.6229 60.7578 116.088 60.7578 116.088C59.3635 121.588 57.6659 156.034 57.6659 156.034Z" fill="white"/>
<path opacity="0.03" d="M77.0833 58.2433C77.0833 58.2433 84.0255 70.675 83.2192 75.3999C82.4129 80.1249 80.1198 85.4727 81.2257 86.7218C81.6056 87.195 82.0968 87.5791 82.6608 87.8441C83.2248 88.1091 83.8463 88.2477 84.4767 88.2492C85.5863 88.3188 88.5451 90.2637 88.5451 90.4725C88.5451 90.6813 91.2783 90.6813 93.723 91.6555C96.1677 92.6297 99.7775 93.1829 99.7775 93.1829C99.7775 93.1829 106.805 92.9741 107.459 93.6004C108.114 94.2267 108.787 97.974 107.385 100.963C105.984 103.952 104.427 106.182 103.25 106.589C102.074 106.996 94.6106 104.644 88.5562 104.087C82.5017 103.531 75.9294 99.0178 75.9294 99.0178C75.9294 99.0178 68.6914 96.5822 67.4228 92.487C66.1542 88.3918 68.9725 65.8839 68.9725 65.8839C68.9725 65.8839 71.1028 55.3937 77.0833 58.2433Z" fill="black"/>
<path opacity="0.03" d="M77.971 57.1994C77.971 57.1994 84.9131 69.6347 84.0994 74.3561C83.2858 79.0776 81.0001 84.4289 82.1096 85.6814C82.4882 86.1552 82.9786 86.5397 83.5421 86.8048C84.1056 87.0699 84.7269 87.2082 85.3569 87.2089C86.4665 87.2784 89.4253 89.2234 89.4253 89.4322C89.4253 89.6409 92.1585 89.6409 94.6032 90.6117C97.0479 91.5824 100.658 92.1391 100.658 92.1391C100.658 92.1391 107.685 91.9303 108.336 92.5566C108.987 93.1829 109.667 96.9337 108.262 99.9189C106.856 102.904 105.303 105.138 104.127 105.545C102.951 105.952 95.4871 103.6 89.4327 103.047C83.3782 102.494 76.806 97.974 76.806 97.974C76.806 97.974 69.5717 95.5384 68.3179 91.4467C67.0641 87.355 69.8676 64.8401 69.8676 64.8401C69.8676 64.8401 71.9905 54.3533 77.971 57.1994Z" fill="black"/>
<path d="M77.3016 57.617C77.3016 57.617 84.2437 70.0522 83.43 74.7737C82.6164 79.4952 80.3307 84.8464 81.4365 86.0955C81.8151 86.5704 82.3059 86.9559 82.8701 87.2216C83.4344 87.4873 84.0566 87.6259 84.6875 87.6264C85.7971 87.696 88.7559 89.641 88.7559 89.8462C88.7559 90.0515 91.4854 90.055 93.9339 91.0292C96.3823 92.0034 99.9884 92.5567 99.9884 92.5567C99.9884 92.5567 107.016 92.3479 107.67 92.9742C108.325 93.6005 108.998 97.3512 107.596 100.336C106.195 103.322 104.637 105.556 103.461 105.963C102.285 106.37 94.8215 104.018 88.767 103.461C82.7125 102.904 76.1402 98.3915 76.1402 98.3915C76.1402 98.3915 68.9022 95.956 67.6336 91.8608C66.365 87.7656 69.1648 65.2577 69.1648 65.2577C69.1648 65.2577 71.3247 54.7848 77.3016 57.617Z" fill="white"/>
<path opacity="0.1" d="M77.4531 90.9701C77.4531 90.9701 83.0007 89.9263 81.0702 91.6659C79.1396 93.4056 79.1507 94.9296 76.7874 94.86C74.4241 94.7904 77.4531 90.9701 77.4531 90.9701Z" fill="black"/>
<path opacity="0.1" d="M68.0772 128.401C68.0772 128.401 70.5847 129.998 65.7879 133.679C60.9912 137.36 68.0772 128.401 68.0772 128.401Z" fill="black"/>
<path opacity="0.1" d="M72.8633 141.529C72.8633 141.737 73.7509 149.183 70.4297 151.045C67.1085 152.906 72.8633 141.529 72.8633 141.529Z" fill="black"/>
<path d="M125.597 83.1728C128.275 83.2598 134.059 84.0287 131.059 89.293C128.408 93.9518 123.951 90.8378 121.443 88.4753C122.055 86.2727 123.542 84.3748 125.597 83.1728V83.1728Z" fill="#FFB0B1"/>
<path d="M121.41 88.4532L121.287 88.3258L121.41 88.4532Z" fill="#FFB0B1"/>
<path opacity="0.1" d="M78.1891 50.9575C81.0296 52.7841 83.4114 54.3255 83.8774 54.6456C85.1497 55.5328 87.576 60.7414 89.1404 63.3996C90.3868 65.5394 94.4367 66.0892 95.9642 66.2249L95.7682 64.6348C92.2953 63.1735 89.636 58.5181 89.636 58.5181L82.7716 47.1963L80.4082 49.2178C80.4082 49.2178 79.5206 49.9137 78.1891 50.9575Z" fill="black"/>
<path d="M78.1891 50.7488C81.0296 52.5754 83.4114 54.1168 83.8774 54.4403C85.1497 55.3241 87.576 60.5327 89.1404 63.1909C90.3868 65.3307 94.4367 65.8804 95.9642 66.0161L95.7682 64.4261C92.2953 62.9647 89.636 58.3094 89.636 58.3094L82.7716 46.9876L80.4082 49.0021C80.4082 49.0021 79.5206 49.691 78.1891 50.7488Z" fill="#DCE7FF"/>
<path d="M83.6555 41.8834C83.654 43.972 84.3273 46.0118 85.5862 47.7322C87.0729 49.7663 89.2856 51.2317 91.8226 51.8624C94.3596 52.4932 97.0529 52.2474 99.4138 51.1698C101.775 50.0923 103.647 48.2542 104.69 45.9892C105.734 43.7242 105.88 41.1823 105.102 38.8248C104.324 36.4672 102.673 34.4502 100.449 33.1397C98.2251 31.8292 95.5756 31.312 92.9811 31.682C90.3866 32.0521 88.0191 33.2847 86.3081 35.1564C84.5971 37.0281 83.656 39.4148 83.6555 41.8834V41.8834Z" fill="#FFB0B1"/>
<path opacity="0.1" d="M64.512 76.5899C66.014 75.7208 67.2372 74.4846 68.0515 73.0132C68.6691 71.865 69.0797 70.5393 70.1338 69.7252C71.0843 68.9945 72.3529 68.8171 73.5364 68.49C77.4272 67.4079 80.6893 64.0677 80.8114 60.2544C80.8705 58.459 80.2751 56.6671 80.5451 54.8892C80.6986 53.8829 81.1239 52.9306 81.7804 52.1231C82.1063 51.7369 82.4637 51.3751 82.8492 51.041C83.367 50.5817 83.9107 50.1364 84.3841 49.6493C84.6824 49.3477 84.9429 49.015 85.1608 48.6577C85.3367 48.3653 85.4793 48.0562 85.5862 47.7356C86.3259 45.6063 85.6527 43.0802 86.4664 40.9265L86.5108 40.8082C86.8178 40.0428 87.4428 39.2773 88.312 39.2182C89.1811 39.159 89.9245 39.8375 90.753 40.1402C92.4876 40.7734 94.359 39.6948 95.8052 38.5954C97.2513 37.4959 98.8823 36.2398 100.72 36.4834C101.937 36.6469 102.899 37.4263 104.02 37.8299C104.273 37.922 104.534 37.9931 104.8 38.0421C103.852 35.8171 102.109 33.9723 99.8719 32.8245C97.6347 31.6768 95.0425 31.2979 92.5406 31.7528C90.0387 32.2077 87.7833 33.4681 86.1618 35.3174C84.5404 37.1668 83.6542 39.4896 83.6555 41.8868C83.6543 42.6107 83.7349 43.3327 83.8959 44.0405C83.8774 44.0893 83.8589 44.1345 83.8367 44.1832C83.4077 45.227 82.9232 46.2986 82.4979 47.2242L80.4082 49.0056C80.4082 49.0056 79.5206 49.7015 78.1891 50.7453C75.2932 53.0416 70.2891 57.0847 67.7075 59.5585C65.4367 61.7435 64.7265 70.2123 64.512 76.5899Z" fill="black"/>
<path d="M104.149 31.4732C103.62 30.4607 103.358 29.3264 102.725 28.3661C101.797 26.9744 100.177 26.0836 98.5126 25.5443C94.1668 24.1352 84.9833 22.0893 82.239 25.5443C81.699 26.2402 81.2515 27.0126 80.5044 27.4928C79.9348 27.8581 79.2469 28.0147 78.6219 28.2896C76.8724 29.062 75.7555 30.746 75.16 32.4648C74.5646 34.1836 74.387 36.0276 73.9506 37.7986C73.3921 40.0706 72.412 42.2244 71.4356 44.3642C70.2854 46.8902 69.0648 49.5101 66.8457 51.295C63.8166 53.7306 63.1472 57.1786 60.3363 59.8508C57.0076 63.0239 57.1149 68.2604 58.831 72.4182C59.0566 72.9644 59.3118 73.5351 59.223 74.1161C59.1343 74.6972 58.6756 75.226 58.2429 75.6888L56.4233 77.6198C60.7284 78.5975 65.5993 76.4821 67.6039 72.7696C68.2216 71.6214 68.6321 70.2993 69.6899 69.4816C70.6367 68.7509 71.909 68.577 73.0888 68.2499C76.9797 67.1644 80.2418 63.8207 80.3639 60.0073C80.4231 58.2155 79.8276 56.4236 80.0976 54.6491C80.2478 53.6361 80.6747 52.6771 81.3366 51.8656C82.3537 50.6166 83.8886 49.778 84.717 48.3863C86.1188 46.0586 85.0536 43.0351 86.0633 40.5369C86.374 39.7714 86.9953 39.006 87.8645 38.9468C88.7336 38.8877 89.477 39.5661 90.3092 39.8688C92.0401 40.5021 93.9116 39.427 95.3577 38.324C96.8038 37.2211 98.4349 35.9685 100.277 36.2155C101.494 36.3756 102.452 37.1549 103.572 37.562C104.401 37.8613 106.08 38.1292 106.805 37.4716C108.336 36.1459 104.789 32.7118 104.149 31.4732Z" fill="#591D4B"/>
<path opacity="0.1" d="M66.5757 71.6214C67.197 70.4732 67.6039 69.151 68.6617 68.3369C69.6085 67.6062 70.8808 67.4287 72.0643 67.1017C75.9515 66.0196 79.2136 62.676 79.3393 58.8626C79.3985 57.0707 78.8031 55.2754 79.0693 53.5009C79.2243 52.4944 79.6508 51.5421 80.3083 50.7348C81.3291 49.4857 82.864 48.6472 83.6888 47.2555C85.0906 44.9313 84.0254 41.9077 85.0388 39.406C85.3457 38.6441 85.9708 37.8786 86.8363 37.816C87.7017 37.7534 88.4525 38.4388 89.281 38.7415C91.0119 39.3747 92.8871 38.2961 94.3295 37.1967C95.7719 36.0972 97.4104 34.8411 99.2486 35.0847C100.465 35.2482 101.427 36.0276 102.544 36.4312C103.372 36.7304 105.055 37.0018 105.78 36.3442C107.304 34.9525 103.757 31.5253 103.121 30.2936C102.592 29.2777 102.329 28.1469 101.693 27.1866C101.66 27.1344 101.623 27.0822 101.586 27.03C102.062 27.4008 102.473 27.84 102.803 28.3313C103.435 29.2916 103.698 30.4189 104.227 31.4383C104.867 32.67 108.414 36.1076 106.886 37.4889C106.146 38.15 104.482 37.8786 103.654 37.5794C102.544 37.1723 101.575 36.3929 100.358 36.2329C98.5089 35.9858 96.8815 37.2419 95.439 38.3414C93.9966 39.4408 92.1104 40.5194 90.3869 39.8862C89.5584 39.5835 88.8335 38.9015 87.9458 38.9642C87.0582 39.0268 86.4664 39.7888 86.1446 40.5542C85.1349 43.0524 86.2001 46.076 84.7984 48.4037C83.9699 49.771 82.435 50.627 81.4179 51.883C80.756 52.6944 80.3291 53.6535 80.1789 54.6665C79.9089 56.441 80.5044 58.2328 80.4452 60.0247C80.3231 63.852 77.061 67.1817 73.1702 68.2673C71.9977 68.5943 70.718 68.7683 69.7712 69.499C68.7097 70.3166 68.2918 71.6388 67.6852 72.7869C65.6806 76.4994 60.8097 78.6149 56.5046 77.6372L57.3626 76.7256C61.0944 76.7778 64.8707 74.7806 66.5757 71.6214Z" fill="black"/>
<path opacity="0.1" d="M92.0732 55.7416C92.5577 56.4375 93.9447 60.0003 95.1024 63.1109C96.1861 62.7142 97.1699 60.1847 97.1699 60.1847L91.3926 52.4536C90.8008 53.2191 91.1892 54.4891 92.0732 55.7416Z" fill="black"/>
<path d="M91.8515 55.5329C92.336 56.2287 93.723 59.7916 94.8806 62.9021C95.9642 62.509 96.948 59.976 96.948 59.976L91.171 52.2484C90.5793 53.0103 90.9676 54.2838 91.8515 55.5329Z" fill="#DCE7FF"/>
<path d="M125.441 91.0779L128.644 81.5759C128.682 81.4646 128.696 81.3474 128.686 81.231C128.676 81.1146 128.641 81.0012 128.584 80.8975C128.527 80.7937 128.449 80.7016 128.354 80.6263C128.259 80.5511 128.149 80.4942 128.03 80.459V80.459C127.792 80.389 127.534 80.4104 127.312 80.5186C127.091 80.6268 126.923 80.813 126.847 81.0366L123.644 90.5282L123.962 92.5149L125.441 91.0779Z" fill="#BE8B87"/>
<path opacity="0.1" d="M128.341 80.7409C128.102 80.6698 127.843 80.6907 127.621 80.7989C127.398 80.9072 127.23 81.094 127.154 81.3184L123.951 90.81L124.191 92.2992L123.958 92.5288L123.64 90.5421L126.862 81.0505C126.938 80.8269 127.105 80.6407 127.327 80.5326C127.549 80.4244 127.807 80.403 128.045 80.473V80.473C128.246 80.5342 128.419 80.6566 128.537 80.8209C128.474 80.7892 128.409 80.7624 128.341 80.7409V80.7409Z" fill="white"/>
<path d="M125.441 91.0779L123.644 90.5421L123.907 92.1705L123.962 92.5288L124.487 92.0139L125.441 91.0779Z" fill="#EFC8C4"/>
<path d="M124.487 92.0139C124.456 91.9767 124.417 91.9459 124.373 91.9234C124.347 91.908 124.316 91.8998 124.286 91.8998C124.255 91.8998 124.225 91.908 124.199 91.9234C124.174 91.9521 124.152 91.9837 124.136 92.0174C124.111 92.0558 124.078 92.0885 124.038 92.1132C123.999 92.1379 123.954 92.1539 123.907 92.16L123.962 92.5079L124.487 92.0139Z" fill="#727A9C"/>
<path d="M128.663 84.9508C128.663 84.9508 122.238 84.916 123.751 87.4872C125.264 90.0585 127.627 90.3681 127.627 90.3681L128.663 84.9508Z" fill="#FFB0B1"/>
</g>
<defs>
<linearGradient id="paint0_linear" x1="-82126.9" y1="161492" x2="-82126.9" y2="51593.2" gradientUnits="userSpaceOnUse">
<stop stop-color="#808080" stop-opacity="0.25"/>
<stop offset="0.54" stop-color="#808080" stop-opacity="0.12"/>
<stop offset="1" stop-color="#808080" stop-opacity="0.1"/>
</linearGradient>
<clipPath id="clip0">
<rect width="400" height="218.495" fill="white" transform="translate(0.500122)"/>
</clipPath>
</defs>
</svg>
