<svg width="333" height="270" viewBox="0 0 333 270" fill="none" xmlns="http://www.w3.org/2000/svg">
<g clip-path="url(#clip0)">
<path d="M0.203064 269.627H109.793V268.732H0.0410461L0.203064 269.627Z" fill="#3F3D56"/>
<path d="M329.797 5.79434C328.197 5.79434 326.9 4.4973 326.9 2.89733C326.9 1.29735 328.197 0.00031662 329.797 0.00031662C331.397 0.00031662 332.694 1.29735 332.694 2.89733C332.694 4.4973 331.397 5.79434 329.797 5.79434Z" fill="#E6E6E6"/>
<path d="M315.15 5.79432C313.55 5.79432 312.253 4.49728 312.253 2.89731C312.253 1.29733 313.55 0.000297546 315.15 0.000297546C316.75 0.000297546 318.047 1.29733 318.047 2.89731C318.047 4.49728 316.75 5.79432 315.15 5.79432Z" fill="#E6E6E6"/>
<path d="M300.485 5.79432C298.885 5.79432 297.588 4.49728 297.588 2.89731C297.588 1.29733 298.885 0.000297546 300.485 0.000297546C302.085 0.000297546 303.382 1.29733 303.382 2.89731C303.382 4.49728 302.085 5.79432 300.485 5.79432Z" fill="#E6E6E6"/>
<path d="M285.82 5.79432C284.22 5.79432 282.923 4.49728 282.923 2.89731C282.923 1.29733 284.22 0.000297546 285.82 0.000297546C287.42 0.000297546 288.717 1.29733 288.717 2.89731C288.717 4.49728 287.42 5.79432 285.82 5.79432Z" fill="#E6E6E6"/>
<path d="M271.156 5.79432C269.556 5.79432 268.259 4.49728 268.259 2.89731C268.259 1.29733 269.556 0.000297546 271.156 0.000297546C272.756 0.000297546 274.053 1.29733 274.053 2.89731C274.053 4.49728 272.756 5.79432 271.156 5.79432Z" fill="#E6E6E6"/>
<path d="M256.491 5.79432C254.891 5.79432 253.594 4.49728 253.594 2.89731C253.594 1.29733 254.891 0.000297546 256.491 0.000297546C258.091 0.000297546 259.388 1.29733 259.388 2.89731C259.388 4.49728 258.091 5.79432 256.491 5.79432Z" fill="#E6E6E6"/>
<path d="M241.826 5.79432C240.226 5.79432 238.929 4.49728 238.929 2.89731C238.929 1.29733 240.226 0.000297546 241.826 0.000297546C243.426 0.000297546 244.723 1.29733 244.723 2.89731C244.723 4.49728 243.426 5.79432 241.826 5.79432Z" fill="#E6E6E6"/>
<path d="M227.162 5.79432C225.562 5.79432 224.265 4.49728 224.265 2.89731C224.265 1.29733 225.562 0.000297546 227.162 0.000297546C228.762 0.000297546 230.059 1.29733 230.059 2.89731C230.059 4.49728 228.762 5.79432 227.162 5.79432Z" fill="#E6E6E6"/>
<path d="M212.497 5.79432C210.897 5.79432 209.6 4.49728 209.6 2.89731C209.6 1.29733 210.897 0.000297546 212.497 0.000297546C214.097 0.000297546 215.394 1.29733 215.394 2.89731C215.394 4.49728 214.097 5.79432 212.497 5.79432Z" fill="#E6E6E6"/>
<path d="M197.832 5.79432C196.232 5.79432 194.935 4.49728 194.935 2.89731C194.935 1.29733 196.232 0.000297546 197.832 0.000297546C199.432 0.000297546 200.729 1.29733 200.729 2.89731C200.729 4.49728 199.432 5.79432 197.832 5.79432Z" fill="#E6E6E6"/>
<path d="M329.814 20.643C328.214 20.643 326.917 19.346 326.917 17.746C326.917 16.146 328.214 14.849 329.814 14.849C331.414 14.849 332.711 16.146 332.711 17.746C332.711 19.346 331.414 20.643 329.814 20.643Z" fill="#E6E6E6"/>
<path d="M315.15 20.643C313.55 20.643 312.253 19.346 312.253 17.746C312.253 16.146 313.55 14.849 315.15 14.849C316.75 14.849 318.047 16.146 318.047 17.746C318.047 19.346 316.75 20.643 315.15 20.643Z" fill="#E6E6E6"/>
<path d="M300.485 20.643C298.885 20.643 297.588 19.346 297.588 17.746C297.588 16.146 298.885 14.849 300.485 14.849C302.085 14.849 303.382 16.146 303.382 17.746C303.382 19.346 302.085 20.643 300.485 20.643Z" fill="#E6E6E6"/>
<path d="M285.82 20.643C284.22 20.643 282.923 19.346 282.923 17.746C282.923 16.146 284.22 14.849 285.82 14.849C287.42 14.849 288.717 16.146 288.717 17.746C288.717 19.346 287.42 20.643 285.82 20.643Z" fill="#00B0FF"/>
<path d="M271.156 20.643C269.556 20.643 268.259 19.346 268.259 17.746C268.259 16.146 269.556 14.849 271.156 14.849C272.756 14.849 274.053 16.146 274.053 17.746C274.053 19.346 272.756 20.643 271.156 20.643Z" fill="#E6E6E6"/>
<path d="M256.491 20.643C254.891 20.643 253.594 19.346 253.594 17.746C253.594 16.146 254.891 14.849 256.491 14.849C258.091 14.849 259.388 16.146 259.388 17.746C259.388 19.346 258.091 20.643 256.491 20.643Z" fill="#E6E6E6"/>
<path d="M241.826 20.643C240.226 20.643 238.929 19.346 238.929 17.746C238.929 16.146 240.226 14.849 241.826 14.849C243.426 14.849 244.723 16.146 244.723 17.746C244.723 19.346 243.426 20.643 241.826 20.643Z" fill="#E6E6E6"/>
<path d="M227.162 20.643C225.562 20.643 224.265 19.346 224.265 17.746C224.265 16.146 225.562 14.849 227.162 14.849C228.762 14.849 230.059 16.146 230.059 17.746C230.059 19.346 228.762 20.643 227.162 20.643Z" fill="#E6E6E6"/>
<path d="M212.497 20.643C210.897 20.643 209.6 19.346 209.6 17.746C209.6 16.146 210.897 14.849 212.497 14.849C214.097 14.849 215.394 16.146 215.394 17.746C215.394 19.346 214.097 20.643 212.497 20.643Z" fill="#E6E6E6"/>
<path d="M197.832 20.643C196.232 20.643 194.935 19.346 194.935 17.746C194.935 16.146 196.232 14.849 197.832 14.849C199.432 14.849 200.729 16.146 200.729 17.746C200.729 19.346 199.432 20.643 197.832 20.643Z" fill="#E6E6E6"/>
<path d="M329.814 35.4917C328.214 35.4917 326.917 34.1947 326.917 32.5947C326.917 30.9947 328.214 29.6977 329.814 29.6977C331.414 29.6977 332.711 30.9947 332.711 32.5947C332.711 34.1947 331.414 35.4917 329.814 35.4917Z" fill="#E6E6E6"/>
<path d="M315.15 35.4917C313.55 35.4917 312.253 34.1947 312.253 32.5947C312.253 30.9947 313.55 29.6977 315.15 29.6977C316.75 29.6977 318.047 30.9947 318.047 32.5947C318.047 34.1947 316.75 35.4917 315.15 35.4917Z" fill="#E6E6E6"/>
<path d="M300.485 35.4917C298.885 35.4917 297.588 34.1947 297.588 32.5947C297.588 30.9947 298.885 29.6977 300.485 29.6977C302.085 29.6977 303.382 30.9947 303.382 32.5947C303.382 34.1947 302.085 35.4917 300.485 35.4917Z" fill="#E6E6E6"/>
<path d="M285.82 35.4917C284.22 35.4917 282.923 34.1947 282.923 32.5947C282.923 30.9947 284.22 29.6977 285.82 29.6977C287.42 29.6977 288.717 30.9947 288.717 32.5947C288.717 34.1947 287.42 35.4917 285.82 35.4917Z" fill="#E6E6E6"/>
<path d="M271.156 35.4917C269.556 35.4917 268.259 34.1947 268.259 32.5947C268.259 30.9947 269.556 29.6977 271.156 29.6977C272.756 29.6977 274.053 30.9947 274.053 32.5947C274.053 34.1947 272.756 35.4917 271.156 35.4917Z" fill="#E6E6E6"/>
<path d="M256.491 35.4917C254.891 35.4917 253.594 34.1947 253.594 32.5947C253.594 30.9947 254.891 29.6977 256.491 29.6977C258.091 29.6977 259.388 30.9947 259.388 32.5947C259.388 34.1947 258.091 35.4917 256.491 35.4917Z" fill="#E6E6E6"/>
<path d="M241.826 35.4917C240.226 35.4917 238.929 34.1947 238.929 32.5947C238.929 30.9947 240.226 29.6977 241.826 29.6977C243.426 29.6977 244.723 30.9947 244.723 32.5947C244.723 34.1947 243.426 35.4917 241.826 35.4917Z" fill="#E6E6E6"/>
<path d="M227.162 35.4917C225.562 35.4917 224.265 34.1947 224.265 32.5947C224.265 30.9947 225.562 29.6977 227.162 29.6977C228.762 29.6977 230.059 30.9947 230.059 32.5947C230.059 34.1947 228.762 35.4917 227.162 35.4917Z" fill="#E6E6E6"/>
<path d="M212.497 35.4917C210.897 35.4917 209.6 34.1947 209.6 32.5947C209.6 30.9947 210.897 29.6977 212.497 29.6977C214.097 29.6977 215.394 30.9947 215.394 32.5947C215.394 34.1947 214.097 35.4917 212.497 35.4917Z" fill="#E6E6E6"/>
<path d="M197.832 35.4917C196.232 35.4917 194.935 34.1947 194.935 32.5947C194.935 30.9947 196.232 29.6977 197.832 29.6977C199.432 29.6977 200.729 30.9947 200.729 32.5947C200.729 34.1947 199.432 35.4917 197.832 35.4917Z" fill="#E6E6E6"/>
<path d="M329.814 50.3404C328.214 50.3404 326.917 49.0434 326.917 47.4434C326.917 45.8434 328.214 44.5464 329.814 44.5464C331.414 44.5464 332.711 45.8434 332.711 47.4434C332.711 49.0434 331.414 50.3404 329.814 50.3404Z" fill="#E6E6E6"/>
<path d="M315.15 50.3404C313.55 50.3404 312.253 49.0434 312.253 47.4434C312.253 45.8434 313.55 44.5464 315.15 44.5464C316.75 44.5464 318.047 45.8434 318.047 47.4434C318.047 49.0434 316.75 50.3404 315.15 50.3404Z" fill="#E6E6E6"/>
<path d="M300.485 50.3404C298.885 50.3404 297.588 49.0434 297.588 47.4434C297.588 45.8434 298.885 44.5464 300.485 44.5464C302.085 44.5464 303.382 45.8434 303.382 47.4434C303.382 49.0434 302.085 50.3404 300.485 50.3404Z" fill="#E6E6E6"/>
<path d="M285.82 50.3404C284.22 50.3404 282.923 49.0434 282.923 47.4434C282.923 45.8434 284.22 44.5464 285.82 44.5464C287.42 44.5464 288.717 45.8434 288.717 47.4434C288.717 49.0434 287.42 50.3404 285.82 50.3404Z" fill="#E6E6E6"/>
<path d="M271.156 50.3404C269.556 50.3404 268.259 49.0434 268.259 47.4434C268.259 45.8434 269.556 44.5464 271.156 44.5464C272.756 44.5464 274.053 45.8434 274.053 47.4434C274.053 49.0434 272.756 50.3404 271.156 50.3404Z" fill="#E6E6E6"/>
<path d="M256.491 50.3404C254.891 50.3404 253.594 49.0434 253.594 47.4434C253.594 45.8434 254.891 44.5464 256.491 44.5464C258.091 44.5464 259.388 45.8434 259.388 47.4434C259.388 49.0434 258.091 50.3404 256.491 50.3404Z" fill="#E6E6E6"/>
<path d="M241.826 50.3404C240.226 50.3404 238.929 49.0434 238.929 47.4434C238.929 45.8434 240.226 44.5464 241.826 44.5464C243.426 44.5464 244.723 45.8434 244.723 47.4434C244.723 49.0434 243.426 50.3404 241.826 50.3404Z" fill="#E6E6E6"/>
<path d="M227.162 50.3404C225.562 50.3404 224.265 49.0434 224.265 47.4434C224.265 45.8434 225.562 44.5464 227.162 44.5464C228.762 44.5464 230.059 45.8434 230.059 47.4434C230.059 49.0434 228.762 50.3404 227.162 50.3404Z" fill="#E6E6E6"/>
<path d="M212.497 50.3404C210.897 50.3404 209.6 49.0434 209.6 47.4434C209.6 45.8434 210.897 44.5464 212.497 44.5464C214.097 44.5464 215.394 45.8434 215.394 47.4434C215.394 49.0434 214.097 50.3404 212.497 50.3404Z" fill="#E6E6E6"/>
<path d="M197.832 50.3404C196.232 50.3404 194.935 49.0434 194.935 47.4434C194.935 45.8434 196.232 44.5464 197.832 44.5464C199.432 44.5464 200.729 45.8434 200.729 47.4434C200.729 49.0434 199.432 50.3404 197.832 50.3404Z" fill="#E6E6E6"/>
<path d="M329.814 65.1891C328.214 65.1891 326.917 63.8921 326.917 62.2921C326.917 60.6921 328.214 59.3951 329.814 59.3951C331.414 59.3951 332.711 60.6921 332.711 62.2921C332.711 63.8921 331.414 65.1891 329.814 65.1891Z" fill="#E6E6E6"/>
<path d="M315.15 65.1891C313.55 65.1891 312.253 63.8921 312.253 62.2921C312.253 60.6921 313.55 59.3951 315.15 59.3951C316.75 59.3951 318.047 60.6921 318.047 62.2921C318.047 63.8921 316.75 65.1891 315.15 65.1891Z" fill="#00B0FF"/>
<path d="M300.485 65.1891C298.885 65.1891 297.588 63.8921 297.588 62.2921C297.588 60.6921 298.885 59.3951 300.485 59.3951C302.085 59.3951 303.382 60.6921 303.382 62.2921C303.382 63.8921 302.085 65.1891 300.485 65.1891Z" fill="#E6E6E6"/>
<path d="M285.82 65.1891C284.22 65.1891 282.923 63.8921 282.923 62.2921C282.923 60.6921 284.22 59.3951 285.82 59.3951C287.42 59.3951 288.717 60.6921 288.717 62.2921C288.717 63.8921 287.42 65.1891 285.82 65.1891Z" fill="#E6E6E6"/>
<path d="M271.156 65.1891C269.556 65.1891 268.259 63.8921 268.259 62.2921C268.259 60.6921 269.556 59.3951 271.156 59.3951C272.756 59.3951 274.053 60.6921 274.053 62.2921C274.053 63.8921 272.756 65.1891 271.156 65.1891Z" fill="#E6E6E6"/>
<path d="M256.491 65.1891C254.891 65.1891 253.594 63.8921 253.594 62.2921C253.594 60.6921 254.891 59.3951 256.491 59.3951C258.091 59.3951 259.388 60.6921 259.388 62.2921C259.388 63.8921 258.091 65.1891 256.491 65.1891Z" fill="#E6E6E6"/>
<path d="M241.826 65.1891C240.226 65.1891 238.929 63.8921 238.929 62.2921C238.929 60.6921 240.226 59.3951 241.826 59.3951C243.426 59.3951 244.723 60.6921 244.723 62.2921C244.723 63.8921 243.426 65.1891 241.826 65.1891Z" fill="#E6E6E6"/>
<path d="M227.162 65.1891C225.562 65.1891 224.265 63.8921 224.265 62.2921C224.265 60.6921 225.562 59.3951 227.162 59.3951C228.762 59.3951 230.059 60.6921 230.059 62.2921C230.059 63.8921 228.762 65.1891 227.162 65.1891Z" fill="#E6E6E6"/>
<path d="M212.497 65.1891C210.897 65.1891 209.6 63.8921 209.6 62.2921C209.6 60.6921 210.897 59.3951 212.497 59.3951C214.097 59.3951 215.394 60.6921 215.394 62.2921C215.394 63.8921 214.097 65.1891 212.497 65.1891Z" fill="#E6E6E6"/>
<path d="M197.832 65.1891C196.232 65.1891 194.935 63.8921 194.935 62.2921C194.935 60.6921 196.232 59.3951 197.832 59.3951C199.432 59.3951 200.729 60.6921 200.729 62.2921C200.729 63.8921 199.432 65.1891 197.832 65.1891Z" fill="#E6E6E6"/>
<path d="M329.814 80.0379C328.214 80.0379 326.917 78.7408 326.917 77.1408C326.917 75.5408 328.214 74.2438 329.814 74.2438C331.414 74.2438 332.711 75.5408 332.711 77.1408C332.711 78.7408 331.414 80.0379 329.814 80.0379Z" fill="#E6E6E6"/>
<path d="M315.15 80.0379C313.55 80.0379 312.253 78.7408 312.253 77.1408C312.253 75.5408 313.55 74.2438 315.15 74.2438C316.75 74.2438 318.047 75.5408 318.047 77.1408C318.047 78.7408 316.75 80.0379 315.15 80.0379Z" fill="#E6E6E6"/>
<path d="M300.485 80.0379C298.885 80.0379 297.588 78.7408 297.588 77.1408C297.588 75.5408 298.885 74.2438 300.485 74.2438C302.085 74.2438 303.382 75.5408 303.382 77.1408C303.382 78.7408 302.085 80.0379 300.485 80.0379Z" fill="#E6E6E6"/>
<path d="M285.82 80.0379C284.22 80.0379 282.923 78.7408 282.923 77.1408C282.923 75.5408 284.22 74.2438 285.82 74.2438C287.42 74.2438 288.717 75.5408 288.717 77.1408C288.717 78.7408 287.42 80.0379 285.82 80.0379Z" fill="#E6E6E6"/>
<path d="M271.156 80.0379C269.556 80.0379 268.259 78.7408 268.259 77.1408C268.259 75.5408 269.556 74.2438 271.156 74.2438C272.756 74.2438 274.053 75.5408 274.053 77.1408C274.053 78.7408 272.756 80.0379 271.156 80.0379Z" fill="#E6E6E6"/>
<path d="M256.491 80.0379C254.891 80.0379 253.594 78.7408 253.594 77.1408C253.594 75.5408 254.891 74.2438 256.491 74.2438C258.091 74.2438 259.388 75.5408 259.388 77.1408C259.388 78.7408 258.091 80.0379 256.491 80.0379Z" fill="#E6E6E6"/>
<path d="M241.826 80.0379C240.226 80.0379 238.929 78.7408 238.929 77.1408C238.929 75.5408 240.226 74.2438 241.826 74.2438C243.426 74.2438 244.723 75.5408 244.723 77.1408C244.723 78.7408 243.426 80.0379 241.826 80.0379Z" fill="#E6E6E6"/>
<path d="M227.162 80.0379C225.562 80.0379 224.265 78.7408 224.265 77.1408C224.265 75.5408 225.562 74.2438 227.162 74.2438C228.762 74.2438 230.059 75.5408 230.059 77.1408C230.059 78.7408 228.762 80.0379 227.162 80.0379Z" fill="#E6E6E6"/>
<path d="M212.497 80.0379C210.897 80.0379 209.6 78.7408 209.6 77.1408C209.6 75.5408 210.897 74.2438 212.497 74.2438C214.097 74.2438 215.394 75.5408 215.394 77.1408C215.394 78.7408 214.097 80.0379 212.497 80.0379Z" fill="#E6E6E6"/>
<path d="M197.832 80.0379C196.232 80.0379 194.935 78.7408 194.935 77.1408C194.935 75.5408 196.232 74.2438 197.832 74.2438C199.432 74.2438 200.729 75.5408 200.729 77.1408C200.729 78.7408 199.432 80.0379 197.832 80.0379Z" fill="#E6E6E6"/>
<path d="M329.814 94.8865C328.214 94.8865 326.917 93.5895 326.917 91.9895C326.917 90.3895 328.214 89.0925 329.814 89.0925C331.414 89.0925 332.711 90.3895 332.711 91.9895C332.711 93.5895 331.414 94.8865 329.814 94.8865Z" fill="#E6E6E6"/>
<path d="M315.15 94.8865C313.55 94.8865 312.253 93.5895 312.253 91.9895C312.253 90.3895 313.55 89.0925 315.15 89.0925C316.75 89.0925 318.047 90.3895 318.047 91.9895C318.047 93.5895 316.75 94.8865 315.15 94.8865Z" fill="#E6E6E6"/>
<path d="M300.485 94.8865C298.885 94.8865 297.588 93.5895 297.588 91.9895C297.588 90.3895 298.885 89.0925 300.485 89.0925C302.085 89.0925 303.382 90.3895 303.382 91.9895C303.382 93.5895 302.085 94.8865 300.485 94.8865Z" fill="#00B0FF"/>
<path d="M285.82 94.8865C284.22 94.8865 282.923 93.5895 282.923 91.9895C282.923 90.3895 284.22 89.0925 285.82 89.0925C287.42 89.0925 288.717 90.3895 288.717 91.9895C288.717 93.5895 287.42 94.8865 285.82 94.8865Z" fill="#E6E6E6"/>
<path d="M271.156 94.8865C269.556 94.8865 268.259 93.5895 268.259 91.9895C268.259 90.3895 269.556 89.0925 271.156 89.0925C272.756 89.0925 274.053 90.3895 274.053 91.9895C274.053 93.5895 272.756 94.8865 271.156 94.8865Z" fill="#E6E6E6"/>
<path d="M256.491 94.8865C254.891 94.8865 253.594 93.5895 253.594 91.9895C253.594 90.3895 254.891 89.0925 256.491 89.0925C258.091 89.0925 259.388 90.3895 259.388 91.9895C259.388 93.5895 258.091 94.8865 256.491 94.8865Z" fill="#E6E6E6"/>
<path d="M241.826 94.8865C240.226 94.8865 238.929 93.5895 238.929 91.9895C238.929 90.3895 240.226 89.0925 241.826 89.0925C243.426 89.0925 244.723 90.3895 244.723 91.9895C244.723 93.5895 243.426 94.8865 241.826 94.8865Z" fill="#E6E6E6"/>
<path d="M227.162 94.8865C225.562 94.8865 224.265 93.5895 224.265 91.9895C224.265 90.3895 225.562 89.0925 227.162 89.0925C228.762 89.0925 230.059 90.3895 230.059 91.9895C230.059 93.5895 228.762 94.8865 227.162 94.8865Z" fill="#E6E6E6"/>
<path d="M212.497 94.8865C210.897 94.8865 209.6 93.5895 209.6 91.9895C209.6 90.3895 210.897 89.0925 212.497 89.0925C214.097 89.0925 215.394 90.3895 215.394 91.9895C215.394 93.5895 214.097 94.8865 212.497 94.8865Z" fill="#E6E6E6"/>
<path d="M197.832 94.8865C196.232 94.8865 194.935 93.5895 194.935 91.9895C194.935 90.3895 196.232 89.0925 197.832 89.0925C199.432 89.0925 200.729 90.3895 200.729 91.9895C200.729 93.5895 199.432 94.8865 197.832 94.8865Z" fill="#E6E6E6"/>
<path d="M329.814 109.735C328.214 109.735 326.917 108.438 326.917 106.838C326.917 105.238 328.214 103.941 329.814 103.941C331.414 103.941 332.711 105.238 332.711 106.838C332.711 108.438 331.414 109.735 329.814 109.735Z" fill="#E6E6E6"/>
<path d="M315.15 109.735C313.55 109.735 312.253 108.438 312.253 106.838C312.253 105.238 313.55 103.941 315.15 103.941C316.75 103.941 318.047 105.238 318.047 106.838C318.047 108.438 316.75 109.735 315.15 109.735Z" fill="#E6E6E6"/>
<path d="M300.485 109.735C298.885 109.735 297.588 108.438 297.588 106.838C297.588 105.238 298.885 103.941 300.485 103.941C302.085 103.941 303.382 105.238 303.382 106.838C303.382 108.438 302.085 109.735 300.485 109.735Z" fill="#E6E6E6"/>
<path d="M285.82 109.735C284.22 109.735 282.923 108.438 282.923 106.838C282.923 105.238 284.22 103.941 285.82 103.941C287.42 103.941 288.717 105.238 288.717 106.838C288.717 108.438 287.42 109.735 285.82 109.735Z" fill="#E6E6E6"/>
<path d="M271.156 109.735C269.556 109.735 268.259 108.438 268.259 106.838C268.259 105.238 269.556 103.941 271.156 103.941C272.756 103.941 274.053 105.238 274.053 106.838C274.053 108.438 272.756 109.735 271.156 109.735Z" fill="#E6E6E6"/>
<path d="M256.491 109.735C254.891 109.735 253.594 108.438 253.594 106.838C253.594 105.238 254.891 103.941 256.491 103.941C258.091 103.941 259.388 105.238 259.388 106.838C259.388 108.438 258.091 109.735 256.491 109.735Z" fill="#E6E6E6"/>
<path d="M241.826 109.735C240.226 109.735 238.929 108.438 238.929 106.838C238.929 105.238 240.226 103.941 241.826 103.941C243.426 103.941 244.723 105.238 244.723 106.838C244.723 108.438 243.426 109.735 241.826 109.735Z" fill="#E6E6E6"/>
<path d="M227.162 109.735C225.562 109.735 224.265 108.438 224.265 106.838C224.265 105.238 225.562 103.941 227.162 103.941C228.762 103.941 230.059 105.238 230.059 106.838C230.059 108.438 228.762 109.735 227.162 109.735Z" fill="#E6E6E6"/>
<path d="M212.497 109.735C210.897 109.735 209.6 108.438 209.6 106.838C209.6 105.238 210.897 103.941 212.497 103.941C214.097 103.941 215.394 105.238 215.394 106.838C215.394 108.438 214.097 109.735 212.497 109.735Z" fill="#E6E6E6"/>
<path d="M197.832 109.735C196.232 109.735 194.935 108.438 194.935 106.838C194.935 105.238 196.232 103.941 197.832 103.941C199.432 103.941 200.729 105.238 200.729 106.838C200.729 108.438 199.432 109.735 197.832 109.735Z" fill="#E6E6E6"/>
<path d="M329.814 124.584C328.214 124.584 326.917 123.287 326.917 121.687C326.917 120.087 328.214 118.79 329.814 118.79C331.414 118.79 332.711 120.087 332.711 121.687C332.711 123.287 331.414 124.584 329.814 124.584Z" fill="#E6E6E6"/>
<path d="M315.15 124.584C313.55 124.584 312.253 123.287 312.253 121.687C312.253 120.087 313.55 118.79 315.15 118.79C316.75 118.79 318.047 120.087 318.047 121.687C318.047 123.287 316.75 124.584 315.15 124.584Z" fill="#E6E6E6"/>
<path d="M300.485 124.584C298.885 124.584 297.588 123.287 297.588 121.687C297.588 120.087 298.885 118.79 300.485 118.79C302.085 118.79 303.382 120.087 303.382 121.687C303.382 123.287 302.085 124.584 300.485 124.584Z" fill="#E6E6E6"/>
<path d="M285.82 124.584C284.22 124.584 282.923 123.287 282.923 121.687C282.923 120.087 284.22 118.79 285.82 118.79C287.42 118.79 288.717 120.087 288.717 121.687C288.717 123.287 287.42 124.584 285.82 124.584Z" fill="#E6E6E6"/>
<path d="M271.156 124.584C269.556 124.584 268.259 123.287 268.259 121.687C268.259 120.087 269.556 118.79 271.156 118.79C272.756 118.79 274.053 120.087 274.053 121.687C274.053 123.287 272.756 124.584 271.156 124.584Z" fill="#E6E6E6"/>
<path d="M256.491 124.584C254.891 124.584 253.594 123.287 253.594 121.687C253.594 120.087 254.891 118.79 256.491 118.79C258.091 118.79 259.388 120.087 259.388 121.687C259.388 123.287 258.091 124.584 256.491 124.584Z" fill="#E6E6E6"/>
<path d="M241.826 124.584C240.226 124.584 238.929 123.287 238.929 121.687C238.929 120.087 240.226 118.79 241.826 118.79C243.426 118.79 244.723 120.087 244.723 121.687C244.723 123.287 243.426 124.584 241.826 124.584Z" fill="#E6E6E6"/>
<path d="M227.162 124.584C225.562 124.584 224.265 123.287 224.265 121.687C224.265 120.087 225.562 118.79 227.162 118.79C228.762 118.79 230.059 120.087 230.059 121.687C230.059 123.287 228.762 124.584 227.162 124.584Z" fill="#E6E6E6"/>
<path d="M212.497 124.584C210.897 124.584 209.6 123.287 209.6 121.687C209.6 120.087 210.897 118.79 212.497 118.79C214.097 118.79 215.394 120.087 215.394 121.687C215.394 123.287 214.097 124.584 212.497 124.584Z" fill="#E6E6E6"/>
<path d="M197.832 124.584C196.232 124.584 194.935 123.287 194.935 121.687C194.935 120.087 196.232 118.79 197.832 118.79C199.432 118.79 200.729 120.087 200.729 121.687C200.729 123.287 199.432 124.584 197.832 124.584Z" fill="#E6E6E6"/>
<path d="M329.814 139.433C328.214 139.433 326.917 138.136 326.917 136.536C326.917 134.936 328.214 133.639 329.814 133.639C331.414 133.639 332.711 134.936 332.711 136.536C332.711 138.136 331.414 139.433 329.814 139.433Z" fill="#E6E6E6"/>
<path d="M315.15 139.433C313.55 139.433 312.253 138.136 312.253 136.536C312.253 134.936 313.55 133.639 315.15 133.639C316.75 133.639 318.047 134.936 318.047 136.536C318.047 138.136 316.75 139.433 315.15 139.433Z" fill="#E6E6E6"/>
<path d="M300.485 139.433C298.885 139.433 297.588 138.136 297.588 136.536C297.588 134.936 298.885 133.639 300.485 133.639C302.085 133.639 303.382 134.936 303.382 136.536C303.382 138.136 302.085 139.433 300.485 139.433Z" fill="#E6E6E6"/>
<path d="M285.82 139.433C284.22 139.433 282.923 138.136 282.923 136.536C282.923 134.936 284.22 133.639 285.82 133.639C287.42 133.639 288.717 134.936 288.717 136.536C288.717 138.136 287.42 139.433 285.82 139.433Z" fill="#E6E6E6"/>
<path d="M271.156 139.433C269.556 139.433 268.259 138.136 268.259 136.536C268.259 134.936 269.556 133.639 271.156 133.639C272.756 133.639 274.053 134.936 274.053 136.536C274.053 138.136 272.756 139.433 271.156 139.433Z" fill="#E6E6E6"/>
<path d="M256.491 139.433C254.891 139.433 253.594 138.136 253.594 136.536C253.594 134.936 254.891 133.639 256.491 133.639C258.091 133.639 259.388 134.936 259.388 136.536C259.388 138.136 258.091 139.433 256.491 139.433Z" fill="#E6E6E6"/>
<path d="M241.826 139.433C240.226 139.433 238.929 138.136 238.929 136.536C238.929 134.936 240.226 133.639 241.826 133.639C243.426 133.639 244.723 134.936 244.723 136.536C244.723 138.136 243.426 139.433 241.826 139.433Z" fill="#E6E6E6"/>
<path d="M227.162 139.433C225.562 139.433 224.265 138.136 224.265 136.536C224.265 134.936 225.562 133.639 227.162 133.639C228.762 133.639 230.059 134.936 230.059 136.536C230.059 138.136 228.762 139.433 227.162 139.433Z" fill="#E6E6E6"/>
<path d="M212.497 139.433C210.897 139.433 209.6 138.136 209.6 136.536C209.6 134.936 210.897 133.639 212.497 133.639C214.097 133.639 215.394 134.936 215.394 136.536C215.394 138.136 214.097 139.433 212.497 139.433Z" fill="#E6E6E6"/>
<path d="M197.832 139.433C196.232 139.433 194.935 138.136 194.935 136.536C194.935 134.936 196.232 133.639 197.832 133.639C199.432 133.639 200.729 134.936 200.729 136.536C200.729 138.136 199.432 139.433 197.832 139.433Z" fill="#E6E6E6"/>
<path d="M162.46 25.891C161.489 25.891 160.557 26.2769 159.87 26.9638C159.183 27.6506 158.797 28.5822 158.797 29.5536V176.059C158.797 176.54 158.892 177.016 159.076 177.461C159.26 177.905 159.53 178.309 159.87 178.649C160.21 178.989 160.614 179.259 161.058 179.443C161.503 179.627 161.979 179.722 162.46 179.722H267.578C268.059 179.722 268.535 179.627 268.98 179.443C269.424 179.259 269.828 178.989 270.168 178.649C270.508 178.309 270.778 177.905 270.962 177.461C271.146 177.016 271.241 176.54 271.241 176.059V29.5536C271.241 28.5822 270.855 27.6506 270.168 26.9637C269.481 26.2769 268.549 25.891 267.578 25.891H162.46" fill="#E6E6E6"/>
<path d="M267.152 175.633H162.887V29.98H267.152V175.633Z" fill="white"/>
<path d="M186.084 53.0238C185.988 53.0238 185.893 53.0427 185.804 53.0795C185.715 53.1164 185.634 53.1703 185.566 53.2383C185.498 53.3064 185.444 53.3871 185.407 53.476C185.371 53.5649 185.352 53.6601 185.352 53.7563V55.2214C185.352 55.4156 185.429 55.602 185.566 55.7393C185.704 55.8767 185.89 55.9539 186.084 55.9539H243.954C244.05 55.9539 244.145 55.935 244.234 55.8981C244.323 55.8613 244.404 55.8074 244.472 55.7393C244.54 55.6713 244.594 55.5906 244.631 55.5017C244.668 55.4128 244.686 55.3176 244.686 55.2214V53.7563C244.686 53.6601 244.668 53.5649 244.631 53.476C244.594 53.3871 244.54 53.3064 244.472 53.2383C244.404 53.1703 244.323 53.1164 244.234 53.0795C244.145 53.0427 244.05 53.0238 243.954 53.0238H186.084" fill="#E6E6E6"/>
<path d="M186.084 59.9828C185.89 59.9828 185.704 60.06 185.566 60.1973C185.429 60.3347 185.352 60.521 185.352 60.7153V62.1804C185.352 62.3747 185.429 62.561 185.566 62.6984C185.704 62.8357 185.89 62.9129 186.084 62.9129H243.954C244.05 62.9129 244.145 62.894 244.234 62.8571C244.323 62.8203 244.404 62.7664 244.472 62.6984C244.54 62.6303 244.594 62.5496 244.631 62.4607C244.668 62.3718 244.686 62.2766 244.686 62.1804V60.7153C244.686 60.6191 244.668 60.5239 244.631 60.435C244.594 60.3461 244.54 60.2654 244.472 60.1973C244.404 60.1293 244.323 60.0753 244.234 60.0385C244.145 60.0017 244.05 59.9828 243.954 59.9828H186.084" fill="#E6E6E6"/>
<path d="M186.084 66.9418C185.89 66.9418 185.704 67.019 185.566 67.1564C185.429 67.2938 185.352 67.4801 185.352 67.6744V69.1394C185.352 69.3337 185.429 69.52 185.566 69.6574C185.704 69.7947 185.89 69.8719 186.084 69.8719H243.954C244.148 69.8719 244.335 69.7947 244.472 69.6574C244.609 69.52 244.686 69.3337 244.686 69.1394V67.6744C244.686 67.4801 244.609 67.2938 244.472 67.1564C244.335 67.019 244.148 66.9418 243.954 66.9418H186.084" fill="#00B0FF"/>
<path d="M186.084 74.0531C185.89 74.0531 185.704 74.1303 185.566 74.2677C185.429 74.4051 185.352 74.5914 185.352 74.7856V76.2507C185.352 76.445 185.429 76.6313 185.566 76.7687C185.704 76.906 185.89 76.9832 186.084 76.9832H243.954C244.05 76.9832 244.145 76.9643 244.234 76.9275C244.323 76.8907 244.404 76.8367 244.472 76.7687C244.54 76.7007 244.594 76.6199 244.631 76.531C244.668 76.4422 244.686 76.3469 244.686 76.2507V74.7856C244.686 74.6895 244.668 74.5942 244.631 74.5053C244.594 74.4165 244.54 74.3357 244.472 74.2677C244.404 74.1997 244.323 74.1457 244.234 74.1089C244.145 74.0721 244.05 74.0531 243.954 74.0531H186.084" fill="#E6E6E6"/>
<path d="M186.084 81.0121C185.89 81.0121 185.704 81.0893 185.566 81.2267C185.429 81.3641 185.352 81.5504 185.352 81.7447V83.2097C185.352 83.3059 185.371 83.4012 185.407 83.4901C185.444 83.5789 185.498 83.6597 185.566 83.7277C185.634 83.7957 185.715 83.8497 185.804 83.8865C185.893 83.9233 185.988 83.9423 186.084 83.9423H243.954C244.05 83.9423 244.145 83.9233 244.234 83.8865C244.323 83.8497 244.404 83.7957 244.472 83.7277C244.54 83.6597 244.594 83.5789 244.631 83.4901C244.668 83.4012 244.686 83.3059 244.686 83.2097V81.7447C244.686 81.6485 244.668 81.5532 244.631 81.4643C244.594 81.3755 244.54 81.2947 244.472 81.2267C244.404 81.1587 244.323 81.1047 244.234 81.0679C244.145 81.0311 244.05 81.0121 243.954 81.0121H186.084" fill="#E6E6E6"/>
<path d="M186.084 87.9711C185.89 87.9711 185.704 88.0483 185.566 88.1857C185.429 88.3231 185.352 88.5094 185.352 88.7037V90.1688C185.352 90.363 185.429 90.5494 185.566 90.6867C185.704 90.8241 185.89 90.9013 186.084 90.9013H243.954C244.148 90.9013 244.335 90.8241 244.472 90.6867C244.609 90.5494 244.686 90.363 244.686 90.1688V88.7037C244.686 88.5094 244.609 88.3231 244.472 88.1857C244.335 88.0483 244.148 87.9711 243.954 87.9711H186.084" fill="#E6E6E6"/>
<path d="M243.584 111.381C243.81 111.381 244.026 111.471 244.185 111.63C244.345 111.79 244.434 112.006 244.435 112.231V151.739C244.434 151.964 244.345 152.18 244.185 152.34C244.026 152.499 243.81 152.589 243.584 152.589H186.552C186.327 152.589 186.111 152.499 185.951 152.34C185.792 152.18 185.702 151.964 185.702 151.739V112.231C185.702 112.006 185.792 111.79 185.951 111.63C186.111 111.471 186.327 111.381 186.552 111.381H243.584Z" fill="#00B0FF"/>
<path d="M214.829 68.5341L215.427 68.375L202.362 19.2278H126.582V19.8473H201.887L214.829 68.5341Z" fill="#3F3D56"/>
<path d="M120.39 26.0392C121.676 26.0392 122.933 25.6579 124.002 24.9435C125.071 24.2291 125.904 23.2137 126.396 22.0257C126.889 20.8377 127.017 19.5304 126.766 18.2692C126.516 17.008 125.896 15.8495 124.987 14.9402C124.078 14.031 122.919 13.4117 121.658 13.1609C120.397 12.91 119.09 13.0388 117.902 13.5309C116.714 14.0229 115.698 14.8563 114.984 15.9255C114.269 16.9947 113.888 18.2517 113.888 19.5376C113.89 21.2613 114.576 22.9139 115.795 24.1328C117.013 25.3517 118.666 26.0373 120.39 26.0392ZM120.39 13.6552C121.553 13.6552 122.69 14.0002 123.658 14.6465C124.625 15.2929 125.379 16.2116 125.824 17.2865C126.27 18.3614 126.386 19.5441 126.159 20.6852C125.932 21.8263 125.372 22.8744 124.549 23.6971C123.727 24.5198 122.678 25.08 121.537 25.307C120.396 25.534 119.214 25.4175 118.139 24.9723C117.064 24.527 116.145 23.7731 115.499 22.8057C114.852 21.8383 114.507 20.701 114.507 19.5376C114.509 17.978 115.129 16.4828 116.232 15.38C117.335 14.2772 118.83 13.6569 120.39 13.6552Z" fill="#3F3D56"/>
<path d="M120.39 22.0144C119.022 22.0144 117.913 20.9055 117.913 19.5376C117.913 18.1697 119.022 17.0608 120.39 17.0608C121.758 17.0608 122.866 18.1697 122.866 19.5376C122.866 20.9055 121.758 22.0144 120.39 22.0144Z" fill="#00B0FF"/>
<path d="M216.854 151.77L216.256 151.93L229.415 201.052L305.196 200.907L305.194 200.288L229.89 200.432L216.854 151.77Z" fill="#3F3D56"/>
<path d="M311.375 194.084C310.089 194.086 308.832 194.47 307.765 195.187C306.697 195.903 305.865 196.92 305.376 198.109C304.886 199.298 304.76 200.605 305.013 201.866C305.266 203.127 305.888 204.284 306.799 205.192C307.71 206.099 308.869 206.716 310.131 206.965C311.393 207.213 312.7 207.082 313.887 206.588C315.074 206.093 316.088 205.258 316.8 204.187C317.512 203.117 317.891 201.859 317.889 200.573C317.883 198.849 317.195 197.198 315.973 195.982C314.752 194.765 313.098 194.083 311.375 194.084ZM311.398 206.468C310.235 206.47 309.097 206.127 308.128 205.483C307.16 204.838 306.404 203.921 305.957 202.847C305.509 201.773 305.391 200.591 305.615 199.449C305.84 198.307 306.398 197.258 307.22 196.434C308.041 195.61 309.088 195.048 310.228 194.818C311.369 194.589 312.552 194.703 313.628 195.147C314.703 195.59 315.624 196.342 316.272 197.308C316.92 198.274 317.267 199.411 317.27 200.574C317.271 202.134 316.653 203.63 315.553 204.735C314.452 205.84 312.958 206.463 311.398 206.468Z" fill="#3F3D56"/>
<path d="M311.387 203.062C310.019 203.062 308.91 201.954 308.91 200.586C308.91 199.218 310.019 198.109 311.387 198.109C312.755 198.109 313.864 199.218 313.864 200.586C313.864 201.954 312.755 203.062 311.387 203.062Z" fill="#00B0FF"/>
<path d="M70.4373 255.371H74.807L74.0268 231.18L62.4778 231.805L70.4373 255.371Z" fill="#FFB8B8"/>
<path d="M69.841 269.273C71.16 269.875 72.2648 264.998 73.3774 266.091C76.4895 269.149 79.705 269.815 83.8589 268.48L83.9551 268.464C84.2058 268.383 84.4375 268.253 84.6362 268.08C84.8349 267.907 84.9964 267.696 85.1111 267.459C85.2257 267.222 85.2911 266.964 85.3031 266.701C85.3152 266.438 85.2738 266.175 85.1813 265.929C85.0707 265.634 84.89 265.37 84.6549 265.16C84.4198 264.95 84.1373 264.801 83.8316 264.725L80.5219 263.897L75.3253 254.758L70.0202 254.4C68.8376 255.907 68.0122 257.664 67.6061 259.537C67.2001 261.409 67.224 263.35 67.6761 265.212C68.1575 267.177 68.9007 268.844 69.841 269.273Z" fill="#2F2E41"/>
<path d="M28.9217 252.173L32.9853 253.78L41.1571 230.999L30.1879 227.331L28.9217 252.173Z" fill="#FFB8B8"/>
<path d="M23.2539 264.882C24.259 265.927 27.0802 261.798 27.7127 263.224C29.4817 267.212 32.2269 269.014 36.5807 269.3L36.6762 269.32C36.9389 269.338 37.2024 269.301 37.4507 269.214C37.699 269.126 37.927 268.989 38.1207 268.811C38.3145 268.633 38.4701 268.417 38.5781 268.177C38.686 267.937 38.7441 267.677 38.7488 267.414C38.7545 267.099 38.6835 266.787 38.542 266.506C38.4006 266.224 38.1928 265.981 37.9367 265.798L35.1633 263.811L33.6923 253.401L28.8909 251.117C27.2366 252.084 25.8231 253.414 24.7567 255.006C23.6903 256.598 22.9989 258.411 22.7343 260.309C22.4593 262.313 22.5373 264.137 23.2539 264.882Z" fill="#2F2E41"/>
<path d="M42.1881 135.366L48.897 137.091C49.4047 137.222 49.9351 137.237 50.4495 137.136C50.9638 137.034 51.4489 136.819 51.8692 136.506C52.2896 136.193 52.6345 135.79 52.8786 135.326C53.1227 134.862 53.2599 134.349 53.28 133.826C53.2986 133.344 53.2177 132.864 53.0426 132.415C52.8674 131.966 52.6017 131.557 52.2619 131.216C51.9221 130.874 51.5156 130.605 51.0677 130.428C50.6198 130.25 50.14 130.166 49.6582 130.181L43.7487 130.372L32.3614 126.225L43.1245 118.199L41.876 106.962L20.9004 123.802C20.5263 124.102 20.2183 124.476 19.9956 124.901C19.7729 125.326 19.6404 125.792 19.6062 126.27C19.5487 127.075 19.772 127.874 20.2378 128.532C20.7037 129.19 21.3834 129.666 22.161 129.879C27.0759 133.89 34.2362 135.119 42.1881 135.366Z" fill="#FFB8B8"/>
<path d="M57.4825 93.2283C51.449 93.2283 46.5579 88.3372 46.5579 82.3037C46.5579 76.2702 51.449 71.379 57.4825 71.379C63.5159 71.379 68.407 76.2702 68.407 82.3037C68.407 88.3372 63.5159 93.2283 57.4825 93.2283Z" fill="#FFB8B8"/>
<path d="M44.0608 97.286L58.731 103.216C58.3003 98.579 59.5158 93.9379 62.1645 90.1069L49.9913 87.2978C50.1496 91.0156 48.1392 94.3389 44.0608 97.286Z" fill="#FFB8B8"/>
<path d="M41.4076 122.725C53.2334 123.671 59.7018 122.101 69.6555 116.326L65.91 107.586C66.098 106.27 65.9195 104.928 65.3941 103.707C64.8687 102.486 64.0169 101.433 62.9321 100.665L59.0431 97.9102L47.182 94.4768L46.65 94.5034C45.0722 94.5823 43.5772 95.2337 42.4453 96.3357C41.3133 97.4377 40.622 98.9147 40.5009 100.49C37.9241 108.19 37.9074 115.634 41.4076 122.725Z" fill="#00B0FF"/>
<path d="M43.7488 140.984L69.0315 138.175L70.9043 130.06C75.0555 123.793 73.2436 118.053 68.4072 112.58C59.5916 118.238 51.4086 120.683 39.6911 118.823C42.8072 126.401 45.6851 133.849 43.7488 140.984Z" fill="#2F2E41"/>
<path d="M24.0843 235.56L44.2167 234.468L50.7715 182.342L56.0777 234.156L79.9557 233.063C72.6719 199 67.6118 166.663 69.0311 136.927L44.0607 139.112C35.5979 148.035 31.3959 162.279 28.9223 179.221C26.4488 196.163 24.4551 215.803 24.0843 235.56Z" fill="#2F2E41"/>
<path d="M45.4562 72.3584C43.3824 72.3584 41.7012 70.6772 41.7012 68.6033C41.7012 66.5294 43.3824 64.8482 45.4562 64.8482C47.5301 64.8482 49.2113 66.5294 49.2113 68.6033C49.2113 70.6772 47.5301 72.3584 45.4562 72.3584Z" fill="#2F2E41"/>
<path d="M49.3253 67.684C49.2636 66.7313 48.8411 65.8379 48.1437 65.1859C47.4463 64.5338 46.5266 64.1721 45.5719 64.1744C45.6494 64.1645 45.7263 64.1525 45.8053 64.1475C46.7992 64.0836 47.7778 64.4171 48.5258 65.0747C49.2738 65.7323 49.7299 66.66 49.7938 67.6539C49.8577 68.6477 49.5241 69.6263 48.8665 70.3742C48.2089 71.1222 47.2811 71.5782 46.2872 71.6421C46.2082 71.6472 46.1304 71.6452 46.0522 71.6454C46.9994 71.5254 47.8652 71.0489 48.4734 70.3129C49.0815 69.5769 49.3862 68.6368 49.3253 67.684Z" fill="#2F2E41"/>
<path d="M49.3465 69.2876C52.6954 66.5094 62.301 70.0403 62.9209 71.9081C67.4496 72.5252 70.8783 75.1674 70.8783 79.8655V79.8655C68.1859 80.9685 65.1237 80.8326 61.8136 79.8655C56.5369 84.1657 56.1752 89.5714 59.3842 95.7803L55.4362 95.8593L50.5426 88.7071L50.3086 95.9619L41.2589 95.7803V85.3838C41.2297 81.927 42.0253 78.5132 43.5798 75.4255C44.99 72.6858 47.1785 71.0861 49.3465 69.2876Z" fill="#2F2E41"/>
<path d="M57.7736 87.6559C56.7818 87.6559 55.9778 86.5304 55.9778 85.142C55.9778 83.7536 56.7818 82.628 57.7736 82.628C58.7654 82.628 59.5694 83.7536 59.5694 85.142C59.5694 86.5304 58.7654 87.6559 57.7736 87.6559Z" fill="#FFB8B8"/>
<path d="M71.5086 181.555C71.3414 181.555 71.181 181.621 71.0627 181.739C70.9445 181.858 70.878 182.018 70.878 182.185V207.408C70.878 207.575 70.9445 207.735 71.0627 207.853C71.181 207.972 71.3414 208.038 71.5086 208.038H89.6057C89.7729 208.038 89.9333 207.972 90.0516 207.853C90.1698 207.735 90.2363 207.575 90.2363 207.408V182.185C90.2363 182.018 90.1698 181.858 90.0516 181.739C89.9333 181.621 89.7729 181.555 89.6057 181.555H71.5086Z" fill="#00B0FF"/>
<path d="M69.0313 172.198L68.4201 182.791C68.3808 183.473 68.4938 184.155 68.7509 184.787C69.008 185.42 69.4029 185.988 69.9067 186.449C70.4105 186.91 71.0107 187.253 71.6637 187.454C72.3167 187.654 73.0061 187.706 73.6819 187.607C76.3731 187.211 76.4343 184.579 75.7745 181.94L73.2609 171.885C67.0946 149.776 65.43 128.075 65.742 106.91C65.7547 106.193 65.6218 105.48 65.3514 104.815C65.081 104.15 64.6787 103.547 64.1687 103.041C63.6588 102.536 63.0517 102.139 62.3842 101.875C61.7168 101.611 61.0027 101.485 60.2851 101.504C59.5851 101.525 58.896 101.683 58.2575 101.971C57.619 102.259 57.0437 102.67 56.5647 103.181C56.0857 103.691 55.7124 104.292 55.4664 104.948C55.2204 105.603 55.1065 106.301 55.1312 107.001C56.0041 131.854 59.6289 154.423 69.0313 172.198Z" fill="#FFB8B8"/>
</g>
<defs>
<clipPath id="clip0">
<rect width="332.929" height="270" fill="white" transform="matrix(-1 0 0 1 332.965 0)"/>
</clipPath>
</defs>
</svg>
