<svg width="371" height="250" viewBox="0 0 371 250" fill="none" xmlns="http://www.w3.org/2000/svg">
<g clip-path="url(#clip0)">
<path d="M113.828 115.917H66.2502V169.118H113.828V115.917Z" fill="#CCCCCC"/>
<path d="M42.0289 249.135H17.8075L15.2123 228.374H44.6241L42.0289 249.135Z" fill="#E6E6E6"/>
<path d="M90.6665 234.097L89.8492 245.271C89.8122 245.777 89.8838 246.285 90.0591 246.761C90.2345 247.237 90.5096 247.67 90.8659 248.03C91.2223 248.391 91.6517 248.672 92.1253 248.853C92.599 249.034 93.1059 249.112 93.6121 249.082L99.3517 248.734C99.6176 248.718 99.8768 248.643 100.111 248.516C100.345 248.388 100.547 248.211 100.705 247.996C100.862 247.781 100.971 247.534 101.022 247.272C101.073 247.011 101.067 246.741 101.002 246.483L97.816 233.74L90.6665 234.097Z" fill="#E6E6E6"/>
<path d="M138.675 240.705C145.43 242.285 150.255 244.531 153.425 247.571C154.554 248.645 156.031 249.278 157.588 249.355C159.576 249.46 161.202 249.237 162.423 248.691H162.423C162.736 248.553 163.007 248.334 163.206 248.056C163.406 247.779 163.528 247.453 163.559 247.112C163.596 246.766 163.54 246.417 163.396 246.1C163.252 245.783 163.026 245.51 162.742 245.31L146.721 233.911L139.916 236.633L138.329 238.221C138.157 238.392 138.027 238.602 137.95 238.832C137.873 239.063 137.85 239.308 137.884 239.549C137.917 239.79 138.006 240.019 138.143 240.22C138.281 240.42 138.463 240.586 138.675 240.705H138.675Z" fill="#E6E6E6"/>
<path d="M117.887 58.2589L72.0938 57.8349C72.209 51.165 73.7608 44.6154 77.1529 38.7545C79.3808 34.9053 79.3326 30.7161 78.7957 27.1869C77.9672 21.7405 79.8939 16.1681 84.1751 12.7011C87.4468 10.0469 91.5761 8.68068 95.7853 8.85965L96.6744 8.8967C99.5708 9.01706 102.391 9.86314 104.875 11.3572C107.359 12.8513 109.428 14.9456 110.892 17.4477C112.38 20.1187 112.98 23.1938 112.605 26.2283C112.315 29.0835 113.009 31.9678 114.634 34.8796C117.437 41.2734 118.044 49.4552 117.887 58.2589Z" fill="#2F2E41"/>
<path d="M148.525 234.505L139.537 236.85L95.7727 141.506L98.508 234.505H89.5206C79.917 190.752 62.5783 140.255 70.3736 124.313L116.873 121.577L148.525 234.505Z" fill="#00B0FF"/>
<path d="M95.3819 42.254C102.072 42.254 107.495 36.8306 107.495 30.1406C107.495 23.4505 102.072 18.0272 95.3819 18.0272C88.6919 18.0272 83.2685 23.4505 83.2685 30.1406C83.2685 36.8306 88.6919 42.254 95.3819 42.254Z" fill="#FFB9B9"/>
<path d="M105.932 52.4136L86.0038 51.2413C87.9568 46.7587 88.737 42.4422 87.9576 38.3464H102.806C102.773 41.4912 104.338 46.931 105.932 52.4136Z" fill="#FFB9B9"/>
<path d="M118.436 125.094L74.6721 128.22L79.1656 50.6553L86.7854 48.506L95.3819 50.4598L103.978 46.1613L109.449 48.1155L118.436 125.094Z" fill="#00B0FF"/>
<path d="M82.0963 180.972L52.2035 174.134C61.0922 144.658 77.1056 77.2258 71.9367 53.1951L87.5668 46.1616L82.0963 180.972Z" fill="#E6E6E6"/>
<path d="M67.6383 95.7874L56.3065 88.7538L65.9705 60.4496C67.0484 57.5289 69.1129 55.0767 71.8072 53.5169L75.0627 51.6321L73.1089 80.1572L67.6383 95.7874Z" fill="#E6E6E6"/>
<path d="M144.422 174.524C134.987 179.983 111.403 183.026 101.048 179.214C100.286 152.582 98.7915 77.2503 103.588 45.38L120.781 52.4136L119.218 73.5144C110.998 91.5649 134.867 154.435 144.422 174.524Z" fill="#E6E6E6"/>
<path d="M143.054 92.2708L132.503 88.7539L118.436 72.7327L120.781 52.4135L144.226 85.237L143.054 92.2708Z" fill="#E6E6E6"/>
<path d="M109.989 107.48C110.162 108.238 110.628 108.896 111.285 109.31C111.942 109.725 112.737 109.862 113.495 109.691L122.451 107.663L121.156 101.947L112.2 103.974C111.442 104.146 110.784 104.612 110.369 105.269C109.954 105.927 109.818 106.722 109.989 107.48Z" fill="#FFB9B9"/>
<path d="M105.932 27.0145C99.204 24.2479 92.5589 24.0477 86.0038 26.6238L83.2685 16.8549H108.277L105.932 27.0145Z" fill="#2F2E41"/>
<path d="M118.046 100.867L123.126 110.245C131.67 107.862 139.075 100.35 146.18 91.4891L144.226 85.237L132.113 88.363L118.046 100.867Z" fill="#E6E6E6"/>
<path d="M114.334 81.5248H112.77C112.77 59.4182 108.219 44.0124 103.783 44.0124L103.392 42.4493C107.37 42.4493 109.906 48.8611 111.333 54.2401C113.268 61.5322 114.334 71.2221 114.334 81.5248Z" fill="#3F3D56"/>
<path d="M78.3841 76.0543H76.821C76.821 55.8081 81.4042 43.2309 88.1529 43.2309L87.7622 44.7939C83.0941 44.7939 78.3841 54.4599 78.3841 76.0543Z" fill="#3F3D56"/>
<path d="M113.552 85.8231C115.71 85.8231 117.46 84.0737 117.46 81.9156C117.46 79.7575 115.71 78.0081 113.552 78.0081C111.394 78.0081 109.644 79.7575 109.644 81.9156C109.644 84.0737 111.394 85.8231 113.552 85.8231Z" fill="#3F3D56"/>
<path d="M72.132 85.4324H70.569C70.569 79.8304 73.7242 75.2728 77.6026 75.2728V76.8358C74.5861 76.8358 72.132 80.6922 72.132 85.4324Z" fill="#3F3D56"/>
<path d="M84.6362 85.4324H83.0732C83.0732 80.6922 80.6191 76.8357 77.6026 76.8357V75.2727C81.481 75.2727 84.6362 79.8303 84.6362 85.4324Z" fill="#3F3D56"/>
<path d="M83.8547 87.3862C84.7179 87.3862 85.4177 86.6864 85.4177 85.8232C85.4177 84.9599 84.7179 84.2601 83.8547 84.2601C82.9914 84.2601 82.2916 84.9599 82.2916 85.8232C82.2916 86.6864 82.9914 87.3862 83.8547 87.3862Z" fill="#3F3D56"/>
<path d="M71.3505 87.3862C72.2137 87.3862 72.9135 86.6864 72.9135 85.8232C72.9135 84.9599 72.2137 84.2601 71.3505 84.2601C70.4873 84.2601 69.7875 84.9599 69.7875 85.8232C69.7875 86.6864 70.4873 87.3862 71.3505 87.3862Z" fill="#3F3D56"/>
<path d="M51.8127 71.4503L61.5648 73.1916L83.8546 104.885L72.0129 102.099L51.8127 71.4503Z" fill="#00B0FF"/>
<path d="M50.083 71.0622C49.9344 71.0644 49.7891 71.1066 49.6624 71.1842C49.5356 71.2618 49.432 71.372 49.3625 71.5033C49.2929 71.6347 49.2599 71.7823 49.2669 71.9308C49.274 72.0792 49.3208 72.223 49.4024 72.3472L70.2378 103.96C70.354 104.136 70.5336 104.262 70.7396 104.31L80.4336 106.591C80.5971 106.629 80.7684 106.617 80.9247 106.556C81.0811 106.495 81.2153 106.388 81.3093 106.249C81.4034 106.11 81.4529 105.945 81.4513 105.777C81.4498 105.609 81.3972 105.446 81.3006 105.309L58.4247 72.7819C58.3627 72.6933 58.2837 72.6177 58.1925 72.5596C58.1013 72.5015 57.9995 72.4619 57.8929 72.4432L50.2393 71.0763C50.1877 71.0671 50.1354 71.0623 50.083 71.0622Z" fill="#3F3D56"/>
<path d="M63.0802 93.6648L63.6592 99.4975L72.7969 98.5905C73.5704 98.5137 74.2817 98.1328 74.7743 97.5316C75.267 96.9304 75.5006 96.1581 75.4238 95.3847C75.3471 94.6112 74.9662 93.8999 74.365 93.4073C73.7638 92.9146 72.9915 92.681 72.2181 92.7577L63.0802 93.6648Z" fill="#FFB9B9"/>
<path d="M55.1344 92.9891C55.1476 94.9779 55.9464 96.8809 57.3566 98.2834C58.7668 99.6858 60.6742 100.474 62.6631 100.476H64.1656L65.2595 91.3606L56.2025 88.1001L55.1344 92.9891Z" fill="#E6E6E6"/>
<path d="M370.316 0H192.115V93.8581H370.316V0Z" fill="#E6E6E6"/>
<path d="M197.306 88.6678H365.126V5.19031H197.306V88.6678Z" fill="white"/>
<path d="M269.97 17.301H210.281V76.9896H269.97V17.301Z" fill="#3F3D56"/>
<path d="M255.697 44.5502C256.652 44.5502 257.427 43.7756 257.427 42.8201C257.427 41.8646 256.652 41.09 255.697 41.09C254.741 41.09 253.966 41.8646 253.966 42.8201C253.966 43.7756 254.741 44.5502 255.697 44.5502Z" fill="#00B0FF"/>
<path d="M249.209 38.4948C250.164 38.4948 250.939 37.7202 250.939 36.7647C250.939 35.8092 250.164 35.0346 249.209 35.0346C248.253 35.0346 247.479 35.8092 247.479 36.7647C247.479 37.7202 248.253 38.4948 249.209 38.4948Z" fill="#00B0FF"/>
<path d="M248.344 42.8201C247.707 42.8202 247.083 42.997 246.541 43.3309C246.064 42.6129 245.502 41.9543 244.869 41.369C244.877 41.2767 244.883 41.1842 244.883 41.09C244.884 40.4111 244.685 39.747 244.31 39.1807C243.936 38.6143 243.403 38.1707 242.778 37.9052C242.153 37.6397 241.464 37.564 240.797 37.6875C240.129 37.8111 239.513 38.1284 239.024 38.6C238.098 38.4685 237.158 38.4603 236.229 38.5756C236.229 38.5485 236.233 38.5221 236.233 38.4948C236.234 37.9156 236.089 37.3456 235.812 36.8368C235.535 36.3281 235.135 35.8969 234.649 35.5829C234.162 35.2689 233.604 35.0821 233.027 35.0396C232.449 34.9971 231.87 35.1003 231.343 35.3396C230.815 35.579 230.356 35.9469 230.008 36.4097C229.66 36.8724 229.433 37.4152 229.349 37.9882C229.265 38.5613 229.326 39.1463 229.527 39.6895C229.728 40.2328 230.061 40.7171 230.498 41.0978C229.919 41.594 229.393 42.1498 228.93 42.756C228.503 42.4005 227.997 42.1532 227.454 42.0349C226.911 41.9166 226.348 41.9308 225.811 42.0762C225.275 42.2217 224.782 42.4942 224.373 42.8706C223.964 43.247 223.652 43.7164 223.463 44.2389C223.274 44.7614 223.214 45.3218 223.287 45.8725C223.361 46.4233 223.566 46.9483 223.885 47.4031C224.204 47.8579 224.628 48.2292 225.121 48.4854C225.614 48.7417 226.162 48.8755 226.717 48.8754L226.728 48.8749C226.723 49.0187 226.717 49.1627 226.717 49.308C226.717 50.1786 226.823 51.046 227.03 51.8914C226.002 52.2784 225.089 52.9203 224.376 53.7569C223.664 54.5935 223.176 55.5973 222.958 56.6742C222.74 57.7511 222.799 58.8658 223.13 59.9136C223.461 60.9614 224.052 61.9079 224.849 62.6644C225.646 63.4209 226.622 63.9626 227.686 64.2385C228.749 64.5145 229.865 64.5157 230.929 64.2421C231.994 63.9684 232.971 63.4289 233.769 62.6741C234.568 61.9193 235.161 60.9741 235.494 59.927C237.901 60.3896 240.394 60.0198 242.563 58.8784C242.784 59.3998 243.13 59.8589 243.571 60.2153C244.011 60.5718 244.532 60.8147 245.088 60.9227C245.644 61.0307 246.218 61.0006 246.76 60.8349C247.302 60.6693 247.795 60.3732 248.195 59.9726C248.596 59.572 248.892 59.0793 249.057 58.5375C249.223 57.9958 249.253 57.4217 249.145 56.8656C249.037 56.3096 248.794 55.7885 248.438 55.3482C248.081 54.9079 247.622 54.5618 247.101 54.3404C247.85 52.9183 248.271 51.3462 248.333 49.74L248.344 49.7405C249.261 49.7405 250.141 49.376 250.79 48.727C251.439 48.0781 251.804 47.198 251.804 46.2803C251.804 45.3626 251.439 44.4825 250.79 43.8336C250.141 43.1846 249.261 42.8201 248.344 42.8201V42.8201Z" fill="#00B0FF"/>
<path d="M247.479 16.0035H230.178V18.5986H247.479V16.0035Z" fill="#E6E6E6"/>
<path d="M346.095 17.301H286.406V76.9896H346.095V17.301Z" fill="#3F3D56"/>
<path d="M327.582 57.7855C328.012 57.7855 328.361 57.4369 328.361 57.0069C328.361 56.577 328.012 56.2284 327.582 56.2284C327.152 56.2284 326.804 56.577 326.804 57.0069C326.804 57.4369 327.152 57.7855 327.582 57.7855Z" fill="#00B0FF"/>
<path d="M324.663 55.0605C325.093 55.0605 325.441 54.712 325.441 54.282C325.441 53.852 325.093 53.5034 324.663 53.5034C324.233 53.5034 323.884 53.852 323.884 54.282C323.884 54.712 324.233 55.0605 324.663 55.0605Z" fill="#00B0FF"/>
<path d="M324.274 57.0069C323.987 57.007 323.706 57.0866 323.462 57.2368C323.248 56.9137 322.995 56.6173 322.71 56.3539C322.713 56.3124 322.716 56.2708 322.716 56.2284C322.717 55.9229 322.627 55.624 322.458 55.3692C322.29 55.1143 322.05 54.9147 321.769 54.7952C321.488 54.6757 321.178 54.6417 320.877 54.6973C320.577 54.7529 320.3 54.8957 320.08 55.1079C319.663 55.0487 319.24 55.045 318.822 55.0969C318.822 55.0847 318.824 55.0728 318.824 55.0606C318.824 54.7999 318.759 54.5434 318.634 54.3145C318.51 54.0855 318.33 53.8915 318.111 53.7502C317.892 53.6089 317.641 53.5249 317.381 53.5057C317.121 53.4866 316.86 53.533 316.623 53.6407C316.386 53.7484 316.179 53.914 316.023 54.1223C315.866 54.3305 315.764 54.5747 315.726 54.8326C315.688 55.0905 315.716 55.3537 315.806 55.5982C315.896 55.8427 316.047 56.0606 316.243 56.2319C315.982 56.4552 315.746 56.7053 315.538 56.9781C315.345 56.8181 315.117 56.7068 314.873 56.6536C314.629 56.6004 314.375 56.6067 314.134 56.6722C313.893 56.7377 313.671 56.8603 313.487 57.0297C313.303 57.1991 313.162 57.4103 313.077 57.6454C312.992 57.8805 312.965 58.1327 312.998 58.3805C313.031 58.6284 313.124 58.8646 313.267 59.0693C313.411 59.2739 313.602 59.441 313.824 59.5563C314.045 59.6717 314.292 59.7319 314.542 59.7318L314.547 59.7316C314.544 59.7963 314.542 59.8611 314.542 59.9265C314.542 60.3183 314.589 60.7086 314.683 61.089C314.22 61.2632 313.809 61.552 313.488 61.9285C313.168 62.305 312.948 62.7567 312.85 63.2413C312.752 63.7259 312.779 64.2275 312.927 64.699C313.076 65.1705 313.342 65.5965 313.701 65.9369C314.06 66.2773 314.499 66.521 314.977 66.6452C315.456 66.7694 315.958 66.7699 316.437 66.6468C316.916 66.5237 317.356 66.2809 317.715 65.9412C318.074 65.6016 318.342 65.1762 318.491 64.705C319.574 64.9132 320.696 64.7468 321.672 64.2332C321.772 64.4678 321.928 64.6744 322.126 64.8348C322.324 64.9952 322.558 65.1045 322.809 65.1531C323.059 65.2017 323.317 65.1881 323.561 65.1136C323.805 65.0391 324.026 64.9058 324.207 64.7256C324.387 64.5453 324.52 64.3236 324.595 64.0798C324.669 63.836 324.683 63.5777 324.634 63.3274C324.586 63.0772 324.476 62.8427 324.316 62.6446C324.156 62.4464 323.949 62.2907 323.714 62.1911C324.052 61.5511 324.241 60.8437 324.269 60.1209L324.274 60.1211C324.686 60.1211 325.083 59.9571 325.375 59.6651C325.667 59.3731 325.831 58.977 325.831 58.564C325.831 58.1511 325.667 57.755 325.375 57.463C325.083 57.171 324.686 57.0069 324.274 57.0069V57.0069Z" fill="#00B0FF"/>
<path d="M333.69 43.0111C334.12 43.0111 334.469 42.6626 334.469 42.2326C334.469 41.8026 334.12 41.454 333.69 41.454C333.261 41.454 332.912 41.8026 332.912 42.2326C332.912 42.6626 333.261 43.0111 333.69 43.0111Z" fill="#00B0FF"/>
<path d="M335.522 39.4622C335.952 39.4622 336.3 39.1137 336.3 38.6837C336.3 38.2537 335.952 37.9052 335.522 37.9052C335.092 37.9052 334.743 38.2537 334.743 38.6837C334.743 39.1137 335.092 39.4622 335.522 39.4622Z" fill="#00B0FF"/>
<path d="M332.794 39.0477C332.716 38.7719 332.563 38.5232 332.352 38.3291C332.605 38.0348 332.822 37.7114 332.998 37.3658C333.039 37.3577 333.08 37.3493 333.121 37.3378C333.415 37.2552 333.678 37.0879 333.878 36.8566C334.078 36.6253 334.205 36.3404 334.244 36.0374C334.282 35.7344 334.231 35.4266 334.096 35.1525C333.961 34.8784 333.748 34.6501 333.485 34.4961C333.429 34.0787 333.317 33.6706 333.154 33.2823C333.166 33.2793 333.178 33.2776 333.19 33.2743C333.441 33.2039 333.67 33.0717 333.857 32.8898C334.043 32.7078 334.181 32.4819 334.258 32.2328C334.334 31.9837 334.347 31.7194 334.295 31.464C334.243 31.2086 334.128 30.9704 333.96 30.7711C333.792 30.5719 333.576 30.418 333.334 30.3236C333.091 30.2292 332.828 30.1973 332.569 30.2308C332.311 30.2642 332.065 30.3621 331.854 30.5153C331.643 30.6685 331.474 30.8722 331.363 31.1077C331.077 30.9173 330.772 30.7575 330.453 30.6309C330.555 30.4025 330.6 30.153 330.585 29.9034C330.57 29.6538 330.496 29.4115 330.367 29.197C330.239 28.9825 330.061 28.802 329.848 28.6709C329.635 28.5398 329.393 28.4619 329.144 28.4438C328.895 28.4257 328.644 28.4679 328.415 28.5669C328.185 28.6659 327.983 28.8187 327.825 29.0124C327.667 29.2061 327.558 29.4351 327.507 29.6799C327.456 29.9247 327.465 30.1782 327.533 30.4188L327.534 30.4235C327.471 30.4386 327.408 30.4539 327.345 30.4716C326.968 30.5779 326.605 30.7292 326.264 30.9223C325.971 30.5241 325.582 30.2068 325.133 30.0003C324.683 29.7938 324.189 29.7049 323.696 29.7418C323.203 29.7787 322.727 29.9403 322.314 30.2114C321.9 30.4825 321.562 30.8542 321.332 31.2916C321.101 31.7291 320.986 32.2179 320.996 32.7122C321.006 33.2066 321.142 33.6902 321.39 34.1178C321.639 34.5453 321.992 34.9028 322.416 35.1566C322.84 35.4104 323.322 35.5522 323.816 35.5687C323.909 36.6677 324.374 37.7023 325.133 38.5025C324.934 38.6621 324.777 38.868 324.677 39.1022C324.576 39.3364 324.534 39.5917 324.555 39.8457C324.576 40.0998 324.659 40.3448 324.797 40.5592C324.935 40.7737 325.123 40.951 325.346 41.0756C325.568 41.2003 325.818 41.2684 326.073 41.2741C326.327 41.2798 326.58 41.2228 326.807 41.1081C327.035 40.9935 327.231 40.8247 327.378 40.6167C327.526 40.4086 327.62 40.1675 327.652 39.9146C328.359 40.0657 329.092 40.0563 329.795 39.887L329.796 39.8918C329.851 40.0888 329.945 40.2729 330.071 40.4337C330.198 40.5945 330.355 40.7287 330.533 40.8288C330.712 40.9289 330.908 40.9929 331.111 41.017C331.314 41.0412 331.52 41.0251 331.717 40.9696C331.914 40.9142 332.098 40.8205 332.259 40.6938C332.419 40.5672 332.554 40.4102 332.654 40.2317C332.754 40.0532 332.817 39.8567 332.841 39.6536C332.865 39.4504 332.849 39.2445 332.794 39.0476V39.0477Z" fill="#00B0FF"/>
<path d="M303.536 32.4314C303.966 32.4314 304.315 32.0828 304.315 31.6529C304.315 31.2229 303.966 30.8743 303.536 30.8743C303.106 30.8743 302.758 31.2229 302.758 31.6529C302.758 32.0828 303.106 32.4314 303.536 32.4314Z" fill="#00B0FF"/>
<path d="M299.555 32.7504C299.985 32.7504 300.334 32.4018 300.334 31.9718C300.334 31.5419 299.985 31.1933 299.555 31.1933C299.125 31.1933 298.777 31.5419 298.777 31.9718C298.777 32.4018 299.125 32.7504 299.555 32.7504Z" fill="#00B0FF"/>
<path d="M301.305 34.0965C301.112 34.3081 300.982 34.5692 300.928 34.8506C300.545 34.7914 300.156 34.7781 299.769 34.8109C299.741 34.7804 299.712 34.7501 299.68 34.7216C299.455 34.5154 299.174 34.3802 298.872 34.3328C298.57 34.2854 298.261 34.3279 297.983 34.455C297.705 34.582 297.471 34.7881 297.31 35.0475C297.148 35.3068 297.067 35.608 297.075 35.9133C296.75 36.1814 296.463 36.4913 296.219 36.8349C296.21 36.8265 296.203 36.8173 296.193 36.809C296.001 36.6331 295.768 36.5082 295.515 36.4458C295.262 36.3835 294.997 36.3856 294.745 36.4521C294.493 36.5185 294.262 36.6472 294.072 36.8263C293.883 37.0053 293.742 37.2291 293.661 37.477C293.581 37.7249 293.564 37.989 293.612 38.2451C293.66 38.5013 293.772 38.7413 293.937 38.9431C294.101 39.1449 294.314 39.302 294.556 39.4002C294.797 39.4983 295.06 39.5343 295.318 39.5047C295.308 39.8478 295.333 40.1911 295.394 40.5288C295.146 40.5629 294.91 40.6562 294.706 40.8007C294.502 40.9452 294.336 41.1368 294.222 41.3591C294.107 41.5815 294.048 41.8281 294.049 42.0781C294.05 42.3282 294.112 42.5743 294.228 42.7956C294.344 43.0169 294.512 43.207 294.718 43.3497C294.923 43.4924 295.16 43.5836 295.408 43.6155C295.656 43.6474 295.908 43.6191 296.142 43.533C296.377 43.4469 296.588 43.3056 296.756 43.1209L296.759 43.1171C296.805 43.1626 296.852 43.2081 296.9 43.2521C297.189 43.5162 297.509 43.7445 297.854 43.932C297.67 44.3911 297.606 44.8894 297.668 45.3799C297.73 45.8705 297.916 46.3372 298.207 46.7364C298.499 47.1356 298.888 47.4542 299.336 47.6621C299.785 47.8701 300.279 47.9607 300.772 47.9254C301.265 47.8901 301.741 47.7301 302.156 47.4604C302.57 47.1906 302.909 46.8201 303.141 46.3834C303.373 45.9467 303.49 45.4583 303.482 44.9639C303.473 44.4695 303.339 43.9855 303.092 43.5571C303.976 42.8975 304.609 41.957 304.888 40.8898C305.129 40.9744 305.386 40.9987 305.638 40.9605C305.89 40.9223 306.129 40.8229 306.334 40.6708C306.538 40.5188 306.702 40.3189 306.812 40.0886C306.921 39.8583 306.972 39.6047 306.961 39.35C306.949 39.0954 306.875 38.8474 306.745 38.628C306.616 38.4086 306.434 38.2244 306.216 38.0916C305.999 37.9588 305.752 37.8814 305.497 37.8663C305.243 37.8512 304.989 37.8987 304.757 38.0048C304.512 37.3243 304.117 36.7075 303.602 36.1997L303.605 36.1962C303.743 36.0453 303.851 35.8685 303.92 35.6762C303.99 35.4838 304.021 35.2795 304.012 35.0751C304.003 34.8706 303.954 34.6699 303.867 34.4846C303.78 34.2992 303.658 34.1328 303.507 33.9948C303.355 33.8568 303.179 33.75 302.986 33.6804C302.794 33.6108 302.589 33.5799 302.385 33.5893C302.18 33.5988 301.98 33.6484 301.795 33.7355C301.609 33.8225 301.443 33.9452 301.305 34.0965Z" fill="#00B0FF"/>
<path d="M323.603 16.0035H306.302V18.5986H323.603V16.0035Z" fill="#E6E6E6"/>
<path d="M11.5875 220.693C17.8244 229.046 30.7709 229.925 30.7709 229.925C30.7709 229.925 33.6055 217.262 27.3686 208.909C21.1317 200.557 8.18521 199.678 8.18521 199.678C8.18521 199.678 5.35064 212.341 11.5875 220.693Z" fill="#E6E6E6"/>
<path d="M43.3595 223.833C39.2439 229.345 30.7009 229.925 30.7009 229.925C30.7009 229.925 28.8305 221.569 32.946 216.058C37.0615 210.546 45.6045 209.966 45.6045 209.966C45.6045 209.966 47.475 218.322 43.3595 223.833Z" fill="#E6E6E6"/>
<path d="M225.42 248.986H0.69809V249.955H225.42V248.986Z" fill="#D3D3D3"/>
</g>
<defs>
<clipPath id="clip0">
<rect width="370.242" height="250" fill="white" transform="translate(0.378906)"/>
</clipPath>
</defs>
</svg>
