<svg width="405" height="300" viewBox="0 0 405 300" fill="none" xmlns="http://www.w3.org/2000/svg">
<g clip-path="url(#clip0)">
<path d="M372.569 72.924C326.73 9.13787 229.899 -16.7365 134.668 11.1308C84.3227 25.8634 35.7803 55.3825 11.7239 112.541C-31.2796 214.717 59.0116 247.35 118.052 257.751C146.601 262.78 173.489 271.228 198.06 282.729C242.265 303.422 320.51 321.757 379.513 235.564C422.278 173.09 403.101 115.412 372.569 72.924Z" fill="#F2F2F2" fill-opacity="0.5"/>
<path d="M106.813 85.5438C106.685 84.53 106.425 83.5372 106.042 82.5902C105.993 82.4112 105.907 82.2443 105.79 82.1001C105.673 81.956 105.527 81.8378 105.362 81.7531C105.141 81.6957 104.91 81.6931 104.687 81.7456L101.225 82.2754C100.935 82.2886 100.658 82.3964 100.435 82.5823C99.9841 83.0566 100.428 83.8203 100.414 84.4746C100.399 85.2103 99.7451 85.8076 99.0362 86.0051C98.3126 86.1514 97.5661 86.1421 96.8464 85.978L92.0048 85.2256C93.4307 84.7704 94.6999 83.9234 95.6675 82.7814C96.3046 82.0267 96.6436 80.6175 95.7228 80.2601C95.4492 80.185 95.1639 80.1621 94.8819 80.1926C92.6883 80.2096 90.9622 78.3782 88.9086 77.6068C87.5943 77.145 86.1677 77.1107 84.8326 77.5086C83.4976 77.9066 82.3226 78.7165 81.4757 79.8226L84.0548 79.947C84.2975 79.9336 84.5381 79.9977 84.7418 80.1302C85.3071 80.5946 84.6043 81.4866 84.684 82.2138C84.7874 83.1586 86.0419 83.3603 86.9875 83.4558C87.9332 83.5514 89.1328 84.3197 88.6779 85.1542C83.9251 86.7913 79.0885 81.954 74.097 82.5495C72.8337 82.7002 71.6408 83.1965 70.4074 83.5086C62.8728 85.4149 55.0834 80.3286 47.3864 81.4058C45.6753 81.6975 43.9935 82.141 42.3611 82.7311C41.3135 83.0751 40.2208 83.4468 39.4597 84.2445C38.6985 85.0422 38.4088 86.4064 39.1299 87.2406C37.1424 87.4042 35.1416 87.2141 33.2206 86.6789C33.7401 86.9676 34.1723 87.3909 34.4717 87.9043C34.7712 88.4177 34.927 89.0022 34.9227 89.5966C31.8194 90.1026 28.7984 91.0238 25.9408 92.3353C26.4741 93.2222 27.097 94.052 27.7998 94.8118L23.8712 97.3357C25.1985 97.6701 25.8847 99.4799 25.1128 100.61C26.4891 99.998 27.342 98.4142 28.8136 98.0931C29.7778 97.8827 30.7588 98.2771 31.6734 98.6476C32.588 99.0181 33.5933 99.3774 34.5401 99.0993C35.4869 98.8213 36.1853 97.5936 35.5837 96.8114C39.6306 95.6306 43.8131 94.9771 48.0274 94.8672C48.3525 94.8264 48.6822 94.889 48.9698 95.0461C49.5184 95.4267 49.3741 96.2487 49.3445 96.9158C49.315 97.5828 49.8348 98.4595 50.431 98.1588C49.7296 98.767 50.3292 99.912 51.0021 100.552C51.6751 101.191 52.4861 102.074 52.0741 102.906C51.9666 103.123 51.7842 103.297 51.6808 103.516C51.3754 104.162 51.8603 104.916 52.4322 105.346C53.0041 105.775 53.7046 106.075 54.1018 106.67C54.4991 107.265 54.3187 108.306 53.6083 108.389L51.5892 105.825C50.8994 106.541 50.4264 107.437 50.2252 108.41C52.3663 110.16 52.6884 113.723 50.8959 115.829C49.9799 116.905 48.6772 117.559 47.5403 118.398C46.4034 119.238 45.3513 120.433 45.3542 121.846C45.3591 124.288 45.1596 126.556 46.0745 128.82C47.7617 132.994 49.7095 137.058 51.9065 140.987C52.4834 142.019 53.2291 143.15 54.3979 143.328C52.9208 139.732 51.5911 136.08 50.4088 132.372C51.1789 132.375 52.0687 132.436 52.5201 133.06C52.8939 133.577 52.8136 134.279 52.9298 134.906C53.0775 135.513 53.3239 136.093 53.659 136.62L60.7126 149.185C61.2973 150.227 61.9681 151.345 63.0856 151.766C63.8001 152.036 64.6268 151.985 65.2844 152.374C65.7999 152.678 66.1471 153.218 66.6726 153.505C68.1584 154.315 70.2247 152.761 71.6133 153.729C72.0103 154.005 72.2629 154.445 72.6288 154.762C73.9112 155.872 76.0151 155.129 77.4955 155.958C78.4497 156.492 78.9442 157.56 79.4531 158.527C80.7279 160.951 82.7906 163.326 85.5226 163.519C86.3808 163.58 87.2574 163.417 88.0963 163.608C88.9352 163.799 89.7609 164.531 89.6263 165.381C89.3954 166.838 90.1152 168.433 89.9219 169.895C89.5698 172.558 85.7919 173.729 85.4674 176.396C85.3963 176.98 85.5075 177.582 85.3685 178.154C85.1981 178.854 84.672 179.425 84.485 180.121C84.1308 181.441 85.0761 182.754 86.1147 183.642C87.1532 184.529 88.392 185.295 88.9598 186.537C89.5599 187.851 89.2651 189.383 89.4603 190.813C89.8864 193.937 92.5844 196.253 95.3611 197.746C96.207 198.201 97.1154 198.641 97.6629 199.43C98.3776 200.46 98.3064 201.818 98.5451 203.049C99.1295 206.063 101.667 208.547 101.739 211.617C101.79 213.798 100.577 215.778 99.853 217.836C99.1738 219.809 98.9281 221.904 99.1325 223.98C99.3369 226.056 99.9866 228.064 101.037 229.866C101.579 230.781 102.228 231.643 102.611 232.636C103.295 234.406 103.073 236.418 103.704 238.208C104.538 240.575 106.829 242.53 106.61 245.029C107.65 247.19 109.948 248.251 112.258 248.894L116.398 250.047C117.191 250.267 118.019 250.49 118.826 250.33C119.633 250.17 120.404 249.5 120.383 248.677C118.353 248.219 116.257 247.733 114.584 246.495C112.91 245.258 111.764 243.055 112.399 241.073C112.693 240.154 113.319 239.093 112.724 238.333C112.383 237.899 111.759 237.785 111.375 237.388C110.775 236.769 110.981 235.73 111.412 234.984C111.844 234.238 112.467 233.571 112.641 232.727C112.729 232.255 112.67 231.767 112.473 231.329C112.275 230.891 111.949 230.524 111.537 230.277C112.305 229.987 113.003 229.539 113.586 228.962C114.125 228.346 114.374 227.398 113.95 226.698C115.209 226.858 116.695 226.936 117.522 225.973C118.182 225.204 118.136 224.054 117.875 223.075C117.615 222.096 117.174 221.145 117.16 220.132C120.064 220.269 122.975 220.17 125.863 219.836C125.445 218.43 124.496 217.241 123.217 216.523C124.525 216.302 125.716 214.736 126.13 213.475C126.543 212.214 126.438 210.841 126.182 209.54C126.084 209.204 126.071 208.85 126.143 208.509C126.29 208.039 126.751 207.753 127.178 207.508L133.67 203.779C134.058 203.585 134.409 203.326 134.709 203.013C135.389 202.214 135.288 201.008 134.94 200.018C134.591 199.028 134.034 198.097 133.899 197.057C133.498 193.944 136.83 191.711 137.954 188.781C138.396 187.631 138.486 186.382 138.571 185.153C138.663 183.833 138.669 182.301 137.656 181.45C136.685 180.635 135.168 180.817 134.151 180.059C133.22 179.364 132.898 178.014 131.88 177.452C130.956 176.942 129.797 177.267 128.769 177.027C126.959 176.605 125.819 174.518 123.971 174.325C122.928 174.216 121.747 174.726 120.892 174.119C120.139 173.583 120.109 172.507 119.965 171.595C119.714 170.176 119.034 168.868 118.017 167.848C117 166.827 115.694 166.143 114.276 165.887C113.201 165.714 112.03 165.78 111.115 165.189C110.189 164.59 109.764 163.47 109.036 162.641C107.863 161.306 106.016 160.831 104.286 160.424L97.2472 158.77C95.9977 158.476 94.3871 158.32 93.7166 159.415C93.5182 159.831 93.3776 160.273 93.299 160.728C93.0478 161.551 92.5422 162.273 91.8548 162.79C91.1675 163.307 90.3339 163.593 89.4737 163.607C88.8838 162.601 87.9282 161.862 86.8061 161.543C86.0924 161.344 85.3285 161.322 84.6478 161.03C84.2771 160.849 83.9472 160.594 83.6783 160.281C83.4094 159.968 83.2072 159.604 83.0841 159.21C82.9609 158.816 82.9194 158.402 82.9621 157.991C83.0048 157.581 83.1307 157.184 83.3322 156.824C83.7381 156.101 83.8948 155.265 83.7782 154.445C83.6617 153.624 83.2783 152.865 82.6874 152.284C81.4904 151.21 79.7589 150.95 78.1539 151.058C77.7336 150.14 78.4364 149.106 79.1938 148.439C79.9512 147.772 80.8709 147.117 81.0359 146.122C81.2953 144.556 79.2976 143.367 77.7807 143.834C76.2639 144.301 75.2957 145.774 74.6557 147.226C74.2885 148.059 73.9764 148.937 73.3972 149.64C72.818 150.342 71.8852 150.845 71.003 150.62C69.754 150.301 69.2716 148.817 68.9952 147.558C68.6243 145.868 68.2513 144.155 68.329 142.427C68.4067 140.7 68.9892 138.925 70.2633 137.756C72.3395 135.85 75.5246 136.036 78.3267 136.34C77.6647 135.595 77.8283 134.338 78.5366 133.636C78.9105 133.303 79.3598 133.067 79.8455 132.948C80.3313 132.829 80.8388 132.83 81.3241 132.951C82.1684 133.126 82.9291 133.581 83.4835 134.242C84.2798 135.213 84.5062 136.523 85.1081 137.625C85.7099 138.727 87.0633 139.667 88.171 139.076C89.1278 138.565 89.2796 137.239 89.0415 136.181C88.8034 135.123 88.2976 134.094 88.3839 133.013C88.5485 130.95 90.6868 129.708 92.5737 128.859C94.4606 128.009 96.6213 126.867 96.9202 124.819C96.9305 124.418 97.0061 124.021 97.1442 123.645C97.3534 123.312 97.6442 123.039 97.989 122.85C103.496 119.211 109.095 115.527 115.389 113.539C115.717 113.435 115.755 113.55 116.089 113.469C116.556 113.199 116.246 112.452 115.798 112.151C115.351 111.851 114.752 111.62 114.639 111.093C114.555 110.705 114.783 110.324 114.843 109.932C114.989 108.969 113.836 108.079 112.941 108.464C112.435 107.795 113.436 107.017 114.245 106.794C116.674 106.125 119.167 105.718 121.683 105.579C121.973 105.533 122.271 105.583 122.529 105.723C122.952 106.015 122.898 106.687 122.598 107.104C122.299 107.522 121.833 107.784 121.46 108.138C121.052 108.535 120.762 109.037 120.619 109.588C120.477 110.139 120.489 110.718 120.654 111.263C121.967 111.931 123.395 112.619 124.85 112.384C126.304 112.148 127.595 110.514 126.911 109.209C126.275 107.993 124.362 107.719 124.034 106.387C123.648 104.827 125.856 103.44 125.359 101.913C125.141 101.244 124.474 100.85 123.963 100.367C123.358 99.7745 122.947 99.0133 122.783 98.1831C122.62 97.3529 122.711 96.4927 123.045 95.7152C122.211 95.8618 121.355 95.8064 120.547 95.5537C119.739 95.301 119.004 94.8582 118.403 94.2627C117.293 93.1422 116.407 91.3747 114.83 91.4249C113.384 91.4708 112.138 93.1587 110.785 92.6438C110.452 92.5171 110.101 92.2592 109.779 92.4103C109.673 92.4789 109.584 92.5707 109.519 92.6786C109.454 92.7865 109.415 92.9078 109.403 93.0333C109.06 94.6769 109.651 96.5496 108.755 97.9699C107.78 99.5154 105.526 99.7297 104.344 101.123C103.702 101.88 103.454 102.899 102.864 103.697C102.274 104.495 101.023 105.002 100.315 104.307C100.663 103.592 100.758 102.78 100.585 102.004C100.411 101.228 99.9799 100.534 99.3609 100.035C98.7039 99.6063 97.9958 99.2618 97.253 99.0096C96.423 98.6582 95.6334 98.2182 94.898 97.6971C94.5296 97.4749 94.2303 97.1546 94.0335 96.772C93.8778 96.293 93.8988 95.7741 94.0926 95.3092C94.4514 94.2805 95.0845 93.3692 95.9233 92.674C96.7622 91.9787 97.775 91.5257 98.8525 91.364C99.7947 91.2358 100.891 91.281 101.515 90.5631C101.845 90.1833 102.018 89.609 102.497 89.4547C102.803 89.3932 103.121 89.4323 103.403 89.5664L106.92 90.8042C107.312 90.9813 107.744 91.0527 108.173 91.0114C108.385 90.9828 108.579 90.8748 108.715 90.7093C108.851 90.5437 108.92 90.3328 108.907 90.1188C108.795 89.5348 107.896 89.2545 107.978 88.6655C108.024 88.4746 108.126 88.3021 108.272 88.1707C109.541 86.8199 111.093 85.7664 112.817 85.0856C114.541 84.4048 116.394 84.1136 118.244 84.2329C118.688 84.9619 117.986 85.8251 117.402 86.4474C116.818 87.0698 116.348 88.1817 117.055 88.6607C117.344 88.8085 117.666 88.881 117.991 88.8716C118.857 88.9888 119.698 89.244 120.483 89.6276C121.699 90.1564 122.89 90.735 124.059 91.3634C123.956 90.593 123.857 89.7812 124.149 89.0608C124.441 88.3404 125.271 87.7753 125.996 88.0559C126.695 88.3263 127.053 89.2514 127.798 89.3362C128.791 89.4492 129.182 87.9823 128.768 87.0731C128.353 86.1638 127.532 85.4025 127.463 84.4055C127.417 83.7328 127.673 82.8986 127.136 82.4913C126.945 82.3691 126.728 82.293 126.502 82.2691L113.086 79.8004C112.29 79.6538 111.139 79.7661 111.103 80.5754C111.084 81.0271 111.487 81.474 111.308 81.8893C111.118 82.3326 110.491 82.292 110.035 82.4488C109.327 82.6921 108.971 83.5329 109.039 84.2786C109.164 85.0196 109.451 85.7237 109.88 86.3407C109.007 85.9758 107.686 85.9087 106.813 85.5438Z" fill="#3F3D56"/>
<path d="M96.1088 74.1556C95.2628 73.8757 94.3512 73.8626 93.4976 74.1183C92.644 74.3739 91.8896 74.8859 91.3368 75.5848C91.1159 75.8756 90.9304 76.2766 91.1153 76.5915C91.3804 77.043 92.056 76.8647 92.554 76.7032C93.2861 76.4416 94.0829 76.4226 94.8266 76.6489C95.2943 76.8095 95.7127 77.0933 96.1824 77.2478C96.4111 77.3434 96.6614 77.375 96.9067 77.3392C97.1519 77.3034 97.3828 77.2014 97.5745 77.0444C97.8969 76.7156 97.9171 76.2044 97.9177 75.744C97.94 75.5899 97.9277 75.4328 97.8816 75.2841C97.8355 75.1354 97.7568 74.9988 97.6512 74.8844C97.4632 74.7755 97.2519 74.713 97.0349 74.7021C96.5489 74.6122 96.1095 74.3554 95.7925 73.9762" fill="#3F3D56"/>
<path d="M100.946 72.8088C100.757 72.7985 100.568 72.837 100.398 72.9208C100.228 73.0045 100.082 73.1306 99.9748 73.2869C99.8676 73.4433 99.8023 73.6246 99.7853 73.8134C99.7684 74.0022 99.8003 74.1923 99.878 74.3652C100.459 74.5238 101.067 74.5634 101.664 74.4816C101.962 74.4354 102.239 74.3021 102.461 74.0984C102.683 73.8947 102.84 73.6298 102.912 73.3372C102.209 73.4651 101.484 73.3265 100.877 72.9486" fill="#3F3D56"/>
<path d="M117.176 70.5594C115.594 70.8958 114.056 71.418 112.596 72.1151C113.285 72.3797 113.87 72.8583 114.265 73.4805C114.661 74.1027 114.846 74.8356 114.794 75.5711C114.732 75.8535 114.739 76.1465 114.815 76.4256C114.983 76.8333 115.47 76.9863 115.899 77.091C116.669 77.3253 117.473 77.4279 118.277 77.3945C118.679 77.3734 119.069 77.2524 119.413 77.0424C119.757 76.8324 120.043 76.5401 120.245 76.1918C120.361 75.8612 120.498 75.5381 120.654 75.2243C121.681 73.6601 124.732 75.5514 125.835 74.0396C126.223 73.5071 126.188 72.7054 126.694 72.2834C126.956 72.0996 127.26 71.9837 127.578 71.9463C129.795 71.5057 132.035 71.1867 134.288 70.9906C135.355 70.8978 136.746 70.5146 136.755 69.4433C132.735 68.6539 128.567 69.2146 124.899 71.0383C123.577 71.7003 121.829 73.0928 120.556 72.2152C120.079 71.8866 120.103 71.0017 119.447 70.6322C118.776 70.2545 117.888 70.4081 117.176 70.5594Z" fill="#3F3D56"/>
<path d="M130.322 73.0178L132.209 73.3804C131.862 73.365 131.515 73.4239 131.192 73.5531C130.87 73.6823 130.578 73.8788 130.337 74.1296C130.096 74.3804 129.912 74.6796 129.796 75.0074C129.68 75.3351 129.635 75.6839 129.665 76.0303C131.432 76.6206 133.358 76.0462 135.22 76.1247C137.081 76.2031 139.247 77.5328 138.929 79.3686C138.833 79.9236 138.512 80.4783 138.679 81.0164C138.796 81.3936 139.129 81.6612 139.316 82.0085C139.707 82.7323 139.395 83.6478 138.901 84.3058C138.407 84.9638 137.743 85.4888 137.309 86.188C136.231 87.9271 136.844 90.1754 137.486 92.1183C137.672 92.8524 138.015 93.5374 138.491 94.1259C139.443 95.1379 140.994 95.2259 142.383 95.2462C143.394 95.2609 144.552 95.211 145.192 94.4276C146.026 93.405 145.443 91.8094 145.992 90.6091C146.491 89.519 147.763 89.0514 148.915 88.7197C151.026 88.1121 153.177 87.5955 155.172 86.6776C157.65 85.5379 159.966 83.7618 162.689 83.6151C163.453 83.574 164.236 83.6642 164.972 83.4548C165.708 83.2455 166.407 82.6092 166.352 81.8461C166.304 81.194 165.752 80.7152 165.321 80.2237C164.89 79.7322 164.552 78.9763 164.948 78.4563L172.086 77.123C171.58 75.744 171.186 73.9278 172.349 73.0302C172.768 72.7063 173.33 72.5769 173.687 72.1854C174.296 71.5181 173.99 70.3686 173.287 69.801C172.584 69.2335 171.634 69.1018 170.734 69.027C167.604 68.7671 164.456 68.9388 161.32 69.1107C155.189 69.4468 149.059 69.7828 142.929 70.1188C141.695 70.1865 140.27 70.0831 139.138 70.5042C138.18 70.8606 137.498 71.5149 136.402 71.7448C134.379 72.1692 132.153 71.882 130.322 73.0178Z" fill="#3F3D56"/>
<path d="M164.127 87.9331C163.935 87.9027 163.738 87.9473 163.578 88.0577C163.472 88.1744 163.409 88.3238 163.399 88.4812C163.277 89.1759 163.422 89.8909 163.805 90.4831C164 90.7737 164.27 91.0067 164.585 91.158C164.901 91.3093 165.251 91.3733 165.6 91.3435C166.449 91.2351 167.075 90.5103 167.857 90.1565C169.061 89.6119 174.173 88.7628 170.637 86.852C169.418 86.1935 168.63 86.7748 167.669 87.2085C166.576 87.7676 165.352 88.0181 164.127 87.9331Z" fill="#3F3D56"/>
<path d="M195.105 71.9391C194.692 72.1079 194.347 72.4086 194.123 72.7944C194.019 72.9903 193.995 73.2184 194.056 73.4314C194.116 73.6445 194.256 73.8263 194.446 73.9391C194.6 73.995 194.764 74.021 194.928 74.0155L196.607 74.0657C197.321 74.087 198.212 74.239 198.403 74.9264C198.546 75.4369 198.227 76.0928 198.612 76.4576C198.776 76.5854 198.975 76.6627 199.183 76.6804C199.736 76.8225 200.314 76.8411 200.875 76.735C202.097 76.4073 201.455 75.6616 201.839 74.9976C202.428 73.9816 202.326 74.5966 203.364 74.0144C204.13 73.5843 205.12 72.8043 204.48 71.7083C203.368 69.8024 196.746 71.1204 195.105 71.9391Z" fill="#3F3D56"/>
<path d="M228.249 70.9809L227.274 71.1111C225.075 71.4045 222.864 71.7006 220.746 72.3609C221.663 72.7233 222.624 72.9593 223.605 73.0624C224.145 73.0889 224.681 73.1651 225.206 73.29C226.142 73.5685 227.084 74.2876 227.988 73.9192C228.548 73.6908 228.731 73.1074 229.195 72.7982C229.516 72.5847 230.731 72.2392 230.867 72.0237C231.966 70.2816 229.093 70.8682 228.249 70.9809Z" fill="#3F3D56"/>
<path d="M232.531 75.4126C231.228 76.1409 230.02 77.0259 228.932 78.0478C228.474 78.4785 228.006 79.0141 228.048 79.6415C228.103 80.4754 228.991 80.9591 229.761 81.2849L232.878 82.6046C233.256 82.0717 232.91 81.3359 232.519 80.8122C232.128 80.2884 231.664 79.6824 231.837 79.0521C232.034 78.3329 232.911 78.0878 233.646 77.9639C234.844 77.762 238.076 77.7782 237.688 75.8471C237.23 73.5718 233.733 74.7403 232.531 75.4126Z" fill="#3F3D56"/>
<path d="M231.904 204.175C231.607 205.034 231.579 206.046 232.092 206.796C232.668 207.638 233.821 207.952 234.818 207.738C235.811 207.474 236.697 206.905 237.349 206.111C237.946 205.446 238.437 204.693 238.805 203.878C239.319 202.609 239.681 201.284 239.884 199.93L240.852 194.849C241.068 193.713 241.06 190.231 238.972 191.366C238.402 191.675 237.082 194.122 236.484 194.816C235.407 196.067 235.265 197.28 234.698 198.795C233.988 200.693 232.56 202.274 231.904 204.175Z" fill="#3F3D56"/>
<path d="M342.149 230.178C341.466 229.912 340.803 229.596 340.166 229.234C339.527 230.992 339.187 232.844 339.16 234.714L343.834 232.07C344.537 231.672 345.334 231.119 345.319 230.311C345.325 230.211 345.305 230.112 345.259 230.023C345.214 229.934 345.145 229.859 345.06 229.805C344.957 229.764 344.844 229.75 344.733 229.767C344.04 229.825 343.408 230.166 342.754 230.403C342.1 230.64 341.336 230.765 340.736 230.413" fill="#3F3D56"/>
<path d="M366.804 231.749C366.291 231.888 365.79 232.068 365.305 232.286C364.232 232.832 363.503 233.869 362.538 234.587C361.614 235.275 360.502 235.653 359.411 236.02C359.09 236.304 359.237 236.875 359.586 237.125C359.961 237.338 360.39 237.434 360.82 237.402C361.954 237.427 363.149 237.438 364.142 236.89C364.702 236.527 365.225 236.112 365.706 235.649C366.867 234.68 368.262 234.041 369.642 233.423C370.144 233.234 370.609 232.956 371.014 232.603C371.881 231.748 371.942 230.43 370.692 230.139C369.681 229.904 367.766 231.437 366.804 231.749Z" fill="#3F3D56"/>
<path d="M377.697 224.633C377.753 224.045 377.675 223.452 377.469 222.898C377.262 222.345 376.932 221.846 376.504 221.438C376.492 222.615 376.456 223.868 375.794 224.841C375.323 225.534 374.583 226.003 374.067 226.663C373.55 227.323 373.321 228.37 373.927 228.949C374.314 229.244 374.786 229.406 375.273 229.413C376.479 229.555 377.875 229.634 378.721 228.762C379.182 228.287 379.407 227.582 379.97 227.233C380.18 227.145 380.367 227.011 380.518 226.841C380.751 226.471 380.381 225.984 379.965 225.851C379.549 225.717 379.091 225.78 378.673 225.654C378.255 225.527 377.872 225.057 378.086 224.677" fill="#3F3D56"/>
<path d="M358.336 181.496C357.704 181.65 357.048 181.689 356.402 181.61C355.328 181.413 354.492 180.604 353.625 179.94C351.565 178.371 349.06 177.496 346.47 177.44C344.115 177.396 341.737 178.034 339.424 177.589C339.575 178.429 340.294 179.06 341.062 179.435C341.829 179.809 342.676 179.998 343.448 180.365C344.683 180.959 345.663 181.978 346.207 183.236C346.456 183.816 346.612 184.447 346.988 184.953C347.757 185.988 349.215 186.215 350.502 186.13C352.179 186.02 353.931 185.538 355.491 186.163C356.685 186.641 357.54 187.686 358.536 188.498C359.533 189.31 360.937 189.913 362.082 189.327C360.893 188.942 359.858 188.188 359.128 187.173C358.399 186.158 358.013 184.937 358.026 183.688C359.149 183.791 362.382 183.751 362.208 181.844C362.06 180.227 359.3 181.322 358.336 181.496Z" fill="#3F3D56"/>
<path d="M343.651 194.649C343.85 193.555 344.94 192.59 344.601 191.532C344.366 190.8 343.518 190.439 342.749 190.421C341.981 190.403 341.226 190.632 340.458 190.653C339.958 190.627 339.457 190.634 338.958 190.675C337.433 190.925 336.493 192.524 335.056 193.092C334.182 193.437 333.201 193.371 332.292 193.61C330.229 194.153 328.924 196.102 327.482 197.674C325.152 200.202 322.116 201.972 318.769 202.755C317.596 203.026 316.335 203.2 315.403 203.962C314.168 204.971 313.864 206.7 313.589 208.271C312.83 212.608 311.671 216.865 310.125 220.988L315.023 221.614C315.955 221.733 316.919 221.849 317.817 221.573C318.469 221.327 319.086 220.998 319.654 220.594C321.836 219.24 324.278 218.359 326.821 218.007C328.104 217.831 329.449 217.799 330.653 218.276C331.856 218.753 332.889 219.834 332.99 221.125C333.51 220.963 334.065 220.945 334.595 221.074C335.125 221.203 335.609 221.473 335.997 221.856C336.765 222.638 337.267 223.64 337.433 224.723C337.562 225.393 337.692 226.196 338.313 226.477C338.821 226.706 339.403 226.459 339.958 226.415C341.841 226.264 343.404 228.46 345.255 228.082C347.24 227.676 347.727 224.703 349.664 224.108C350.776 223.766 352.336 224.181 352.869 223.147C353.339 222.235 352.402 221.182 352.498 220.161C352.617 218.904 354.101 218.37 355.244 217.834C359.186 215.984 361.056 210.679 359.146 206.766C358.014 204.447 355.788 202.622 355.376 200.076C355.06 198.116 355.832 195.831 354.583 194.289C353.948 193.504 352.871 193.071 352.493 192.135C352.255 191.545 352.351 190.877 352.223 190.254C352.095 189.632 351.552 188.98 350.937 189.142C349.152 189.61 348.583 195.123 347.627 196.462C346.175 198.498 343.194 197.157 343.651 194.649Z" fill="#3F3D56"/>
<path d="M310.667 183.579C310.057 183.408 309.391 183.24 308.807 183.484C308.222 183.728 307.881 184.586 308.35 185.012C312.019 184.869 315.71 184.727 319.348 185.225C323.539 185.799 327.687 187.221 331.896 186.803C329.492 186.094 327.047 185.526 324.576 185.104L320.455 184.317C319.349 184.086 318.232 183.913 317.109 183.8C314.758 183.606 312.978 184.227 310.667 183.579Z" fill="#3F3D56"/>
<path d="M314.34 170.801C314.035 170.776 313.658 170.754 313.5 171.016C313.35 171.266 313.522 171.597 313.441 171.877C313.33 172.261 312.828 172.358 312.433 172.306C312.037 172.254 311.61 172.129 311.259 172.32C311.082 172.441 310.948 172.617 310.879 172.821C310.809 173.024 310.808 173.245 310.875 173.45C311.018 173.856 311.25 174.225 311.553 174.531C312.071 175.184 312.662 175.776 313.313 176.297C314.574 177.227 316.282 177.676 317.076 179.027C317.189 179.289 317.361 179.521 317.579 179.703C317.96 179.945 318.458 179.761 318.868 179.574L320.307 178.916C320.566 178.823 320.798 178.666 320.98 178.459C321.308 178.013 321.106 177.379 320.831 176.898C320.555 176.417 320.201 175.92 320.261 175.369C320.366 174.387 321.629 174.011 322.148 173.171C322.672 172.324 322.331 171.232 322.392 170.238C322.462 169.076 323.193 167.563 322.017 166.695C321.019 165.957 320.064 166.639 319.347 167.454C317.835 169.172 317.119 171.034 314.34 170.801Z" fill="#3F3D56"/>
<path d="M323.074 153.432C323.565 154.373 324.589 154.934 325.125 155.85C325.705 156.843 325.639 158.126 326.269 159.088C326.915 160.075 328.216 160.6 328.578 161.723C328.974 162.949 328.076 164.439 328.792 165.51C328.925 165.685 329.094 165.831 329.286 165.937C329.479 166.044 329.692 166.109 329.911 166.13C330.13 166.15 330.351 166.124 330.56 166.054C330.769 165.985 330.961 165.872 331.124 165.724C331.426 165.396 331.587 164.962 331.574 164.517C331.561 164.071 331.374 163.648 331.054 163.338C330.63 162.951 330.021 162.784 329.668 162.333C329.483 162.073 329.361 161.774 329.309 161.459C329.116 160.551 329.147 159.61 329.399 158.717C329.493 158.49 329.517 158.24 329.468 157.999C329.308 157.536 328.681 157.504 328.242 157.289C327.242 156.801 327.267 155.391 327.441 154.293C327.325 155.024 324.721 153.78 324.448 153.366C323.906 152.543 324.201 150.956 324.094 150.047C322.924 150.611 322.473 152.282 323.074 153.432Z" fill="#3F3D56"/>
<path d="M296.837 167.904C296.356 167.366 295.632 166.803 294.988 167.127C294.496 167.375 294.361 168.055 294.553 168.571C294.788 169.072 295.15 169.503 295.602 169.821C296.945 170.929 298.391 171.928 299.563 173.216C301.659 175.52 302.77 178.629 305.05 180.752C305.509 181.244 306.116 181.572 306.778 181.687C307.443 181.749 308.189 181.323 308.265 180.661C308.328 180.115 307.947 179.626 307.575 179.221C306.69 178.258 305.72 177.371 304.884 176.364C304.497 175.978 304.255 175.471 304.196 174.927C304.191 174.385 304.686 173.818 305.211 173.952C304.572 173.789 304.098 172.725 303.161 172.525C302.377 172.358 302.188 172.843 301.256 172.443C299.477 171.68 298.082 169.298 296.837 167.904Z" fill="#3F3D56"/>
<path d="M338.621 115.508C338.111 115.357 337.61 115.177 337.119 114.972C335.799 114.575 334.052 115.546 334.228 116.913C334.345 117.821 335.19 118.434 335.657 119.222C336.349 120.39 336.165 121.873 335.801 123.181C335.712 123.586 335.542 123.969 335.301 124.308C334.965 124.665 334.564 124.954 334.118 125.159C332.335 126.159 330.763 127.495 329.488 129.093C329.349 129.24 329.253 129.422 329.208 129.62C329.145 130.081 329.609 130.418 329.872 130.803C330.454 131.658 330.033 132.809 330.091 133.842C330.082 133.988 330.11 134.134 330.174 134.266C330.237 134.398 330.333 134.512 330.453 134.596C330.804 134.775 331.22 134.471 331.411 134.127C332.042 132.982 331.566 131.145 332.752 130.593C332.976 130.488 333.248 130.444 333.397 130.247C333.635 129.935 333.406 129.472 333.526 129.099C333.706 128.538 334.473 128.513 335.062 128.538C336.076 128.58 337.089 128.445 338.056 128.139C338.436 128.049 338.78 127.849 339.048 127.565C339.402 127.123 339.371 126.494 339.3 125.932C338.945 123.129 338.057 120.421 336.684 117.952C337.725 118.085 338.858 118.2 339.757 117.657C340.26 117.353 340.863 116.445 340.613 115.826C340.219 114.849 339.506 115.672 338.621 115.508Z" fill="#3F3D56"/>
<path d="M205.149 130.922C205.274 131.591 205.396 132.294 205.177 132.938C204.958 133.581 204.269 134.119 203.619 133.922C203.114 133.769 202.822 133.261 202.464 132.874C200.47 130.722 195.972 131.968 194.741 129.305C194.238 128.218 194.579 126.916 194.237 125.769C194.02 125.106 193.59 124.534 193.013 124.142C192.436 123.75 191.746 123.561 191.05 123.604C190.415 123.696 189.797 123.88 189.215 124.152C185.322 125.711 181.234 126.734 177.064 127.191C176.272 127.239 175.488 127.382 174.729 127.616C173.017 128.236 171.847 129.824 171.015 131.443C170.182 133.063 169.568 134.816 168.452 136.255C167.279 137.768 165.635 138.827 164.102 139.972C163.511 140.353 163.019 140.868 162.667 141.476C162.334 142.159 162.353 142.952 162.379 143.711L162.692 152.925C162.732 154.11 162.783 155.338 163.313 156.398C163.976 157.723 165.284 158.59 166.192 159.76C167.118 160.963 167.601 162.448 167.558 163.965C167.539 164.575 167.478 165.297 167.953 165.68C168.242 165.867 168.58 165.964 168.925 165.959L181.389 166.979C183.581 167.159 186.011 167.454 187.442 169.124C188.118 169.912 188.661 171.046 189.695 171.131C190.139 171.167 190.571 170.985 191.015 170.95C192.135 170.861 193.119 171.711 193.74 172.647C194.68 174.075 195.107 175.779 194.95 177.481C194.848 178.549 194.517 179.587 194.445 180.658C194.174 184.731 197.627 188.27 197.694 192.353C197.733 194.754 196.594 196.997 195.482 199.126C197.276 201.843 195.807 205.461 196.521 208.638C197.199 211.651 199.711 214.011 200.338 217.035C200.624 218.42 200.641 220.124 201.862 220.837C202.398 221.098 202.992 221.217 203.587 221.183C207.176 221.225 210.724 220.417 213.941 218.825C215.45 218.076 217.015 216.958 217.279 215.293C217.492 213.95 216.811 212.449 217.504 211.279C218.32 209.901 220.412 210.01 221.614 208.951C223.563 207.232 222.043 203.953 222.833 201.477C223.542 199.251 225.986 198.069 227.197 196.071C227.674 195.212 228.016 194.285 228.212 193.322C228.767 191.021 229.112 188.674 229.244 186.311C229.276 184.875 229.382 183.442 229.561 182.016C230.867 173.903 238.888 168.47 241.492 160.675C241.741 159.931 241.858 158.939 241.196 158.518C240.803 158.331 240.358 158.284 239.935 158.386L234.189 159.111C233.475 159.2 232.719 159.285 232.063 158.988C231.408 158.692 230.938 157.863 231.286 157.233C232.262 155.465 230.254 153.232 229.363 151.42C226.961 146.542 224.101 141.904 220.821 137.568C220.611 137.345 220.48 137.059 220.447 136.755L222.077 136.809C221.527 134.834 220.618 132.672 218.699 131.95C217.618 131.543 216.421 131.683 215.267 131.746C211.962 131.927 208.42 131.428 205.149 130.922Z" fill="#3F3D56"/>
<path d="M215.27 86.4111C216.134 87.3294 217.103 88.303 218.354 88.4631C220.564 88.7458 222.153 86.4606 223.165 84.4757C223.202 84.9817 223.436 85.4532 223.815 85.7898C224.195 86.1264 224.691 86.3016 225.198 86.2782C225.743 86.1864 226.264 85.9829 226.727 85.6803C231.105 83.2876 236.009 82.0199 240.999 81.9909C240.951 81.613 241.045 81.2306 241.262 80.9177C241.479 80.6048 241.805 80.3835 242.176 80.2965C243.19 80.0954 244.104 80.9725 244.594 81.8835C245.083 82.7946 245.388 83.8506 246.166 84.5326C246.943 85.2145 248.448 85.1848 248.755 84.1973C249.05 83.2492 248.063 82.4407 247.242 81.8817C246.421 81.3228 245.556 80.2882 246.109 79.4633C250.301 78.5354 254.519 77.6039 258.809 77.4194C259.54 77.4448 260.267 77.3195 260.947 77.0512C261.601 76.7301 262.121 76.0014 261.945 75.2942C261.009 75.5143 260.029 75.4506 259.129 75.1112C258.229 74.7718 257.451 74.1721 256.893 73.3887C262.846 72.8975 269.176 72.4788 274.452 75.2796C275.085 76.6385 271.858 77.7691 272.721 78.9948C272.997 79.3857 273.548 79.4316 274.026 79.4404C277.692 79.5085 281.379 79.5752 285.003 79.0218C286.328 78.8196 287.666 78.534 288.996 78.6981C291.21 78.9712 293.105 80.4491 295.284 80.9309C296.171 81.127 297.165 81.1337 297.913 80.6178C298.66 80.102 298.982 78.9274 298.369 78.2568C300.421 76.246 303.826 76.7444 306.532 77.707C309.239 78.6697 311.803 80.2222 314.668 80.4367C316.722 80.5906 318.805 80.0381 320.835 80.3893C322.11 80.61 323.298 81.1774 324.544 81.5261C326.902 82.1855 329.396 82.0463 331.845 82.078C338.091 82.1622 344.269 83.3898 350.073 85.7002C350.828 85.946 351.52 86.3547 352.1 86.8974C352.64 87.4757 352.915 88.3744 352.552 89.0775L346.555 88.2012C347.12 89.3136 348.582 89.5032 349.769 89.8869C350.956 90.2707 352.187 91.5818 351.473 92.6053C350.187 92.1958 349.021 93.4818 348.372 94.6652C347.722 95.8485 346.93 97.2656 345.582 97.3377C344.375 97.4023 342.915 96.3744 342.128 97.2921C343.215 98.6635 344.146 100.152 344.903 101.729C345.681 103.349 346.234 105.389 345.184 106.846C345.018 107.106 344.768 107.301 344.475 107.396C343.617 107.613 343.059 106.564 342.444 105.927C341.668 105.126 340.495 104.899 339.445 104.523C338.395 104.147 337.289 103.407 337.207 102.295C337.156 101.602 337.521 100.959 337.79 100.319C338.243 99.2412 338.44 98.0733 338.368 96.9063C338.31 95.9674 338.046 94.9908 337.372 94.3348C336.698 93.6788 335.534 93.4707 334.81 94.0715C334.472 94.3518 334.201 94.8003 333.763 94.817C332.988 94.8467 332.393 93.4955 331.769 93.9567C331.842 94.4482 331.74 94.9497 331.481 95.3736C329.621 96.9919 326.762 96.3073 324.364 96.8789C323.223 97.2053 322.131 97.6822 321.116 98.2971C320.737 98.4594 320.414 98.7305 320.188 99.0762C319.889 99.658 320.219 100.403 320.746 100.79C321.306 101.133 321.935 101.348 322.588 101.419C325.512 101.972 328.479 102.83 330.788 104.708C333.097 106.586 334.611 109.691 333.88 112.577L328.113 107.066C328.332 109.38 328.457 111.7 328.486 114.026C328.523 114.481 328.461 114.938 328.303 115.365C327.892 116.273 326.778 116.579 325.801 116.779C325.53 116.831 325.272 116.939 325.046 117.098C324.819 117.256 324.628 117.46 324.486 117.697C324.344 117.934 324.254 118.199 324.221 118.473C324.189 118.748 324.214 119.026 324.297 119.29C324.644 120.421 325.509 121.302 326.301 122.181C327.093 123.059 327.872 124.058 327.976 125.236C328.08 126.414 327.191 127.742 326.011 127.66C325.116 127.598 324.453 126.798 324.071 125.986C323.69 125.175 323.463 124.271 322.89 123.581C321.154 121.495 317.257 122.389 315.703 120.164C315.307 120.613 315.032 121.157 314.905 121.742C314.777 122.328 314.802 122.936 314.976 123.509C315.699 123.057 316.689 123.477 317.232 124.135C317.776 124.793 318.032 125.636 318.458 126.375C319.034 127.372 319.951 128.255 320.031 129.404C320.01 129.838 320.017 130.273 320.053 130.707C320.196 131.402 320.784 131.902 321.191 132.484C322.14 133.837 322.093 135.696 321.482 137.232C320.87 138.767 319.772 140.05 318.683 141.294C316.782 143.467 314.843 145.627 312.589 147.431C311.946 147.946 311.26 148.453 310.86 149.172C310.459 149.892 310.439 150.903 311.054 151.45C310.614 151.472 309.824 151.689 309.384 151.711C309.229 149.944 309.195 148.169 309.283 146.398C307.545 145.564 305.674 147.798 305.898 149.713C306.123 151.628 307.507 153.164 308.493 154.821C309.214 156.032 309.75 157.444 309.509 158.833C309.269 160.222 308.029 161.504 306.625 161.381C304.391 161.186 303.456 157.979 301.244 157.612C301.049 157.567 300.845 157.587 300.662 157.67C300.334 157.85 300.277 158.29 300.258 158.664C300.168 160.5 300.09 162.409 300.806 164.102C301.855 166.578 304.564 168.658 303.995 171.287C300.934 169.864 299.343 166.431 298.62 163.134C297.898 159.837 297.777 156.375 296.482 153.258C295.498 154.519 293.431 153.476 292.532 152.154C291.68 150.9 291.156 149.45 290.329 148.179C289.503 146.908 288.236 145.77 286.722 145.7C285.134 145.627 283.757 146.717 282.546 147.746C281.551 148.593 280.528 149.473 279.946 150.643C279.099 152.346 279.321 154.353 279.28 156.254C279.236 158.31 278.8 160.479 277.399 161.984C275.998 163.488 273.412 164.013 271.867 162.656C271.06 161.948 270.67 160.89 270.322 159.875C268.644 154.98 267.248 149.994 266.138 144.94C265.878 146.093 264.866 147.58 263.898 146.901C263.681 146.718 263.505 146.491 263.382 146.236C261.577 143.177 258.234 141.342 254.857 140.242C251.48 139.141 247.927 138.628 244.587 137.419C242.716 136.741 240.928 135.851 239.259 134.765C238.834 135.39 238.586 136.118 238.541 136.873C238.496 137.628 238.656 138.38 239.003 139.051C239.744 140.363 241.421 141.122 242.856 140.663C243.597 140.427 244.224 139.912 244.959 139.657C245.695 139.403 246.683 139.528 247.005 140.237C247.313 140.916 246.847 141.736 247.078 142.445C247.43 143.524 249.057 143.607 249.626 144.589C250.05 145.32 249.701 146.29 249.097 146.879C248.492 147.469 247.685 147.792 246.947 148.203C244.553 149.534 242.85 151.807 240.757 153.576C238.665 155.344 235.712 156.635 233.218 155.501C233.812 152.491 230.227 150.281 229.567 147.284C229.35 146.297 229.462 145.25 229.152 144.289C228.703 142.897 227.469 141.94 226.456 140.885C225.227 139.592 224.27 138.066 223.641 136.397C223.012 134.728 222.723 132.95 222.792 131.168C222.847 129.929 223.075 128.671 222.793 127.463C222.51 126.256 221.511 125.088 220.272 125.143C217.444 125.268 213.88 125.478 212.396 123.067C211.866 122.206 211.636 120.945 212.402 120.286C212.942 119.821 213.739 119.865 214.449 119.935L220.822 120.561C222.313 120.708 223.924 120.829 225.204 120.05C226.483 119.271 227.037 117.202 225.853 116.285C224.987 115.615 223.437 115.651 223.185 114.586C222.975 113.699 223.957 112.693 223.427 111.951C223.047 111.42 222.192 111.567 221.674 111.966C221.156 112.364 220.78 112.947 220.2 113.249C219.183 113.778 217.968 113.274 216.874 112.932C215.78 112.59 214.313 112.56 213.782 113.577C213.188 114.713 214.308 116.203 213.719 117.341C212.941 118.847 210.303 117.99 209.209 119.285C207.954 120.771 210.064 122.988 209.64 124.886C209.1 125.154 208.499 125.277 207.897 125.243C207.295 125.209 206.712 125.02 206.205 124.693C205.707 124.354 205.309 123.886 205.055 123.339C204.801 122.792 204.7 122.186 204.763 121.587C204.868 120.733 205.313 119.861 205.015 119.054C204.774 118.401 204.119 118.013 203.51 117.676L197.316 114.253C196.741 115.32 197.468 116.643 198.377 117.444C199.286 118.245 200.425 118.848 201.022 119.903C201.4 120.633 201.485 121.481 201.259 122.272C201.033 123.062 200.514 123.737 199.808 124.158C199.719 124.22 199.619 124.261 199.513 124.279C199.407 124.298 199.298 124.293 199.194 124.266C199.095 124.207 199.009 124.13 198.94 124.038C198.872 123.946 198.823 123.841 198.796 123.73C197.703 120.934 196.062 118.176 193.439 116.715C190.816 115.254 187.047 115.555 185.326 118.016C184.918 118.6 184.644 119.267 184.288 119.885C182.397 123.168 178.343 124.723 174.555 124.621C174.185 124.642 173.816 124.555 173.494 124.372C172.882 123.949 172.909 123.052 173.003 122.314L173.4 119.182C173.48 118.553 173.596 117.858 174.094 117.465C174.795 116.912 175.808 117.261 176.701 117.248C177.378 117.216 178.029 116.977 178.565 116.563C179.102 116.149 179.498 115.58 179.7 114.933C179.881 114.28 179.88 113.59 179.697 112.937C179.514 112.285 179.157 111.694 178.664 111.23C178.254 110.845 177.704 110.362 177.921 109.844C178.007 109.7 178.124 109.577 178.263 109.484C178.401 109.39 178.559 109.328 178.724 109.302C180.329 108.836 182.025 108.714 183.604 108.164C185.182 107.614 186.713 106.489 187.086 104.86C187.201 104.361 187.253 103.756 187.702 103.508C187.927 103.413 188.168 103.364 188.412 103.363C189.268 103.241 190.047 102.804 190.596 102.136C191.146 101.469 191.425 100.62 191.38 99.757C192.136 99.2285 193.196 99.6173 193.927 100.179C194.659 100.742 195.305 101.484 196.196 101.727C197.855 102.178 199.458 100.709 201.178 100.702C201.901 100.699 202.65 100.955 203.33 100.71C204.02 100.461 204.432 99.7748 204.961 99.2676C205.491 98.7604 206.419 98.451 206.908 98.9974L206.492 95.9143C207.33 96.1261 208.204 96.1561 209.055 96.0022C209.906 95.8484 210.714 95.5144 211.425 95.0225L206.045 93.2049C205.858 93.1581 205.685 93.0658 205.542 92.936C205.151 92.5148 205.54 91.8586 205.858 91.3798C206.618 90.2346 206.746 88.3482 205.495 87.778C204.641 87.3888 203.661 87.856 202.841 88.313L198.915 90.5022C198.79 91.2485 199.703 91.6715 200.268 92.1742C200.61 92.4784 200.853 92.8789 200.963 93.3232C201.073 93.7675 201.047 94.2348 200.887 94.6637C200.727 95.0926 200.441 95.4631 200.066 95.7264C199.692 95.9898 199.246 96.1337 198.788 96.1394C199.047 96.4755 199.227 96.8655 199.314 97.2804C199.401 97.6954 199.394 98.1247 199.293 98.5366L196.652 98.7266C196.355 98.7863 196.047 98.7261 195.795 98.5594C195.512 98.3084 195.551 97.8687 195.485 97.4965C195.327 96.5983 194.448 95.9687 193.55 95.8073C192.652 95.6459 191.734 95.8528 190.845 96.0571C190.468 96.1929 190.053 96.1833 189.682 96.0303C189.47 95.8921 189.308 95.6882 189.222 95.4497C188.833 94.5048 189.197 93.3942 189.823 92.5861C190.449 91.7781 191.306 91.1874 192.075 90.5147C193.915 88.9001 195.267 86.8031 195.978 84.4606C197.433 83.8513 198.938 83.0234 200.392 82.4141C202.634 81.2789 205.149 80.7918 207.653 81.0074L212.577 81.1015C214.036 81.1293 215.533 81.165 216.881 81.7209C218.23 82.2768 219.414 83.4791 219.508 84.9345C219.536 85.0993 219.521 85.2685 219.466 85.4262C219.411 85.584 219.316 85.7251 219.192 85.8364C219.001 85.9403 218.786 85.9889 218.569 85.9768C217.209 86.0245 216.629 86.3634 215.27 86.4111Z" fill="#3F3D56"/>
<path d="M176.014 101.846C176.207 101.664 176.345 101.432 176.415 101.177C176.484 100.921 176.481 100.651 176.407 100.397C175.939 100.216 175.43 100.17 174.937 100.263C174.444 100.356 173.986 100.585 173.616 100.924C173.324 101.219 173.073 101.551 172.868 101.912C172.221 102.968 171.649 104.229 172.024 105.41C172.054 105.538 172.11 105.66 172.188 105.767C172.266 105.873 172.365 105.963 172.478 106.032C172.647 106.099 172.828 106.127 173.008 106.115C173.721 106.114 174.434 106.07 175.141 105.983C175.576 105.93 176.081 105.807 176.249 105.403C176.469 104.872 175.935 104.27 176.091 103.716C176.193 103.468 176.349 103.246 176.546 103.064C176.644 102.973 176.719 102.86 176.766 102.734C176.812 102.609 176.829 102.474 176.814 102.341C176.751 102.081 176.353 101.934 176.21 102.16" fill="#3F3D56"/>
<path d="M179.711 97.0533C179.078 96.9079 178.425 96.8669 177.779 96.9319C177.636 96.9277 177.494 96.9599 177.367 97.0255C177.244 97.1164 177.154 97.2457 177.113 97.393C176.976 97.8313 177.01 98.305 177.207 98.7196C177.404 99.1343 177.75 99.4595 178.176 99.6306C178.408 99.6839 178.631 99.7733 178.835 99.8955C179.382 100.32 179.033 101.186 179.137 101.871C179.253 102.639 179.997 103.284 179.86 104.048C179.753 104.651 179.109 105.128 179.213 105.731C179.321 106.363 180.123 106.553 180.762 106.604C181.133 106.668 181.514 106.625 181.86 106.478C182.207 106.241 182.453 105.883 182.552 105.475C182.814 104.696 182.924 103.874 182.876 103.054C182.873 102.681 182.78 102.314 182.603 101.986C182.411 101.725 182.198 101.481 181.965 101.255C180.741 99.8312 182.03 97.7069 179.711 97.0533Z" fill="#3F3D56"/>
<path opacity="0.8" d="M340.716 208.622C340.716 208.622 246.94 154.792 206.568 164.992C206.568 164.992 121.008 174.199 111.092 194.456C111.092 194.456 83.8943 109.462 73.9783 106.629" stroke="#1E90FF" stroke-width="2" stroke-miterlimit="10"/>
<path opacity="0.8" d="M111.092 194.456C126.816 152.526 268.472 106.063 268.472 106.063C248.357 111.162 206.568 164.992 206.568 164.992C206.568 164.992 118.175 100.68 73.9783 106.629C73.9783 106.629 268.614 113.004 340.716 208.622" stroke="#1E90FF" stroke-width="2" stroke-miterlimit="10"/>
<path d="M73.9783 110.737C76.2471 110.737 78.0864 108.898 78.0864 106.629C78.0864 104.361 76.2471 102.521 73.9783 102.521C71.7095 102.521 69.8703 104.361 69.8703 106.629C69.8703 108.898 71.7095 110.737 73.9783 110.737Z" fill="#1E90FF"/>
<path d="M111.092 198.564C113.361 198.564 115.2 196.725 115.2 194.456C115.2 192.187 113.361 190.348 111.092 190.348C108.823 190.348 106.984 192.187 106.984 194.456C106.984 196.725 108.823 198.564 111.092 198.564Z" fill="#1E90FF"/>
<path d="M268.472 110.171C270.741 110.171 272.58 108.331 272.58 106.063C272.58 103.794 270.741 101.955 268.472 101.955C266.203 101.955 264.364 103.794 264.364 106.063C264.364 108.331 266.203 110.171 268.472 110.171Z" fill="#1E90FF"/>
<path d="M340.716 212.73C342.985 212.73 344.824 210.89 344.824 208.622C344.824 206.353 342.985 204.513 340.716 204.513C338.448 204.513 336.608 206.353 336.608 208.622C336.608 210.89 338.448 212.73 340.716 212.73Z" fill="#1E90FF"/>
<path d="M206.568 169.1C208.837 169.1 210.676 167.26 210.676 164.992C210.676 162.723 208.837 160.884 206.568 160.884C204.299 160.884 202.46 162.723 202.46 164.992C202.46 167.26 204.299 169.1 206.568 169.1Z" fill="#1E90FF"/>
</g>
<defs>
<clipPath id="clip0">
<rect width="404.005" height="300" fill="white" transform="translate(0.497711)"/>
</clipPath>
</defs>
</svg>
